<svg width="105" height="113" viewBox="0 0 105 113" fill="none" xmlns="http://www.w3.org/2000/svg">
<path d="M60.7897 0.707113C55.1159 2.205 50.0776 6.56248 47.4449 12.1001C46.2194 14.7328 45.9924 15.8221 45.8563 19.4988C45.6747 23.2208 45.8109 24.3101 46.8095 27.2151C47.4449 29.0761 47.8534 30.7556 47.7626 30.8918C47.6719 31.0733 46.7641 31.3003 45.7201 31.4818C40.4548 32.3443 34.554 36.9741 31.9214 42.3755C28.0178 50.3643 29.3341 59.2154 35.3711 65.5701C44.086 74.8297 58.7471 73.8765 66.7359 63.5275L67.9614 61.9842L70.594 64.5261C72.0919 65.8878 74.0891 67.4765 75.0423 67.9758C85.7091 73.3772 98.0099 69.3375 103.321 58.5799C104.955 55.2664 105 55.0849 105 49.9558C105 44.8266 104.955 44.5997 103.366 41.2408C100.325 34.9315 94.0609 30.3017 87.6155 29.6208C85.2551 29.3939 84.8012 29.2123 85.0282 28.6222C88.2055 20.452 86.5261 12.0093 80.5345 6.10858C75.1331 0.797894 67.8706 -1.19929 60.7897 0.707113ZM71.1387 4.47452C80.6253 7.4249 85.6183 18.364 81.5331 27.3059C80.4438 29.6208 80.2168 29.8478 77.6749 30.7556C74.3161 31.9811 71.9557 33.6606 69.1415 36.8833L66.9628 39.3344L64.6025 36.9741C62.0152 34.3868 57.5216 31.8904 54.7074 31.4364C53.2095 31.2095 52.7102 30.8464 51.6208 29.1215C48.9882 24.991 48.6705 18.2732 50.8492 13.5526C54.4804 5.65467 62.8777 1.88726 71.1387 4.47452ZM91.7006 34.5684C95.1503 36.1571 98.4184 39.289 100.052 42.5117C101.278 44.9174 101.369 45.5529 101.369 49.9104C101.369 54.4494 101.323 54.8125 99.8255 57.536C93.8793 68.5204 79.2182 69.9276 71.5472 60.214C70.2763 58.5799 69.8224 57.6267 70.004 56.9913C70.821 54.0863 70.821 49.8196 70.0494 46.5515L69.2323 43.1472L70.4125 41.15C72.4097 37.7457 75.8139 35.1131 80.0352 33.7514C83.031 32.7528 88.6594 33.1613 91.7006 34.5684ZM53.9811 35.1131C59.0195 36.2932 63.377 39.9245 65.6465 44.8266C66.6905 47.0054 66.872 48.0494 66.872 51.499C66.872 55.221 66.7359 55.9019 65.3741 58.6253C62.3784 64.753 56.9315 68.1573 50.0776 68.2027C46.9002 68.2481 46.0378 68.0665 43.4506 66.841C39.5924 65.0708 37.1867 62.8466 35.4164 59.5331C30.2873 49.9104 35.3257 38.0181 45.7655 35.2039C48.8974 34.3414 50.7584 34.3414 53.9811 35.1131Z" fill="url(#paint0_linear_9_1934)"/>
<path d="M64.8748 7.65185C64.5117 7.8788 63.6493 9.46747 62.9684 11.1923L61.7429 14.2789L58.2024 14.7328C53.9357 15.2774 53.4818 15.5044 53.4818 17.2292C53.4818 18.2732 54.0265 18.9541 56.2053 20.6789C57.7032 21.8591 58.9287 22.9484 58.9287 23.0846C58.9287 23.2208 58.5202 24.764 58.0209 26.5343C57.2039 29.3485 57.2039 29.757 57.7939 30.7102C58.7925 32.2081 60.0635 32.0265 63.2862 29.8932L66.1458 28.0322L68.8692 29.8932C71.638 31.7996 73.2721 32.2081 74.2707 31.2095C74.9969 30.4832 74.9515 29.0761 74.0437 25.808L73.2721 22.9938L74.6338 21.9044C78.4466 18.6817 78.9005 18.1824 78.9005 17.0931C78.9005 15.459 78.1289 15.0959 74.0891 14.7328L70.4125 14.415L69.3685 11.4646C67.9614 7.47029 66.7812 6.4717 64.8748 7.65185ZM67.2352 15.9129C68.2337 17.8647 68.2791 17.9101 70.6848 18.0463L73.1813 18.1824L71.2295 19.9981C69.1415 21.8591 69.1415 21.9498 70.0947 25.3541L70.4125 26.4435L68.3245 25.1726L66.1912 23.947L64.1032 25.1726L61.9699 26.3981L62.333 24.6733C62.8777 21.9045 62.7415 21.3144 60.8805 19.6803L59.1557 18.1824L61.1074 18.137C63.7855 18.137 64.5571 17.5924 65.2834 15.459C65.6011 14.415 65.9642 13.6888 66.055 13.7796C66.1458 13.8703 66.6905 14.8235 67.2352 15.9129Z" fill="url(#paint1_linear_9_1934)"/>
<path d="M82.3048 39.2436C81.6693 40.6053 81.0792 42.2394 80.8977 42.8748C80.6253 43.9642 80.4438 44.0096 77.5842 44.0096C74.0891 44.0096 72.3643 44.7358 72.1827 46.2791C72.0465 47.1869 72.5912 47.9132 74.8607 49.9557L77.6749 52.4522L76.9033 55.4026C75.8593 59.17 76.0409 60.4409 77.6296 60.9856C78.6735 61.3487 79.2636 61.1218 81.8055 59.4877L84.8012 57.5359L87.797 59.3969C91.2013 61.5303 92.1999 61.6665 93.1985 60.214C93.7886 59.2608 93.7886 58.8523 92.9715 55.9019C92.4722 54.1317 92.0637 52.543 92.0637 52.4522C92.0637 52.316 93.2893 51.2721 94.7871 50.0919C96.9205 48.4125 97.5106 47.6862 97.5106 46.733C97.5106 44.872 96.4666 44.2819 92.6084 44.0096L89.2041 43.7826L88.1148 40.8323C86.753 37.1556 86.3899 36.7471 84.7105 36.7471C83.5303 36.7471 83.258 37.0195 82.3048 39.2436ZM87.2069 47.2777C87.5247 47.4593 88.6594 47.6408 89.7488 47.6408H91.746L89.7942 49.4564C88.6141 50.5458 87.9786 51.499 88.1148 51.9075C88.2509 52.2706 88.5233 53.3146 88.7048 54.2678L89.0226 55.9473L87.2523 54.7217C85.0736 53.2692 84.5289 53.2692 82.3502 54.7217L80.5799 55.9473L80.8977 54.6763C81.8055 51.0451 81.8055 51.0451 79.7629 49.3203L77.8111 47.6408H79.6721C82.3956 47.6408 82.9856 47.2777 83.9842 44.9628L84.892 42.8748L85.7998 44.9174C86.2537 46.0068 86.8892 47.0961 87.2069 47.2777Z" fill="url(#paint2_linear_9_1934)"/>
<path d="M48.8066 38.6535C48.3981 38.9713 47.5811 40.5599 46.991 42.194C45.7655 45.5075 45.4023 45.689 41.1356 45.7798C38.9115 45.8252 38.4122 45.9614 37.8221 46.9146C36.8689 48.3671 37.3228 49.2295 40.4094 51.7714C41.7257 52.8607 42.8605 53.7685 42.9513 53.8139C42.9966 53.8593 42.6335 55.448 42.1342 57.309C40.591 62.9828 42.2704 64.1176 47.3995 60.8494L50.2137 59.0792L52.8464 60.8494C54.7074 62.1204 55.9329 62.6197 56.8407 62.5289C58.9741 62.3019 59.201 61.3487 58.2478 57.3998L57.34 53.9047L58.7017 52.7699C62.3784 49.6834 63.0138 49.0025 63.0138 48.1855C63.0138 46.6876 61.7883 45.8252 59.7003 45.8252C58.6563 45.8252 57.0223 45.689 56.1145 45.5529C54.5712 45.2805 54.3896 45.099 53.4364 42.4663C51.8932 38.2904 50.6676 37.2464 48.8066 38.6535ZM50.9854 46.1429C51.4393 48.0947 52.5286 49.0025 54.3896 49.0025C56.7953 49.0025 56.9315 49.4564 54.9797 51.0905L53.3003 52.4976L53.7996 54.7217C54.0719 55.9473 54.2535 57.0367 54.1627 57.1274C54.0719 57.2182 53.3911 56.8551 52.6648 56.3104C50.9854 55.1302 49.5783 55.0849 47.808 56.265C45.9924 57.4452 45.7201 57.3998 46.2194 55.9927C47.0818 53.7685 46.764 52.3614 45.13 50.9089C44.2676 50.1373 43.6775 49.4111 43.8137 49.2749C43.9952 49.1387 44.9484 49.0025 45.9924 49.0025C48.1258 49.0025 48.5797 48.6394 49.3967 46.1429C49.9868 44.2819 50.4861 44.2819 50.9854 46.1429Z" fill="url(#paint3_linear_9_1934)"/>
<path d="M31.9214 70.0637C29.5611 70.8354 27.2916 71.9701 20.256 76.0553C14.6276 79.3688 13.5383 79.8227 13.5383 79.0056C13.5383 78.7787 12.9482 77.9617 12.2219 77.19C10.4063 75.2382 8.40913 75.2836 4.59634 77.417C-1.8945 81.0936 -1.93989 80.912 7.22898 97.1164C11.2233 104.243 15.0815 110.597 15.8532 111.278C16.6248 112.05 17.7142 112.549 18.4404 112.549C19.9837 112.549 25.9752 109.281 26.883 107.919C27.8816 106.512 27.7909 104.107 26.7015 102.291L25.7483 100.793L27.1554 100.067C28.4717 99.386 28.9256 99.4767 40.6817 102.609C54.3897 106.285 56.2961 106.421 60.5174 104.243C65.6919 101.565 94.1063 83.6355 94.9233 82.5461C95.3772 81.8652 95.8765 80.4127 96.0127 79.278C96.7389 73.0141 91.4736 69.7006 84.7559 72.1517C83.2126 72.6964 77.5842 75.6921 72.2735 78.7787C66.9174 81.9106 62.2422 84.5433 61.8791 84.7248C61.289 84.9064 61.1982 84.6794 61.4706 83.1362C61.8337 80.7759 60.4266 77.6893 58.4748 76.5092C57.7032 76.0553 55.479 75.329 53.5726 74.8751C51.6662 74.3758 47.1272 72.9687 43.4959 71.7432C36.642 69.3375 34.9625 69.1105 31.9214 70.0637ZM44.4038 75.7829C49.0336 77.2808 53.7088 78.7333 54.8436 79.051C57.5216 79.8227 58.5656 81.5475 57.567 83.3631C56.523 85.1787 54.1627 85.2241 48.1258 83.5447C42.3158 81.8652 41.408 81.8198 40.7271 83.0908C39.9101 84.634 41.3172 85.4965 47.1272 87.0397C56.1145 89.4908 60.2904 89.6724 63.8763 87.8114C64.6025 87.4483 69.4593 84.6794 74.5884 81.6383C86.753 74.5574 89.2495 73.695 91.519 75.7829C92.6538 76.8269 92.8808 79.2326 91.9729 80.4127C91.2921 81.2752 60.9713 100.021 58.2478 101.247C57.2493 101.701 55.6152 102.109 54.6166 102.109C53.618 102.109 47.4903 100.657 40.9995 98.932C34.5086 97.1618 28.7894 95.7547 28.2901 95.7547C27.7909 95.7547 26.7015 96.1632 25.8845 96.6625C25.0674 97.1618 24.3412 97.5703 24.205 97.5703C23.9781 97.5703 15.717 83 15.8986 82.8184C15.9893 82.773 19.2575 80.8666 23.161 78.5971C30.1512 74.5574 33.2377 73.1503 35.0987 73.0595C35.598 73.0595 39.7739 74.285 44.4038 75.7829ZM16.7156 91.9419C20.5738 98.8413 23.7965 104.787 23.8873 105.196C24.0234 106.104 18.6674 109.236 18.0773 108.646C17.3511 107.919 3.55236 83.2723 3.55236 82.7277C3.55236 82.1376 8.00062 79.4142 8.99921 79.4595C9.40772 79.4595 12.4489 84.3163 16.7156 91.9419Z" fill="url(#paint4_linear_9_1934)"/>
<path d="M6.82047 83.3631C6.18501 84.5433 6.95664 85.7688 8.36375 85.7688C8.99921 85.7688 9.58929 85.4511 9.77085 85.0426C10.4517 83.2723 7.68289 81.7291 6.82047 83.3631Z" fill="url(#paint5_linear_9_1934)"/>
<defs>
<linearGradient id="paint0_linear_9_1934" x1="52.5" y1="0" x2="52.5" y2="112.549" gradientUnits="userSpaceOnUse">
<stop stop-color="#F1D27A"/>
<stop offset="0.239583" stop-color="#EECA64"/>
<stop offset="0.59375" stop-color="#FCE194"/>
<stop offset="0.947917" stop-color="#E4BE51"/>
</linearGradient>
<linearGradient id="paint1_linear_9_1934" x1="52.5" y1="0" x2="52.5" y2="112.549" gradientUnits="userSpaceOnUse">
<stop stop-color="#F1D27A"/>
<stop offset="0.239583" stop-color="#EECA64"/>
<stop offset="0.59375" stop-color="#FCE194"/>
<stop offset="0.947917" stop-color="#E4BE51"/>
</linearGradient>
<linearGradient id="paint2_linear_9_1934" x1="52.5" y1="0" x2="52.5" y2="112.549" gradientUnits="userSpaceOnUse">
<stop stop-color="#F1D27A"/>
<stop offset="0.239583" stop-color="#EECA64"/>
<stop offset="0.59375" stop-color="#FCE194"/>
<stop offset="0.947917" stop-color="#E4BE51"/>
</linearGradient>
<linearGradient id="paint3_linear_9_1934" x1="52.5" y1="0" x2="52.5" y2="112.549" gradientUnits="userSpaceOnUse">
<stop stop-color="#F1D27A"/>
<stop offset="0.239583" stop-color="#EECA64"/>
<stop offset="0.59375" stop-color="#FCE194"/>
<stop offset="0.947917" stop-color="#E4BE51"/>
</linearGradient>
<linearGradient id="paint4_linear_9_1934" x1="52.5" y1="0" x2="52.5" y2="112.549" gradientUnits="userSpaceOnUse">
<stop stop-color="#F1D27A"/>
<stop offset="0.239583" stop-color="#EECA64"/>
<stop offset="0.59375" stop-color="#FCE194"/>
<stop offset="0.947917" stop-color="#E4BE51"/>
</linearGradient>
<linearGradient id="paint5_linear_9_1934" x1="52.5" y1="0" x2="52.5" y2="112.549" gradientUnits="userSpaceOnUse">
<stop stop-color="#F1D27A"/>
<stop offset="0.239583" stop-color="#EECA64"/>
<stop offset="0.59375" stop-color="#FCE194"/>
<stop offset="0.947917" stop-color="#E4BE51"/>
</linearGradient>
</defs>
</svg>
