<svg width="105" height="113" viewBox="0 0 105 113" fill="none" xmlns="http://www.w3.org/2000/svg">
<path d="M71.3763 38.2586C70.6273 38.7267 65.7119 43.4549 60.5156 48.7916C55.2257 54.1751 50.638 58.4351 50.1698 58.4351C49.7485 58.4351 47.5951 56.6562 45.3949 54.456C39.7304 48.7916 37.3898 48.3234 33.3638 52.0217C29.9933 55.1114 29.1038 57.8734 30.6018 60.6822C30.9764 61.3844 34.9555 65.5976 39.4028 70.0449C46.2843 76.8796 47.7824 78.1436 49.2804 78.4244C50.2167 78.5649 51.5742 78.4244 52.3232 78.1436C53.0255 77.8627 59.9538 71.0747 67.7249 63.1165C79.5218 51.0854 81.9093 48.4171 82.1434 47.0127C82.6115 44.5784 82.1434 43.174 79.9431 40.8333C76.713 37.3223 74.1383 36.5265 71.3763 38.2586ZM76.8066 42.9399C77.8365 43.923 78.6324 45.1869 78.6324 45.7487C78.6324 46.9659 51.2934 74.8198 50.123 74.8198C48.9059 74.8198 33.6915 59.2778 33.6915 58.0606C33.6915 56.7967 36.9685 53.2857 38.1388 53.2857C38.6537 53.2857 40.854 55.1582 43.101 57.4521C47.361 61.8525 48.9059 62.6483 51.8083 61.993C52.6978 61.8057 56.4428 58.2947 63.1371 51.4131C69.3633 45.0465 73.5297 41.1142 74.0915 41.1142C74.6064 41.1142 75.8236 41.91 76.8066 42.9399Z" fill="#D4AE41"/>
<path d="M71.3763 38.2586C70.6273 38.7267 65.7119 43.4549 60.5156 48.7916C55.2257 54.1751 50.638 58.4351 50.1698 58.4351C49.7485 58.4351 47.5951 56.6562 45.3949 54.456C39.7304 48.7916 37.3898 48.3234 33.3638 52.0217C29.9933 55.1114 29.1038 57.8734 30.6018 60.6822C30.9764 61.3844 34.9555 65.5976 39.4028 70.0449C46.2843 76.8796 47.7824 78.1436 49.2804 78.4244C50.2167 78.5649 51.5742 78.4244 52.3232 78.1436C53.0255 77.8627 59.9538 71.0747 67.7249 63.1165C79.5218 51.0854 81.9093 48.4171 82.1434 47.0127C82.6115 44.5784 82.1434 43.174 79.9431 40.8333C76.713 37.3223 74.1383 36.5265 71.3763 38.2586ZM76.8066 42.9399C77.8365 43.923 78.6324 45.1869 78.6324 45.7487C78.6324 46.9659 51.2934 74.8198 50.123 74.8198C48.9059 74.8198 33.6915 59.2778 33.6915 58.0606C33.6915 56.7967 36.9685 53.2857 38.1388 53.2857C38.6537 53.2857 40.854 55.1582 43.101 57.4521C47.361 61.8525 48.9059 62.6483 51.8083 61.993C52.6978 61.8057 56.4428 58.2947 63.1371 51.4131C69.3633 45.0465 73.5297 41.1142 74.0915 41.1142C74.6064 41.1142 75.8236 41.91 76.8066 42.9399Z" fill="url(#paint0_linear_9_1936)"/>
<path d="M50.5444 0.24613C50.1698 0.38657 48.2505 1.65053 46.3312 2.96131C44.4118 4.27208 41.5094 6.19143 39.9177 7.1277C37.6239 8.48528 36.9685 9.14067 36.9685 9.98331C36.9685 10.6387 37.343 11.3409 37.8111 11.575C38.8878 12.1367 40.5263 11.3409 47.1738 6.89363C49.8422 5.11472 52.1828 3.66351 52.4169 3.66351C52.6041 3.66351 55.1789 5.25516 58.0813 7.22132C68.3802 14.1029 81.7221 19.8141 94.034 22.5761C96.9364 23.1847 99.4643 23.8401 99.558 23.9805C100.728 25.1508 101.43 40.2247 100.681 47.6681C99.9325 54.8305 98.1536 62.6952 95.8597 68.9213C93.8467 74.3049 93.8467 75.3816 95.8597 75.6625C96.9832 75.8497 97.9195 74.2581 99.8856 68.7341C104.052 57.1712 105.691 42.6122 104.333 29.13C103.771 23.7464 103.163 21.8739 101.43 20.7972C100.869 20.4227 97.9195 19.5801 94.9234 18.8779C82.7988 16.2095 70.1123 10.7323 59.907 3.89757C54.6639 0.38657 52.3701 -0.502884 50.5444 0.24613Z" fill="#D4AE41"/>
<path d="M50.5444 0.24613C50.1698 0.38657 48.2505 1.65053 46.3312 2.96131C44.4118 4.27208 41.5094 6.19143 39.9177 7.1277C37.6239 8.48528 36.9685 9.14067 36.9685 9.98331C36.9685 10.6387 37.343 11.3409 37.8111 11.575C38.8878 12.1367 40.5263 11.3409 47.1738 6.89363C49.8422 5.11472 52.1828 3.66351 52.4169 3.66351C52.6041 3.66351 55.1789 5.25516 58.0813 7.22132C68.3802 14.1029 81.7221 19.8141 94.034 22.5761C96.9364 23.1847 99.4643 23.8401 99.558 23.9805C100.728 25.1508 101.43 40.2247 100.681 47.6681C99.9325 54.8305 98.1536 62.6952 95.8597 68.9213C93.8467 74.3049 93.8467 75.3816 95.8597 75.6625C96.9832 75.8497 97.9195 74.2581 99.8856 68.7341C104.052 57.1712 105.691 42.6122 104.333 29.13C103.771 23.7464 103.163 21.8739 101.43 20.7972C100.869 20.4227 97.9195 19.5801 94.9234 18.8779C82.7988 16.2095 70.1123 10.7323 59.907 3.89757C54.6639 0.38657 52.3701 -0.502884 50.5444 0.24613Z" fill="url(#paint1_linear_9_1936)"/>
<path d="M26.81 4.22527C26.5291 4.55296 25.9673 6.51913 25.4992 8.57891C23.8607 16.2095 22.2223 17.848 14.3576 19.7673C7.47606 21.4526 7.47606 23.3719 14.3108 24.9636C22.1286 26.7893 23.6267 28.3342 25.4992 36.152C27.0909 42.9867 29.0102 42.9867 30.6955 36.1052C32.6148 28.2405 33.9256 26.9298 41.7903 25.0104C48.6718 23.3251 48.6718 21.4526 41.7903 19.7673C39.4496 19.2056 37.0621 18.4565 36.4535 18.1757C33.317 16.584 31.6318 13.5879 30.4146 7.64265C29.7592 4.50615 29.2911 3.66351 28.0739 3.66351C27.6058 3.66351 27.044 3.94439 26.81 4.22527ZM29.7124 16.9117C30.7423 18.6906 31.7722 19.7205 33.5511 20.7504C34.9087 21.4994 35.9854 22.2484 35.9854 22.3889C35.9854 22.5293 34.9087 23.2315 33.5511 24.0273C31.7722 25.0572 30.7423 26.0871 29.7124 27.866C28.9634 29.2236 28.2144 30.3003 28.0739 30.3003C27.9335 30.3003 27.2313 29.2236 26.4355 27.866C25.4056 26.0871 24.3757 25.0572 22.5968 24.0273C21.2392 23.2315 20.1625 22.5293 20.1625 22.3889C20.1625 22.2484 21.2392 21.4994 22.5968 20.7504C24.3757 19.7205 25.4056 18.6906 26.4355 16.9117C27.2313 15.5541 27.9335 14.4774 28.0739 14.4774C28.2144 14.4774 28.9634 15.5541 29.7124 16.9117Z" fill="#D4AE41"/>
<path d="M26.81 4.22527C26.5291 4.55296 25.9673 6.51913 25.4992 8.57891C23.8607 16.2095 22.2223 17.848 14.3576 19.7673C7.47606 21.4526 7.47606 23.3719 14.3108 24.9636C22.1286 26.7893 23.6267 28.3342 25.4992 36.152C27.0909 42.9867 29.0102 42.9867 30.6955 36.1052C32.6148 28.2405 33.9256 26.9298 41.7903 25.0104C48.6718 23.3251 48.6718 21.4526 41.7903 19.7673C39.4496 19.2056 37.0621 18.4565 36.4535 18.1757C33.317 16.584 31.6318 13.5879 30.4146 7.64265C29.7592 4.50615 29.2911 3.66351 28.0739 3.66351C27.6058 3.66351 27.044 3.94439 26.81 4.22527ZM29.7124 16.9117C30.7423 18.6906 31.7722 19.7205 33.5511 20.7504C34.9087 21.4994 35.9854 22.2484 35.9854 22.3889C35.9854 22.5293 34.9087 23.2315 33.5511 24.0273C31.7722 25.0572 30.7423 26.0871 29.7124 27.866C28.9634 29.2236 28.2144 30.3003 28.0739 30.3003C27.9335 30.3003 27.2313 29.2236 26.4355 27.866C25.4056 26.0871 24.3757 25.0572 22.5968 24.0273C21.2392 23.2315 20.1625 22.5293 20.1625 22.3889C20.1625 22.2484 21.2392 21.4994 22.5968 20.7504C24.3757 19.7205 25.4056 18.6906 26.4355 16.9117C27.2313 15.5541 27.9335 14.4774 28.0739 14.4774C28.2144 14.4774 28.9634 15.5541 29.7124 16.9117Z" fill="url(#paint2_linear_9_1936)"/>
<path d="M50.2166 13.7284C49.6081 14.1497 49.1399 14.7583 49.1399 15.1328C49.1399 16.2563 50.5443 17.2394 51.6679 16.9585C52.4169 16.7712 53.6808 17.2862 55.8811 18.597C60.3751 21.359 70.0187 26.1339 71.0954 26.1339C72.1721 26.1339 73.1552 24.6827 72.7807 23.6996C72.6403 23.3251 70.3464 21.9675 67.7249 20.7036C65.1501 19.4396 61.0774 17.2862 58.7367 15.8818C54.0553 13.1198 51.8083 12.558 50.2166 13.7284Z" fill="#D4AE41"/>
<path d="M50.2166 13.7284C49.6081 14.1497 49.1399 14.7583 49.1399 15.1328C49.1399 16.2563 50.5443 17.2394 51.6679 16.9585C52.4169 16.7712 53.6808 17.2862 55.8811 18.597C60.3751 21.359 70.0187 26.1339 71.0954 26.1339C72.1721 26.1339 73.1552 24.6827 72.7807 23.6996C72.6403 23.3251 70.3464 21.9675 67.7249 20.7036C65.1501 19.4396 61.0774 17.2862 58.7367 15.8818C54.0553 13.1198 51.8083 12.558 50.2166 13.7284Z" fill="url(#paint3_linear_9_1936)"/>
<path d="M1.43712 24.9168C1.10942 25.2913 0.688101 27.4447 0.454034 29.7386C-1.4185 47.4808 2.60745 67.8446 10.5657 80.9524C11.8297 83.1058 12.4851 83.7144 13.3277 83.7144C15.2471 83.7144 15.5748 82.2632 14.2172 79.9225C8.50593 69.6236 5.46307 60.0268 4.15229 47.9021C3.63734 42.9867 3.8246 29.0364 4.47998 26.7893C4.62043 26.1807 4.43317 25.5254 3.96504 25.0104C3.02877 24.0741 2.13932 24.0273 1.43712 24.9168Z" fill="#D4AE41"/>
<path d="M1.43712 24.9168C1.10942 25.2913 0.688101 27.4447 0.454034 29.7386C-1.4185 47.4808 2.60745 67.8446 10.5657 80.9524C11.8297 83.1058 12.4851 83.7144 13.3277 83.7144C15.2471 83.7144 15.5748 82.2632 14.2172 79.9225C8.50593 69.6236 5.46307 60.0268 4.15229 47.9021C3.63734 42.9867 3.8246 29.0364 4.47998 26.7893C4.62043 26.1807 4.43317 25.5254 3.96504 25.0104C3.02877 24.0741 2.13932 24.0273 1.43712 24.9168Z" fill="url(#paint4_linear_9_1936)"/>
<path d="M77.8365 26.1807C77.5088 26.5084 77.228 27.1638 77.228 27.5851C77.228 28.615 78.0238 29.1768 80.3645 29.879C82.5647 30.5344 83.7818 30.0194 83.7818 28.4278C83.7818 26.6957 79.0537 24.9168 77.8365 26.1807Z" fill="#D4AE41"/>
<path d="M77.8365 26.1807C77.5088 26.5084 77.228 27.1638 77.228 27.5851C77.228 28.615 78.0238 29.1768 80.3645 29.879C82.5647 30.5344 83.7818 30.0194 83.7818 28.4278C83.7818 26.6957 79.0537 24.9168 77.8365 26.1807Z" fill="url(#paint5_linear_9_1936)"/>
<path d="M89.0249 29.9726C88.2759 30.7216 88.3227 31.5643 89.2122 32.9687C89.9144 33.9518 89.9612 35.0753 89.7271 40.7865C89.4462 48.1362 88.6504 53.0048 86.7779 59.6523C85.748 63.2101 85.6544 64.1932 86.1225 64.755C86.8247 65.5976 88.1823 65.6912 88.8377 64.8486C89.5867 63.9591 91.1315 58.4352 92.2082 52.958C92.8636 49.7279 93.2849 45.187 93.4722 40.412C93.7063 33.0623 93.7063 32.8751 92.5827 31.2834C91.4124 29.5513 90.008 28.9895 89.0249 29.9726Z" fill="#D4AE41"/>
<path d="M89.0249 29.9726C88.2759 30.7216 88.3227 31.5643 89.2122 32.9687C89.9144 33.9518 89.9612 35.0753 89.7271 40.7865C89.4462 48.1362 88.6504 53.0048 86.7779 59.6523C85.748 63.2101 85.6544 64.1932 86.1225 64.755C86.8247 65.5976 88.1823 65.6912 88.8377 64.8486C89.5867 63.9591 91.1315 58.4352 92.2082 52.958C92.8636 49.7279 93.2849 45.187 93.4722 40.412C93.7063 33.0623 93.7063 32.8751 92.5827 31.2834C91.4124 29.5513 90.008 28.9895 89.0249 29.9726Z" fill="url(#paint6_linear_9_1936)"/>
<path d="M11.7829 31.9856C10.9871 33.6709 11.0807 41.91 11.9233 48.2766C14.0299 64.3336 19.788 76.5519 29.806 86.1019C35.6109 91.6258 44.1777 96.8689 50.4507 98.7415C52.7446 99.3969 55.1789 98.8351 59.907 96.4476C61.9668 95.4645 62.4818 94.9496 62.4818 94.0601C62.4818 91.9067 61.2646 91.8599 56.8642 93.7324C52.2296 95.6986 52.136 95.6986 46.8461 93.2643C35.33 87.9744 25.4992 77.9095 20.5838 66.4871C16.9324 57.967 15.3875 50.3833 15.2003 39.6162C15.1066 35.3093 14.9194 31.5643 14.7321 31.2834C14.1704 30.3471 12.3446 30.7684 11.7829 31.9856Z" fill="#D4AE41"/>
<path d="M11.7829 31.9856C10.9871 33.6709 11.0807 41.91 11.9233 48.2766C14.0299 64.3336 19.788 76.5519 29.806 86.1019C35.6109 91.6258 44.1777 96.8689 50.4507 98.7415C52.7446 99.3969 55.1789 98.8351 59.907 96.4476C61.9668 95.4645 62.4818 94.9496 62.4818 94.0601C62.4818 91.9067 61.2646 91.8599 56.8642 93.7324C52.2296 95.6986 52.136 95.6986 46.8461 93.2643C35.33 87.9744 25.4992 77.9095 20.5838 66.4871C16.9324 57.967 15.3875 50.3833 15.2003 39.6162C15.1066 35.3093 14.9194 31.5643 14.7321 31.2834C14.1704 30.3471 12.3446 30.7684 11.7829 31.9856Z" fill="url(#paint7_linear_9_1936)"/>
<path d="M84.8117 71.6365C84.5777 71.9642 84.1095 73.5091 83.7818 75.0539C82.5647 80.9992 80.8794 83.9953 77.7429 85.5869C77.1343 85.8678 74.7468 86.6168 72.4062 87.1786C65.5246 88.8638 65.5246 90.7364 72.4062 92.4217C80.2708 94.341 81.5816 95.6518 83.501 103.516C85.1862 110.398 87.1056 110.398 88.6972 103.563C90.5698 95.7454 91.9274 94.341 99.8388 92.4217C106.72 90.7364 106.72 88.8638 99.8388 87.1786C91.9742 85.2592 90.3357 83.6207 88.6972 75.9902C87.8078 71.9174 87.3865 71.0748 86.1225 71.0748C85.6544 71.0748 85.0926 71.3556 84.8117 71.6365ZM87.761 84.3229C88.7909 86.1019 89.8208 87.1318 91.5997 88.1616C92.9573 88.9107 94.034 89.6597 94.034 89.8001C94.034 89.9406 92.9573 90.6428 91.5997 91.4386C89.8208 92.4685 88.7909 93.4984 87.761 95.2773C87.012 96.6349 86.2629 97.7116 86.1225 97.7116C85.9821 97.7116 85.2799 96.6349 84.484 95.2773C83.4541 93.4984 82.4242 92.4685 80.6453 91.4386C79.2878 90.6428 78.211 89.9406 78.211 89.8001C78.211 89.6597 79.2878 88.9107 80.6453 88.1616C82.4242 87.1318 83.4541 86.1019 84.484 84.3229C85.2799 82.9654 85.9821 81.8886 86.1225 81.8886C86.2629 81.8886 87.012 82.9654 87.761 84.3229Z" fill="#D4AE41"/>
<path d="M84.8117 71.6365C84.5777 71.9642 84.1095 73.5091 83.7818 75.0539C82.5647 80.9992 80.8794 83.9953 77.7429 85.5869C77.1343 85.8678 74.7468 86.6168 72.4062 87.1786C65.5246 88.8638 65.5246 90.7364 72.4062 92.4217C80.2708 94.341 81.5816 95.6518 83.501 103.516C85.1862 110.398 87.1056 110.398 88.6972 103.563C90.5698 95.7454 91.9274 94.341 99.8388 92.4217C106.72 90.7364 106.72 88.8638 99.8388 87.1786C91.9742 85.2592 90.3357 83.6207 88.6972 75.9902C87.8078 71.9174 87.3865 71.0748 86.1225 71.0748C85.6544 71.0748 85.0926 71.3556 84.8117 71.6365ZM87.761 84.3229C88.7909 86.1019 89.8208 87.1318 91.5997 88.1616C92.9573 88.9107 94.034 89.6597 94.034 89.8001C94.034 89.9406 92.9573 90.6428 91.5997 91.4386C89.8208 92.4685 88.7909 93.4984 87.761 95.2773C87.012 96.6349 86.2629 97.7116 86.1225 97.7116C85.9821 97.7116 85.2799 96.6349 84.484 95.2773C83.4541 93.4984 82.4242 92.4685 80.6453 91.4386C79.2878 90.6428 78.211 89.9406 78.211 89.8001C78.211 89.6597 79.2878 88.9107 80.6453 88.1616C82.4242 87.1318 83.4541 86.1019 84.484 84.3229C85.2799 82.9654 85.9821 81.8886 86.1225 81.8886C86.2629 81.8886 87.012 82.9654 87.761 84.3229Z" fill="url(#paint8_linear_9_1936)"/>
<path d="M16.9323 87.0849C15.9492 88.068 16.3238 89.566 17.9622 91.1577C19.3198 92.4685 19.6943 92.6089 20.537 92.1876C21.9414 91.4386 21.7541 89.8001 20.0688 88.0212C18.5708 86.4295 17.8218 86.1955 16.9323 87.0849Z" fill="#D4AE41"/>
<path d="M16.9323 87.0849C15.9492 88.068 16.3238 89.566 17.9622 91.1577C19.3198 92.4685 19.6943 92.6089 20.537 92.1876C21.9414 91.4386 21.7541 89.8001 20.0688 88.0212C18.5708 86.4295 17.8218 86.1955 16.9323 87.0849Z" fill="url(#paint9_linear_9_1936)"/>
<path d="M24.4225 94.7623C22.9245 95.7922 23.1585 96.5413 25.6396 98.6947C33.1298 105.295 48.7654 112.832 53.4936 112.083C59.2516 111.147 74.8873 103.282 75.6363 100.895C75.964 99.9118 75.0746 98.6947 74.0447 98.6947C73.6702 98.6947 72.0785 99.4905 70.4869 100.52C66.18 103.236 61.5455 105.436 56.7237 107.121L52.4169 108.666L48.1101 107.121C42.1648 105.061 35.5173 101.503 30.4146 97.7116C28.0739 95.9327 25.9673 94.3878 25.7801 94.2942C25.5928 94.1538 24.9843 94.3878 24.4225 94.7623Z" fill="#D4AE41"/>
<path d="M24.4225 94.7623C22.9245 95.7922 23.1585 96.5413 25.6396 98.6947C33.1298 105.295 48.7654 112.832 53.4936 112.083C59.2516 111.147 74.8873 103.282 75.6363 100.895C75.964 99.9118 75.0746 98.6947 74.0447 98.6947C73.6702 98.6947 72.0785 99.4905 70.4869 100.52C66.18 103.236 61.5455 105.436 56.7237 107.121L52.4169 108.666L48.1101 107.121C42.1648 105.061 35.5173 101.503 30.4146 97.7116C28.0739 95.9327 25.9673 94.3878 25.7801 94.2942C25.5928 94.1538 24.9843 94.3878 24.4225 94.7623Z" fill="url(#paint10_linear_9_1936)"/>
<defs>
<linearGradient id="paint0_linear_9_1936" x1="52.5" y1="0" x2="52.5" y2="112.135" gradientUnits="userSpaceOnUse">
<stop stop-color="#F1D27A"/>
<stop offset="0.239583" stop-color="#EECA64"/>
<stop offset="0.59375" stop-color="#FCE194"/>
<stop offset="0.947917" stop-color="#E4BE51"/>
</linearGradient>
<linearGradient id="paint1_linear_9_1936" x1="52.5" y1="0" x2="52.5" y2="112.135" gradientUnits="userSpaceOnUse">
<stop stop-color="#F1D27A"/>
<stop offset="0.239583" stop-color="#EECA64"/>
<stop offset="0.59375" stop-color="#FCE194"/>
<stop offset="0.947917" stop-color="#E4BE51"/>
</linearGradient>
<linearGradient id="paint2_linear_9_1936" x1="52.5" y1="0" x2="52.5" y2="112.135" gradientUnits="userSpaceOnUse">
<stop stop-color="#F1D27A"/>
<stop offset="0.239583" stop-color="#EECA64"/>
<stop offset="0.59375" stop-color="#FCE194"/>
<stop offset="0.947917" stop-color="#E4BE51"/>
</linearGradient>
<linearGradient id="paint3_linear_9_1936" x1="52.5" y1="0" x2="52.5" y2="112.135" gradientUnits="userSpaceOnUse">
<stop stop-color="#F1D27A"/>
<stop offset="0.239583" stop-color="#EECA64"/>
<stop offset="0.59375" stop-color="#FCE194"/>
<stop offset="0.947917" stop-color="#E4BE51"/>
</linearGradient>
<linearGradient id="paint4_linear_9_1936" x1="52.5" y1="0" x2="52.5" y2="112.135" gradientUnits="userSpaceOnUse">
<stop stop-color="#F1D27A"/>
<stop offset="0.239583" stop-color="#EECA64"/>
<stop offset="0.59375" stop-color="#FCE194"/>
<stop offset="0.947917" stop-color="#E4BE51"/>
</linearGradient>
<linearGradient id="paint5_linear_9_1936" x1="52.5" y1="0" x2="52.5" y2="112.135" gradientUnits="userSpaceOnUse">
<stop stop-color="#F1D27A"/>
<stop offset="0.239583" stop-color="#EECA64"/>
<stop offset="0.59375" stop-color="#FCE194"/>
<stop offset="0.947917" stop-color="#E4BE51"/>
</linearGradient>
<linearGradient id="paint6_linear_9_1936" x1="52.5" y1="0" x2="52.5" y2="112.135" gradientUnits="userSpaceOnUse">
<stop stop-color="#F1D27A"/>
<stop offset="0.239583" stop-color="#EECA64"/>
<stop offset="0.59375" stop-color="#FCE194"/>
<stop offset="0.947917" stop-color="#E4BE51"/>
</linearGradient>
<linearGradient id="paint7_linear_9_1936" x1="52.5" y1="0" x2="52.5" y2="112.135" gradientUnits="userSpaceOnUse">
<stop stop-color="#F1D27A"/>
<stop offset="0.239583" stop-color="#EECA64"/>
<stop offset="0.59375" stop-color="#FCE194"/>
<stop offset="0.947917" stop-color="#E4BE51"/>
</linearGradient>
<linearGradient id="paint8_linear_9_1936" x1="52.5" y1="0" x2="52.5" y2="112.135" gradientUnits="userSpaceOnUse">
<stop stop-color="#F1D27A"/>
<stop offset="0.239583" stop-color="#EECA64"/>
<stop offset="0.59375" stop-color="#FCE194"/>
<stop offset="0.947917" stop-color="#E4BE51"/>
</linearGradient>
<linearGradient id="paint9_linear_9_1936" x1="52.5" y1="0" x2="52.5" y2="112.135" gradientUnits="userSpaceOnUse">
<stop stop-color="#F1D27A"/>
<stop offset="0.239583" stop-color="#EECA64"/>
<stop offset="0.59375" stop-color="#FCE194"/>
<stop offset="0.947917" stop-color="#E4BE51"/>
</linearGradient>
<linearGradient id="paint10_linear_9_1936" x1="52.5" y1="0" x2="52.5" y2="112.135" gradientUnits="userSpaceOnUse">
<stop stop-color="#F1D27A"/>
<stop offset="0.239583" stop-color="#EECA64"/>
<stop offset="0.59375" stop-color="#FCE194"/>
<stop offset="0.947917" stop-color="#E4BE51"/>
</linearGradient>
</defs>
</svg>
