<svg width="105" height="99" viewBox="0 0 105 99" fill="none" xmlns="http://www.w3.org/2000/svg">
<path d="M0 2.78906V20.5898C0 33.8789 0.123047 38.5136 0.492187 38.8828C0.820312 39.2109 3.07617 39.375 7.95703 39.375H14.9707V42.4101C14.9707 45.1992 15.0937 45.6093 16.2422 47.0449C19.5644 51.2285 25.2656 51.4746 28.875 47.6601C30.3515 46.1015 31.2129 42.9023 30.7617 40.8515L30.4336 39.375H37.4883C42.4101 39.375 44.707 39.2109 45.0351 38.8828C45.3633 38.5547 45.5273 36.6679 45.5273 33.0176V27.6445L47.209 27.8086C51.5156 28.2187 56.1914 23.9941 56.1914 19.6875C56.1914 15.3808 51.5156 11.1562 47.209 11.5664L45.5273 11.7305V6.35742C45.5273 2.70703 45.3633 0.820312 45.0351 0.492187C44.666 0.123047 39.375 0 23.666 0H2.78906L0 2.78906ZM42.8613 15.3808L44.0918 15.2988C44.789 15.2168 46.2656 15.0527 47.414 14.9297C49.0547 14.7656 49.7929 14.8476 50.6133 15.4219C52.7871 16.8164 53.5254 19.7695 52.3359 22.1074C51.1054 24.4453 48.4394 25.2656 45.4863 24.1992C42.7793 23.2148 42.6972 23.4199 42.5742 30.2285L42.4511 36.2988L34.4531 36.5039C25.5117 36.75 25.3476 36.791 27.0293 39.539C28.998 42.6972 27.3984 46.3886 23.666 47.332C21.9023 47.7422 19.1543 46.3886 18.334 44.584C17.4316 42.6972 17.4726 41.6718 18.498 39.539C20.0156 36.5449 19.9746 36.5039 11.0742 36.5039H3.28125V3.28125H42.6152L42.8613 15.3808Z" fill="#D4AE41"/>
<path d="M0 2.78906V20.5898C0 33.8789 0.123047 38.5136 0.492187 38.8828C0.820312 39.2109 3.07617 39.375 7.95703 39.375H14.9707V42.4101C14.9707 45.1992 15.0937 45.6093 16.2422 47.0449C19.5644 51.2285 25.2656 51.4746 28.875 47.6601C30.3515 46.1015 31.2129 42.9023 30.7617 40.8515L30.4336 39.375H37.4883C42.4101 39.375 44.707 39.2109 45.0351 38.8828C45.3633 38.5547 45.5273 36.6679 45.5273 33.0176V27.6445L47.209 27.8086C51.5156 28.2187 56.1914 23.9941 56.1914 19.6875C56.1914 15.3808 51.5156 11.1562 47.209 11.5664L45.5273 11.7305V6.35742C45.5273 2.70703 45.3633 0.820312 45.0351 0.492187C44.666 0.123047 39.375 0 23.666 0H2.78906L0 2.78906ZM42.8613 15.3808L44.0918 15.2988C44.789 15.2168 46.2656 15.0527 47.414 14.9297C49.0547 14.7656 49.7929 14.8476 50.6133 15.4219C52.7871 16.8164 53.5254 19.7695 52.3359 22.1074C51.1054 24.4453 48.4394 25.2656 45.4863 24.1992C42.7793 23.2148 42.6972 23.4199 42.5742 30.2285L42.4511 36.2988L34.4531 36.5039C25.5117 36.75 25.3476 36.791 27.0293 39.539C28.998 42.6972 27.3984 46.3886 23.666 47.332C21.9023 47.7422 19.1543 46.3886 18.334 44.584C17.4316 42.6972 17.4726 41.6718 18.498 39.539C20.0156 36.5449 19.9746 36.5039 11.0742 36.5039H3.28125V3.28125H42.6152L42.8613 15.3808Z" fill="url(#paint0_linear_9_1933)"/>
<path d="M59.6367 23.5019C59.5547 23.789 59.5136 26.7832 59.5546 30.1054C59.7187 37.3242 59.8418 37.6113 62.9179 36.1347C65.2968 34.9453 67.1425 35.2324 68.8652 36.914C71.9414 39.9902 70.2187 44.9121 65.8711 45.4043C64.4355 45.5683 63.6972 45.4453 62.5898 44.748C61.4414 44.0097 60.9902 43.9277 60.2929 44.2968C59.5136 44.707 59.4726 45.1171 59.4726 51.8847V59.0625H51.1054C41.6719 59.0625 41.2617 59.1855 42.164 61.6875C42.8613 63.5332 42.7793 66.0761 42 67.1835C40.0722 69.9316 35.3965 69.9316 33.4687 67.1835C32.6894 66.0761 32.6074 63.5332 33.3047 61.6875C34.207 59.2265 33.7558 59.0625 25.1836 59.0625C18.1699 59.0625 17.6367 59.1035 17.2266 59.8417C16.9805 60.3339 16.8164 63.7382 16.8164 68.0449C16.8164 74.1972 16.9394 75.5097 17.4726 76.0429C17.8008 76.412 18.334 76.6992 18.6211 76.6992C19.8926 76.6992 20.0976 75.7148 20.0976 68.8242V61.9335H29.5312V63.9023C29.5312 68.9882 34.248 73.2539 38.9238 72.3925C42.9843 71.6542 45.9375 68.0859 45.9375 63.9023V61.9335L52.623 62.0156L59.2675 62.1386L59.6777 74.8535L60.9082 74.7714C61.6054 74.7304 62.9589 74.6074 63.9843 74.4433C66.4043 74.0742 68.455 75.3456 69.2753 77.8066C69.8085 79.2421 69.8085 79.6933 69.2753 81.0468C68.9062 81.9902 68.0859 83.0566 67.2656 83.5898C66.0761 84.4101 65.5429 84.5331 63.9843 84.2871C62.9589 84.123 61.6054 83.9999 60.9082 83.9589L59.6777 83.8769L59.4316 95.1562L39.8672 95.0742L20.3027 94.9511L20.0566 87.5683C19.9336 83.5078 19.8105 80.1445 19.7695 80.0624C19.4004 79.6113 17.5957 80.1445 17.2266 80.7597C16.9805 81.2109 16.8164 84.3691 16.8164 88.0605C16.8164 95.1972 17.2676 96.8788 19.2773 97.9042C20.0566 98.3144 29.3262 98.4374 61.2363 98.4374H102.211L105 95.6484V60.9492C105 23.666 105.041 24.4863 102.99 23.3789C102.457 23.1328 97.0839 22.9687 88.3886 22.9687C76.0429 22.9687 74.6074 23.0508 74.3613 23.625C74.2382 23.9941 74.2793 24.6094 74.5253 24.9785C74.8945 25.5527 76.5761 25.6758 88.2246 25.8398L101.514 26.0449L101.637 42.5332L101.719 59.0625H90.0292V55.8222C90.0292 52.8281 89.9472 52.4589 88.7578 50.9824C85.4355 46.7988 79.7343 46.5117 76.125 50.3671C75.0175 51.5566 73.705 55.248 74.0332 56.3144C74.1152 56.6015 74.2793 57.2988 74.4023 57.914L74.6484 59.0625H62.3437V48.5625H64.9277C69.7675 48.5625 73.0078 45.6914 73.3359 41.0566C73.705 36.0527 69.9316 32.2383 64.8867 32.4433L62.5488 32.5664L62.3027 25.8808L66.2812 25.7578C70.4238 25.6347 71.4082 25.1836 70.8339 23.625C70.6289 23.0508 69.8085 22.9687 65.2148 22.9687C61.1953 22.9687 59.8007 23.0918 59.6367 23.5019ZM84.8613 51.4746C87.3632 52.7461 87.9785 56.4785 86.1328 59.0625C85.6406 59.7597 85.3124 60.621 85.3945 61.0312C85.5175 61.6464 86.2968 61.7285 93.6386 61.8515L101.719 61.9335V95.1562H62.3437V87.3632H64.3535C67.8398 87.3632 70.1777 85.9277 71.8183 82.7695C73.3359 79.7753 72.5566 75.8788 69.8496 73.3359C68.332 71.9003 66.8554 71.3671 64.3535 71.3671H62.3027L62.5488 62.1386L70.7519 61.9335C79.9804 61.6875 80.0624 61.6464 78.1757 58.8574C75.6738 55.207 77.8476 50.9414 82.1542 50.8593C83.0156 50.8593 84.246 51.1464 84.8613 51.4746Z" fill="#D4AE41"/>
<path d="M59.6367 23.5019C59.5547 23.789 59.5136 26.7832 59.5546 30.1054C59.7187 37.3242 59.8418 37.6113 62.9179 36.1347C65.2968 34.9453 67.1425 35.2324 68.8652 36.914C71.9414 39.9902 70.2187 44.9121 65.8711 45.4043C64.4355 45.5683 63.6972 45.4453 62.5898 44.748C61.4414 44.0097 60.9902 43.9277 60.2929 44.2968C59.5136 44.707 59.4726 45.1171 59.4726 51.8847V59.0625H51.1054C41.6719 59.0625 41.2617 59.1855 42.164 61.6875C42.8613 63.5332 42.7793 66.0761 42 67.1835C40.0722 69.9316 35.3965 69.9316 33.4687 67.1835C32.6894 66.0761 32.6074 63.5332 33.3047 61.6875C34.207 59.2265 33.7558 59.0625 25.1836 59.0625C18.1699 59.0625 17.6367 59.1035 17.2266 59.8417C16.9805 60.3339 16.8164 63.7382 16.8164 68.0449C16.8164 74.1972 16.9394 75.5097 17.4726 76.0429C17.8008 76.412 18.334 76.6992 18.6211 76.6992C19.8926 76.6992 20.0976 75.7148 20.0976 68.8242V61.9335H29.5312V63.9023C29.5312 68.9882 34.248 73.2539 38.9238 72.3925C42.9843 71.6542 45.9375 68.0859 45.9375 63.9023V61.9335L52.623 62.0156L59.2675 62.1386L59.6777 74.8535L60.9082 74.7714C61.6054 74.7304 62.9589 74.6074 63.9843 74.4433C66.4043 74.0742 68.455 75.3456 69.2753 77.8066C69.8085 79.2421 69.8085 79.6933 69.2753 81.0468C68.9062 81.9902 68.0859 83.0566 67.2656 83.5898C66.0761 84.4101 65.5429 84.5331 63.9843 84.2871C62.9589 84.123 61.6054 83.9999 60.9082 83.9589L59.6777 83.8769L59.4316 95.1562L39.8672 95.0742L20.3027 94.9511L20.0566 87.5683C19.9336 83.5078 19.8105 80.1445 19.7695 80.0624C19.4004 79.6113 17.5957 80.1445 17.2266 80.7597C16.9805 81.2109 16.8164 84.3691 16.8164 88.0605C16.8164 95.1972 17.2676 96.8788 19.2773 97.9042C20.0566 98.3144 29.3262 98.4374 61.2363 98.4374H102.211L105 95.6484V60.9492C105 23.666 105.041 24.4863 102.99 23.3789C102.457 23.1328 97.0839 22.9687 88.3886 22.9687C76.0429 22.9687 74.6074 23.0508 74.3613 23.625C74.2382 23.9941 74.2793 24.6094 74.5253 24.9785C74.8945 25.5527 76.5761 25.6758 88.2246 25.8398L101.514 26.0449L101.637 42.5332L101.719 59.0625H90.0292V55.8222C90.0292 52.8281 89.9472 52.4589 88.7578 50.9824C85.4355 46.7988 79.7343 46.5117 76.125 50.3671C75.0175 51.5566 73.705 55.248 74.0332 56.3144C74.1152 56.6015 74.2793 57.2988 74.4023 57.914L74.6484 59.0625H62.3437V48.5625H64.9277C69.7675 48.5625 73.0078 45.6914 73.3359 41.0566C73.705 36.0527 69.9316 32.2383 64.8867 32.4433L62.5488 32.5664L62.3027 25.8808L66.2812 25.7578C70.4238 25.6347 71.4082 25.1836 70.8339 23.625C70.6289 23.0508 69.8085 22.9687 65.2148 22.9687C61.1953 22.9687 59.8007 23.0918 59.6367 23.5019ZM84.8613 51.4746C87.3632 52.7461 87.9785 56.4785 86.1328 59.0625C85.6406 59.7597 85.3124 60.621 85.3945 61.0312C85.5175 61.6464 86.2968 61.7285 93.6386 61.8515L101.719 61.9335V95.1562H62.3437V87.3632H64.3535C67.8398 87.3632 70.1777 85.9277 71.8183 82.7695C73.3359 79.7753 72.5566 75.8788 69.8496 73.3359C68.332 71.9003 66.8554 71.3671 64.3535 71.3671H62.3027L62.5488 62.1386L70.7519 61.9335C79.9804 61.6875 80.0624 61.6464 78.1757 58.8574C75.6738 55.207 77.8476 50.9414 82.1542 50.8593C83.0156 50.8593 84.246 51.1464 84.8613 51.4746Z" fill="url(#paint1_linear_9_1933)"/>
<defs>
<linearGradient id="paint0_linear_9_1933" x1="52.5" y1="0" x2="52.5" y2="98.4374" gradientUnits="userSpaceOnUse">
<stop stop-color="#F1D27A"/>
<stop offset="0.239583" stop-color="#EECA64"/>
<stop offset="0.59375" stop-color="#FCE194"/>
<stop offset="0.947917" stop-color="#E4BE51"/>
</linearGradient>
<linearGradient id="paint1_linear_9_1933" x1="52.5" y1="0" x2="52.5" y2="98.4374" gradientUnits="userSpaceOnUse">
<stop stop-color="#F1D27A"/>
<stop offset="0.239583" stop-color="#EECA64"/>
<stop offset="0.59375" stop-color="#FCE194"/>
<stop offset="0.947917" stop-color="#E4BE51"/>
</linearGradient>
</defs>
</svg>
