<svg width="105" height="101" viewBox="0 0 105 101" fill="none" xmlns="http://www.w3.org/2000/svg">
<path d="M53.6069 0.565992C48.2643 2.94959 47.8534 10.3058 52.9082 13.0593L54.6754 14.0456L54.4288 18.9772L50.8534 20.1279C44.2369 22.2238 38.771 25.717 33.5518 31.1828L30.7161 34.1007H23.0311C16.0858 34.1007 15.2228 34.1829 14.6474 34.8404C13.7844 35.7856 13.7433 36.7309 14.6063 37.5528C15.1406 38.087 16.3735 38.2103 21.5516 38.2103H27.8805L26.2366 41.6624C25.3736 43.5529 24.6339 45.32 24.6339 45.5666C24.6339 45.8954 21.264 46.0187 13.168 46.0187C2.52397 46.0187 1.66095 46.0598 0.756828 46.7995C-0.065101 47.457 -0.147294 47.7447 0.181478 48.731L0.592442 49.9228L11.8118 50.0461C20.3598 50.1283 22.99 50.2516 22.99 50.6626C22.99 50.9091 22.7845 52.6763 22.4968 54.5256L22.0448 57.9366H17.6886C12.5515 57.9366 11.2775 58.3887 11.2775 60.1969C11.2775 62.0052 12.5515 62.4572 17.7297 62.4572C22.6612 62.4572 22.2503 62.1696 22.7434 65.9504C22.8667 66.8546 23.0722 68.2107 23.2366 68.9094L23.4832 70.2656L16.168 70.3477L8.81173 70.471L8.40077 71.6628C8.07199 72.6492 8.15419 72.9368 8.97612 73.5944C9.83914 74.293 10.6611 74.3752 17.442 74.3752H24.9626L25.8257 76.5533C28.949 84.2794 36.8395 92.4576 45.0177 96.5262C56.8535 102.403 70.2509 102.444 82.0867 96.6906C83.7306 95.8686 85.5388 94.8412 86.0731 94.4303C87.3881 93.4029 87.3881 91.8412 86.1553 91.0193C85.2511 90.4439 84.9224 90.5261 80.8127 92.622C74.8537 95.6632 70.4153 96.7317 63.6755 96.6906C56.648 96.6906 51.5109 95.4166 45.6342 92.2111C34.2915 86.0055 27.1818 74.5807 26.401 61.4298C25.4969 45.2378 35.6477 29.9499 51.0589 24.443C64.4974 19.6347 79.2099 22.7581 89.4841 32.6212C92.8129 35.7856 95.2376 39.1966 97.3746 43.594C100.046 49.2242 100.786 52.6352 100.786 59.5805C100.786 66.8135 100.046 70.0601 96.9636 76.3067C95.854 78.6081 94.9088 80.8274 94.9088 81.2383C94.9088 83.2109 97.2513 83.6219 98.6075 81.8959C100.169 79.8821 102.758 73.9642 103.868 69.8957C105.306 64.3888 105.388 55.4297 104.032 50.005C100.457 35.7034 90.1005 24.4841 76.4976 20.1279L72.9222 18.9772L72.6756 14.0456L74.5249 12.9771C77.4017 11.2922 78.7579 7.67568 77.6072 4.63454C76.9907 2.90849 74.8126 0.853668 73.1277 0.401607C70.8674 -0.21484 55.0863 -0.0915506 53.6069 0.565992ZM72.9222 5.1277C74.1551 6.36059 74.1962 7.34691 73.0866 8.78528L72.2646 9.85379H63.6755C55.374 9.85379 55.0452 9.81269 54.2233 8.94967C53.0726 7.67568 53.1548 5.99072 54.4699 4.96331C55.4973 4.14138 56.1137 4.10029 63.7577 4.10029C71.8948 4.10029 71.9359 4.10029 72.9222 5.1277ZM68.6071 18.2786H58.7439V13.9634H68.6071V18.2786Z" fill="#EAC55B"/>
<path d="M53.6069 0.565992C48.2643 2.94959 47.8534 10.3058 52.9082 13.0593L54.6754 14.0456L54.4288 18.9772L50.8534 20.1279C44.2369 22.2238 38.771 25.717 33.5518 31.1828L30.7161 34.1007H23.0311C16.0858 34.1007 15.2228 34.1829 14.6474 34.8404C13.7844 35.7856 13.7433 36.7309 14.6063 37.5528C15.1406 38.087 16.3735 38.2103 21.5516 38.2103H27.8805L26.2366 41.6624C25.3736 43.5529 24.6339 45.32 24.6339 45.5666C24.6339 45.8954 21.264 46.0187 13.168 46.0187C2.52397 46.0187 1.66095 46.0598 0.756828 46.7995C-0.065101 47.457 -0.147294 47.7447 0.181478 48.731L0.592442 49.9228L11.8118 50.0461C20.3598 50.1283 22.99 50.2516 22.99 50.6626C22.99 50.9091 22.7845 52.6763 22.4968 54.5256L22.0448 57.9366H17.6886C12.5515 57.9366 11.2775 58.3887 11.2775 60.1969C11.2775 62.0052 12.5515 62.4572 17.7297 62.4572C22.6612 62.4572 22.2503 62.1696 22.7434 65.9504C22.8667 66.8546 23.0722 68.2107 23.2366 68.9094L23.4832 70.2656L16.168 70.3477L8.81173 70.471L8.40077 71.6628C8.07199 72.6492 8.15419 72.9368 8.97612 73.5944C9.83914 74.293 10.6611 74.3752 17.442 74.3752H24.9626L25.8257 76.5533C28.949 84.2794 36.8395 92.4576 45.0177 96.5262C56.8535 102.403 70.2509 102.444 82.0867 96.6906C83.7306 95.8686 85.5388 94.8412 86.0731 94.4303C87.3881 93.4029 87.3881 91.8412 86.1553 91.0193C85.2511 90.4439 84.9224 90.5261 80.8127 92.622C74.8537 95.6632 70.4153 96.7317 63.6755 96.6906C56.648 96.6906 51.5109 95.4166 45.6342 92.2111C34.2915 86.0055 27.1818 74.5807 26.401 61.4298C25.4969 45.2378 35.6477 29.9499 51.0589 24.443C64.4974 19.6347 79.2099 22.7581 89.4841 32.6212C92.8129 35.7856 95.2376 39.1966 97.3746 43.594C100.046 49.2242 100.786 52.6352 100.786 59.5805C100.786 66.8135 100.046 70.0601 96.9636 76.3067C95.854 78.6081 94.9088 80.8274 94.9088 81.2383C94.9088 83.2109 97.2513 83.6219 98.6075 81.8959C100.169 79.8821 102.758 73.9642 103.868 69.8957C105.306 64.3888 105.388 55.4297 104.032 50.005C100.457 35.7034 90.1005 24.4841 76.4976 20.1279L72.9222 18.9772L72.6756 14.0456L74.5249 12.9771C77.4017 11.2922 78.7579 7.67568 77.6072 4.63454C76.9907 2.90849 74.8126 0.853668 73.1277 0.401607C70.8674 -0.21484 55.0863 -0.0915506 53.6069 0.565992ZM72.9222 5.1277C74.1551 6.36059 74.1962 7.34691 73.0866 8.78528L72.2646 9.85379H63.6755C55.374 9.85379 55.0452 9.81269 54.2233 8.94967C53.0726 7.67568 53.1548 5.99072 54.4699 4.96331C55.4973 4.14138 56.1137 4.10029 63.7577 4.10029C71.8948 4.10029 71.9359 4.10029 72.9222 5.1277ZM68.6071 18.2786H58.7439V13.9634H68.6071V18.2786Z" fill="url(#paint0_linear_9_1937)"/>
<path d="M59.3193 27.9362C53.237 28.7582 46.7438 31.8815 42.0999 36.2377C35.319 42.5255 31.9901 50.1694 31.949 59.375C31.9079 64.5943 32.6477 68.1286 34.7436 72.6492C40.045 84.2795 50.8945 91.2248 63.6755 91.2248C76.4565 91.2248 87.306 84.2795 92.6074 72.6492C94.7033 68.1286 95.443 64.5943 95.402 59.375C95.3609 50.1694 92.0321 42.5255 85.2511 36.2377C80.4839 31.7582 74.1962 28.7993 67.6619 27.9362C64.2919 27.4842 62.8125 27.4842 59.3193 27.9362ZM71.4016 32.95C78.799 35.2103 85.1278 40.3885 88.2512 46.8406C90.5526 51.5256 91.2512 54.4434 91.2923 59.375C91.3334 70.2656 85.4977 79.7178 75.799 84.4438C71.9359 86.3343 68.3605 87.1151 63.6755 87.1151C58.9083 87.1151 55.374 86.3343 51.511 84.4027C44.1136 80.7863 38.8532 74.2108 36.7162 66.0737C35.8532 62.786 35.8532 56.1284 36.7573 52.7996C39.5108 42.1145 48.7164 33.7719 59.5659 32.0459C62.7714 31.5527 68.1961 31.9637 71.4016 32.95Z" fill="#EAC55B"/>
<path d="M59.3193 27.9362C53.237 28.7582 46.7438 31.8815 42.0999 36.2377C35.319 42.5255 31.9901 50.1694 31.949 59.375C31.9079 64.5943 32.6477 68.1286 34.7436 72.6492C40.045 84.2795 50.8945 91.2248 63.6755 91.2248C76.4565 91.2248 87.306 84.2795 92.6074 72.6492C94.7033 68.1286 95.443 64.5943 95.402 59.375C95.3609 50.1694 92.0321 42.5255 85.2511 36.2377C80.4839 31.7582 74.1962 28.7993 67.6619 27.9362C64.2919 27.4842 62.8125 27.4842 59.3193 27.9362ZM71.4016 32.95C78.799 35.2103 85.1278 40.3885 88.2512 46.8406C90.5526 51.5256 91.2512 54.4434 91.2923 59.375C91.3334 70.2656 85.4977 79.7178 75.799 84.4438C71.9359 86.3343 68.3605 87.1151 63.6755 87.1151C58.9083 87.1151 55.374 86.3343 51.511 84.4027C44.1136 80.7863 38.8532 74.2108 36.7162 66.0737C35.8532 62.786 35.8532 56.1284 36.7573 52.7996C39.5108 42.1145 48.7164 33.7719 59.5659 32.0459C62.7714 31.5527 68.1961 31.9637 71.4016 32.95Z" fill="url(#paint1_linear_9_1937)"/>
<path d="M62.5248 35.9911C60.7165 37.2651 61.5796 41.498 63.6755 41.498C65.7714 41.498 66.6344 37.2651 64.8262 35.9911C64.333 35.6212 63.7988 35.3336 63.6755 35.3336C63.5522 35.3336 63.0179 35.6212 62.5248 35.9911Z" fill="#EAC55B"/>
<path d="M62.5248 35.9911C60.7165 37.2651 61.5796 41.498 63.6755 41.498C65.7714 41.498 66.6344 37.2651 64.8262 35.9911C64.333 35.6212 63.7988 35.3336 63.6755 35.3336C63.5522 35.3336 63.0179 35.6212 62.5248 35.9911Z" fill="url(#paint2_linear_9_1937)"/>
<path d="M71.7304 48.4433C66.47 53.7037 66.4289 53.7448 65.0728 53.3338C64.2097 53.1283 63.1412 53.1283 62.2782 53.3338C60.9631 53.7037 60.7987 53.6215 58.7028 51.4845C55.9494 48.6899 55.374 48.3612 54.0589 48.8954C52.2096 49.594 52.6205 51.1968 55.4562 54.0325C57.8398 56.4572 57.8809 56.5393 57.5521 58.0599C56.6069 62.0463 59.5658 65.7449 63.6755 65.7449C67.7851 65.7449 70.7441 62.0463 69.7989 58.0599L69.4701 56.4982L74.7715 51.1557C80.0319 45.8954 80.7716 44.7858 79.6209 43.6351C78.3058 42.32 77.114 43.0597 71.7304 48.4433ZM64.8262 57.7722C65.8125 58.4709 66.0591 60.3202 65.2371 61.1421C64.9495 61.4298 64.2508 61.6353 63.6755 61.6353C62.3193 61.6353 61.6207 60.9367 61.6207 59.5394C61.6207 58.5531 62.8536 57.1147 63.6755 57.1147C63.7988 57.1147 64.333 57.4024 64.8262 57.7722Z" fill="#EAC55B"/>
<path d="M71.7304 48.4433C66.47 53.7037 66.4289 53.7448 65.0728 53.3338C64.2097 53.1283 63.1412 53.1283 62.2782 53.3338C60.9631 53.7037 60.7987 53.6215 58.7028 51.4845C55.9494 48.6899 55.374 48.3612 54.0589 48.8954C52.2096 49.594 52.6205 51.1968 55.4562 54.0325C57.8398 56.4572 57.8809 56.5393 57.5521 58.0599C56.6069 62.0463 59.5658 65.7449 63.6755 65.7449C67.7851 65.7449 70.7441 62.0463 69.7989 58.0599L69.4701 56.4982L74.7715 51.1557C80.0319 45.8954 80.7716 44.7858 79.6209 43.6351C78.3058 42.32 77.114 43.0597 71.7304 48.4433ZM64.8262 57.7722C65.8125 58.4709 66.0591 60.3202 65.2371 61.1421C64.9495 61.4298 64.2508 61.6353 63.6755 61.6353C62.3193 61.6353 61.6207 60.9367 61.6207 59.5394C61.6207 58.5531 62.8536 57.1147 63.6755 57.1147C63.7988 57.1147 64.333 57.4024 64.8262 57.7722Z" fill="url(#paint3_linear_9_1937)"/>
<path d="M40.3327 58.0188C39.5519 58.7996 39.7163 60.7312 40.6204 61.2243C41.8122 61.8408 44.1958 61.7175 44.9355 60.9778C45.7164 60.238 45.7985 58.7174 45.0999 58.0188C44.8122 57.7311 43.7437 57.5257 42.7163 57.5257C41.6889 57.5257 40.6204 57.7311 40.3327 58.0188Z" fill="#EAC55B"/>
<path d="M40.3327 58.0188C39.5519 58.7996 39.7163 60.7312 40.6204 61.2243C41.8122 61.8408 44.1958 61.7175 44.9355 60.9778C45.7164 60.238 45.7985 58.7174 45.0999 58.0188C44.8122 57.7311 43.7437 57.5257 42.7163 57.5257C41.6889 57.5257 40.6204 57.7311 40.3327 58.0188Z" fill="url(#paint4_linear_9_1937)"/>
<path d="M82.4977 57.9777C81.5935 58.4709 81.5524 60.1147 82.4155 60.9777C83.1552 61.7175 85.5388 61.8408 86.7306 61.2243C87.6347 60.7312 87.7991 58.7996 87.0183 58.0188C86.4018 57.4024 83.484 57.4024 82.4977 57.9777Z" fill="#EAC55B"/>
<path d="M82.4977 57.9777C81.5935 58.4709 81.5524 60.1147 82.4155 60.9777C83.1552 61.7175 85.5388 61.8408 86.7306 61.2243C87.6347 60.7312 87.7991 58.7996 87.0183 58.0188C86.4018 57.4024 83.484 57.4024 82.4977 57.9777Z" fill="url(#paint5_linear_9_1937)"/>
<path d="M62.1138 78.1561C61.8261 78.4438 61.6207 79.5123 61.6207 80.5397C61.6207 82.7178 62.1549 83.4164 63.7577 83.4164C65.0728 83.4164 65.7303 82.4301 65.7303 80.5397C65.7303 78.6492 65.0728 77.6629 63.7577 77.6629C63.1001 77.6629 62.4015 77.8684 62.1138 78.1561Z" fill="#EAC55B"/>
<path d="M62.1138 78.1561C61.8261 78.4438 61.6207 79.5123 61.6207 80.5397C61.6207 82.7178 62.1549 83.4164 63.7577 83.4164C65.0728 83.4164 65.7303 82.4301 65.7303 80.5397C65.7303 78.6492 65.0728 77.6629 63.7577 77.6629C63.1001 77.6629 62.4015 77.8684 62.1138 78.1561Z" fill="url(#paint6_linear_9_1937)"/>
<path d="M0.386971 71.0464C-0.270573 72.3204 -0.106187 73.0601 1.00342 73.7999C1.94864 74.4163 2.11302 74.4163 3.05824 73.7999C4.82539 72.6492 4.12675 70.2656 2.03083 70.2656C1.25 70.2656 0.674646 70.5533 0.386971 71.0464Z" fill="#EAC55B"/>
<path d="M0.386971 71.0464C-0.270573 72.3204 -0.106187 73.0601 1.00342 73.7999C1.94864 74.4163 2.11302 74.4163 3.05824 73.7999C4.82539 72.6492 4.12675 70.2656 2.03083 70.2656C1.25 70.2656 0.674646 70.5533 0.386971 71.0464Z" fill="url(#paint7_linear_9_1937)"/>
<path d="M90.0594 85.9644C89.3197 86.7042 89.4841 88.1425 90.4293 89.0056C91.2101 89.7042 91.3745 89.7042 92.3608 89.1288C93.6759 88.4302 93.9636 87.074 93.0595 86.1288C92.2786 85.348 90.758 85.2658 90.0594 85.9644Z" fill="#EAC55B"/>
<path d="M90.0594 85.9644C89.3197 86.7042 89.4841 88.1425 90.4293 89.0056C91.2101 89.7042 91.3745 89.7042 92.3608 89.1288C93.6759 88.4302 93.9636 87.074 93.0595 86.1288C92.2786 85.348 90.758 85.2658 90.0594 85.9644Z" fill="url(#paint8_linear_9_1937)"/>
<defs>
<linearGradient id="paint0_linear_9_1937" x1="52.5" y1="0" x2="52.5" y2="100.97" gradientUnits="userSpaceOnUse">
<stop stop-color="#F1D27A"/>
<stop offset="0.239583" stop-color="#EECA64"/>
<stop offset="0.59375" stop-color="#FCE194"/>
<stop offset="0.947917" stop-color="#E4BE51"/>
</linearGradient>
<linearGradient id="paint1_linear_9_1937" x1="52.5" y1="0" x2="52.5" y2="100.97" gradientUnits="userSpaceOnUse">
<stop stop-color="#F1D27A"/>
<stop offset="0.239583" stop-color="#EECA64"/>
<stop offset="0.59375" stop-color="#FCE194"/>
<stop offset="0.947917" stop-color="#E4BE51"/>
</linearGradient>
<linearGradient id="paint2_linear_9_1937" x1="52.5" y1="0" x2="52.5" y2="100.97" gradientUnits="userSpaceOnUse">
<stop stop-color="#F1D27A"/>
<stop offset="0.239583" stop-color="#EECA64"/>
<stop offset="0.59375" stop-color="#FCE194"/>
<stop offset="0.947917" stop-color="#E4BE51"/>
</linearGradient>
<linearGradient id="paint3_linear_9_1937" x1="52.5" y1="0" x2="52.5" y2="100.97" gradientUnits="userSpaceOnUse">
<stop stop-color="#F1D27A"/>
<stop offset="0.239583" stop-color="#EECA64"/>
<stop offset="0.59375" stop-color="#FCE194"/>
<stop offset="0.947917" stop-color="#E4BE51"/>
</linearGradient>
<linearGradient id="paint4_linear_9_1937" x1="52.5" y1="0" x2="52.5" y2="100.97" gradientUnits="userSpaceOnUse">
<stop stop-color="#F1D27A"/>
<stop offset="0.239583" stop-color="#EECA64"/>
<stop offset="0.59375" stop-color="#FCE194"/>
<stop offset="0.947917" stop-color="#E4BE51"/>
</linearGradient>
<linearGradient id="paint5_linear_9_1937" x1="52.5" y1="0" x2="52.5" y2="100.97" gradientUnits="userSpaceOnUse">
<stop stop-color="#F1D27A"/>
<stop offset="0.239583" stop-color="#EECA64"/>
<stop offset="0.59375" stop-color="#FCE194"/>
<stop offset="0.947917" stop-color="#E4BE51"/>
</linearGradient>
<linearGradient id="paint6_linear_9_1937" x1="52.5" y1="0" x2="52.5" y2="100.97" gradientUnits="userSpaceOnUse">
<stop stop-color="#F1D27A"/>
<stop offset="0.239583" stop-color="#EECA64"/>
<stop offset="0.59375" stop-color="#FCE194"/>
<stop offset="0.947917" stop-color="#E4BE51"/>
</linearGradient>
<linearGradient id="paint7_linear_9_1937" x1="52.5" y1="0" x2="52.5" y2="100.97" gradientUnits="userSpaceOnUse">
<stop stop-color="#F1D27A"/>
<stop offset="0.239583" stop-color="#EECA64"/>
<stop offset="0.59375" stop-color="#FCE194"/>
<stop offset="0.947917" stop-color="#E4BE51"/>
</linearGradient>
<linearGradient id="paint8_linear_9_1937" x1="52.5" y1="0" x2="52.5" y2="100.97" gradientUnits="userSpaceOnUse">
<stop stop-color="#F1D27A"/>
<stop offset="0.239583" stop-color="#EECA64"/>
<stop offset="0.59375" stop-color="#FCE194"/>
<stop offset="0.947917" stop-color="#E4BE51"/>
</linearGradient>
</defs>
</svg>
