<svg width="38" height="29" viewBox="0 0 38 29" fill="none" xmlns="http://www.w3.org/2000/svg">
<path d="M35.4277 0H2.57189C1.14932 0 0 1.14932 0 2.57189V25.5099C0 26.9324 1.14932 28.0818 2.57189 28.0818H35.4277C36.8503 28.0818 37.9996 26.9324 37.9996 25.5099V2.57189C37.9996 1.14932 36.8503 0 35.4277 0ZM35.8456 24.1355C36.2395 24.4891 36.2716 25.1 35.918 25.5018C35.7251 25.7108 35.4679 25.8233 35.2027 25.8233C34.9696 25.8233 34.7445 25.743 34.5597 25.5742L23.1711 15.3429L19.6508 18.5015C19.466 18.6622 19.2329 18.7506 19.0078 18.7506C18.7748 18.7506 18.5497 18.6703 18.3649 18.5015L14.8446 15.3348L3.45598 25.5661C3.27113 25.7349 3.03804 25.8153 2.813 25.8153C2.54777 25.8153 2.28256 25.7108 2.09771 25.4938C1.74407 25.1 1.77622 24.4891 2.17004 24.1355L13.406 14.0409L2.17004 3.94624C1.77622 3.5926 1.74407 2.98177 2.09771 2.57991C2.45938 2.18609 3.06217 2.15395 3.46403 2.50758L18.9998 16.4842L34.5517 2.50758C34.9455 2.15395 35.5563 2.18609 35.918 2.57991C36.2716 2.97373 36.2395 3.58457 35.8456 3.94624L24.6097 14.0409L35.8456 24.1355Z" fill="#D4AE41"/>
<path d="M35.4277 0H2.57189C1.14932 0 0 1.14932 0 2.57189V25.5099C0 26.9324 1.14932 28.0818 2.57189 28.0818H35.4277C36.8503 28.0818 37.9996 26.9324 37.9996 25.5099V2.57189C37.9996 1.14932 36.8503 0 35.4277 0ZM35.8456 24.1355C36.2395 24.4891 36.2716 25.1 35.918 25.5018C35.7251 25.7108 35.4679 25.8233 35.2027 25.8233C34.9696 25.8233 34.7445 25.743 34.5597 25.5742L23.1711 15.3429L19.6508 18.5015C19.466 18.6622 19.2329 18.7506 19.0078 18.7506C18.7748 18.7506 18.5497 18.6703 18.3649 18.5015L14.8446 15.3348L3.45598 25.5661C3.27113 25.7349 3.03804 25.8153 2.813 25.8153C2.54777 25.8153 2.28256 25.7108 2.09771 25.4938C1.74407 25.1 1.77622 24.4891 2.17004 24.1355L13.406 14.0409L2.17004 3.94624C1.77622 3.5926 1.74407 2.98177 2.09771 2.57991C2.45938 2.18609 3.06217 2.15395 3.46403 2.50758L18.9998 16.4842L34.5517 2.50758C34.9455 2.15395 35.5563 2.18609 35.918 2.57991C36.2716 2.97373 36.2395 3.58457 35.8456 3.94624L24.6097 14.0409L35.8456 24.1355Z" fill="url(#paint0_linear_10_2536)"/>
<defs>
<linearGradient id="paint0_linear_10_2536" x1="18.9998" y1="0" x2="18.9998" y2="28.0818" gradientUnits="userSpaceOnUse">
<stop stop-color="#F1D27A"/>
<stop offset="0.239583" stop-color="#EECA64"/>
<stop offset="0.59375" stop-color="#FCE194"/>
<stop offset="0.947917" stop-color="#E4BE51"/>
</linearGradient>
</defs>
</svg>
