<svg width="36" height="36" viewBox="0 0 36 36" fill="none" xmlns="http://www.w3.org/2000/svg">
<path d="M15.646 0.143219C11.5606 0.833839 8.32333 2.51105 5.52432 5.40038C3.09286 7.90915 1.5944 10.7139 0.845171 14.1811C0.421079 16.0979 0.435215 19.1986 0.859307 21.2141C1.17031 22.7081 1.82058 24.5404 2.47086 25.837L2.8384 26.5558L1.33994 31.0378C-0.17265 35.5762 -0.243332 35.8862 0.33626 35.999C0.449352 36.0272 2.71118 35.4634 5.35468 34.7728L10.1752 33.5043L11.3061 33.9976C13.6245 34.9983 16.8617 35.5621 19.2508 35.407C23.8451 35.0829 27.6054 33.3775 30.8567 30.1217C33.4578 27.5142 34.9563 24.7377 35.7479 21.0873C36.0589 19.6356 36.0872 15.8583 35.8045 14.5334C35.0129 10.7844 33.3589 7.68364 30.8426 5.16077C28.3546 2.69428 25.3153 1.05935 21.7246 0.284164C20.3534 -0.0259094 17.0596 -0.0963821 15.646 0.143219ZM12.6773 6.14737C13.681 6.52791 16.1973 9.58636 16.5366 10.8408C16.7628 11.6723 16.5366 12.1515 15.4481 13.1804C14.4303 14.1388 14.2041 14.5898 14.3737 15.2663C14.5009 15.8019 20.1696 21.4537 20.7068 21.5806C21.3854 21.7497 21.8377 21.5242 22.799 20.5094C23.8734 19.3678 24.3257 19.1845 25.2587 19.4523C26.531 19.8329 29.4714 22.2853 29.8531 23.2719C30.051 23.8075 30.0227 24.6954 29.7965 25.1605C29.4431 25.8229 27.2802 27.7539 26.4038 28.1767C24.1278 29.2901 21.6257 28.8391 18.8974 26.8236C18.346 26.429 16.0277 24.2303 13.7234 21.947C10.5003 18.7194 9.36942 17.5073 8.76155 16.5771C6.98037 13.8569 6.6835 11.7851 7.78614 9.54408C8.18196 8.72662 9.97729 6.69705 10.6982 6.26012C11.1647 5.97824 12.0977 5.92186 12.6773 6.14737Z" fill="#51A942"/>
</svg>
