<svg width="28" height="37" viewBox="0 0 28 37" fill="none" xmlns="http://www.w3.org/2000/svg">
<path d="M11.5517 0.155228C8.6166 0.71962 6.23642 1.96418 4.11909 4.06256C1.57829 6.58063 0.205675 9.6052 0.0158456 13.1218C-0.246996 18.1724 2.76108 24.4676 8.96705 31.8626C10.9238 34.178 13.669 37 13.9902 37C14.1217 37 14.8956 36.3343 15.6841 35.5094C22.3574 28.6933 26.8403 21.4719 27.804 15.9727C28.5633 11.7036 27.0885 7.24633 23.8614 4.06256C21.9923 2.2102 19.9334 1.03799 17.3634 0.372299C15.9177 -0.0184326 13.0119 -0.119736 11.5517 0.155228ZM15.3337 7.63706C17.7138 8.14357 19.5683 9.93805 20.1962 12.3548C21.1308 15.8859 18.7214 19.4604 15.0124 20.0971C10.7631 20.8207 6.95194 17.0436 7.68205 12.8324C8.30995 9.22894 11.7561 6.88453 15.3337 7.63706Z" fill="#D4AE41"/>
<path d="M11.5517 0.155228C8.6166 0.71962 6.23642 1.96418 4.11909 4.06256C1.57829 6.58063 0.205675 9.6052 0.0158456 13.1218C-0.246996 18.1724 2.76108 24.4676 8.96705 31.8626C10.9238 34.178 13.669 37 13.9902 37C14.1217 37 14.8956 36.3343 15.6841 35.5094C22.3574 28.6933 26.8403 21.4719 27.804 15.9727C28.5633 11.7036 27.0885 7.24633 23.8614 4.06256C21.9923 2.2102 19.9334 1.03799 17.3634 0.372299C15.9177 -0.0184326 13.0119 -0.119736 11.5517 0.155228ZM15.3337 7.63706C17.7138 8.14357 19.5683 9.93805 20.1962 12.3548C21.1308 15.8859 18.7214 19.4604 15.0124 20.0971C10.7631 20.8207 6.95194 17.0436 7.68205 12.8324C8.30995 9.22894 11.7561 6.88453 15.3337 7.63706Z" fill="url(#paint0_linear_10_2616)"/>
<defs>
<linearGradient id="paint0_linear_10_2616" x1="14" y1="37" x2="14" y2="0" gradientUnits="userSpaceOnUse">
<stop stop-color="#F1D27A"/>
<stop offset="0.239583" stop-color="#EECA64"/>
<stop offset="0.59375" stop-color="#FCE194"/>
<stop offset="0.947917" stop-color="#E4BE51"/>
</linearGradient>
</defs>
</svg>
