<svg width="29" height="27" viewBox="0 0 29 27" fill="none" xmlns="http://www.w3.org/2000/svg">
<path d="M4.60563 0.182198C4.3559 0.266745 3.26618 1.19674 2.17646 2.23243C0.405657 3.92334 0.201334 4.19812 0.0651187 5.12812C-0.842984 10.7504 7.8975 21.3186 16.865 25.4402C19.6574 26.7295 21.678 27.1734 23.4715 26.9409C24.4931 26.7929 24.7655 26.6238 26.6725 24.8484C28.9201 22.7347 29.3287 21.9316 28.7839 20.7057C28.6476 20.3675 27.3763 19.0359 25.9687 17.7466L23.4034 15.4004H22.2909C20.9515 15.4004 20.3158 15.7597 19.7028 16.88C18.2953 19.4586 15.4802 19.0781 11.9613 15.8443C8.39696 12.547 7.94291 9.84154 10.758 8.61563C11.9386 8.08722 12.438 7.34744 12.438 6.07926C12.438 5.2338 12.3245 5.08584 10.0088 2.88766C8.64669 1.59834 7.28454 0.435835 6.944 0.266745C6.26292 -0.0503025 5.30941 -0.0925751 4.60563 0.182198Z" fill="#D4AE41"/>
<path d="M4.60563 0.182198C4.3559 0.266745 3.26618 1.19674 2.17646 2.23243C0.405657 3.92334 0.201334 4.19812 0.0651187 5.12812C-0.842984 10.7504 7.8975 21.3186 16.865 25.4402C19.6574 26.7295 21.678 27.1734 23.4715 26.9409C24.4931 26.7929 24.7655 26.6238 26.6725 24.8484C28.9201 22.7347 29.3287 21.9316 28.7839 20.7057C28.6476 20.3675 27.3763 19.0359 25.9687 17.7466L23.4034 15.4004H22.2909C20.9515 15.4004 20.3158 15.7597 19.7028 16.88C18.2953 19.4586 15.4802 19.0781 11.9613 15.8443C8.39696 12.547 7.94291 9.84154 10.758 8.61563C11.9386 8.08722 12.438 7.34744 12.438 6.07926C12.438 5.2338 12.3245 5.08584 10.0088 2.88766C8.64669 1.59834 7.28454 0.435835 6.944 0.266745C6.26292 -0.0503025 5.30941 -0.0925751 4.60563 0.182198Z" fill="url(#paint0_linear_10_2534)"/>
<defs>
<linearGradient id="paint0_linear_10_2534" x1="14.5" y1="27" x2="14.5" y2="0" gradientUnits="userSpaceOnUse">
<stop stop-color="#F1D27A"/>
<stop offset="0.239583" stop-color="#EECA64"/>
<stop offset="0.59375" stop-color="#FCE194"/>
<stop offset="0.947917" stop-color="#E4BE51"/>
</linearGradient>
</defs>
</svg>
