<svg width="314" height="60" viewBox="0 0 314 60" fill="none" xmlns="http://www.w3.org/2000/svg">
<path d="M2.77671 56.5561H0L4.23089 44.3109H7.57012L11.795 56.5561H9.01832L5.94838 47.1091H5.85263L2.77671 56.5561ZM2.60316 51.7429H9.16194V53.7638H2.60316V51.7429Z" fill="#333333"/>
<path d="M13.2223 56.5561V47.3722H17.142C18.275 47.3722 19.1707 47.5874 19.8289 48.0179C20.4872 48.4484 20.8163 49.0603 20.8163 49.8535C20.8163 50.3518 20.6308 50.7663 20.2598 51.0972C19.8888 51.428 19.3741 51.6512 18.7159 51.7668C19.2664 51.8067 19.7352 51.9322 20.1222 52.1435C20.5131 52.3508 20.8104 52.6198 21.0138 52.9507C21.2213 53.2815 21.325 53.6482 21.325 54.0508C21.325 54.573 21.1854 55.0214 20.9061 55.3961C20.6308 55.7708 20.2259 56.0578 19.6913 56.2571C19.1607 56.4564 18.5124 56.5561 17.7464 56.5561H13.2223ZM15.598 54.6487H17.7464C18.1015 54.6487 18.3787 54.565 18.5782 54.3976C18.7817 54.2262 18.8834 53.993 18.8834 53.6981C18.8834 53.3712 18.7817 53.1141 18.5782 52.9268C18.3787 52.7394 18.1015 52.6457 17.7464 52.6457H15.598V54.6487ZM15.598 51.151H17.1958C17.4512 51.151 17.6686 51.1151 17.8481 51.0433C18.0317 50.9676 18.1713 50.86 18.267 50.7205C18.3668 50.581 18.4166 50.4155 18.4166 50.2242C18.4166 49.9412 18.3029 49.72 18.0755 49.5605C17.8481 49.4011 17.537 49.3214 17.142 49.3214H15.598V51.151Z" fill="#333333"/>
<path d="M22.453 49.3752V47.3722H30.7832V49.3752H27.8209V56.5561H25.3913V49.3752H22.453Z" fill="#333333"/>
<path d="M36.1526 56.7354C35.223 56.7354 34.4191 56.5381 33.7409 56.1435C33.0667 55.7449 32.546 55.1908 32.179 54.4813C31.812 53.7678 31.6285 52.9407 31.6285 52C31.6285 51.0513 31.812 50.2222 32.179 49.5127C32.546 48.7992 33.0667 48.2451 33.7409 47.8505C34.4191 47.4519 35.223 47.2526 36.1526 47.2526C37.0821 47.2526 37.884 47.4519 38.5583 47.8505C39.2365 48.2451 39.7591 48.7992 40.1261 49.5127C40.4932 50.2222 40.6767 51.0513 40.6767 52C40.6767 52.9407 40.4932 53.7678 40.1261 54.4813C39.7591 55.1908 39.2365 55.7449 38.5583 56.1435C37.884 56.5381 37.0821 56.7354 36.1526 56.7354ZM36.1645 54.7623C36.5874 54.7623 36.9405 54.6427 37.2238 54.4036C37.507 54.1604 37.7205 53.8296 37.8641 53.4111C38.0117 52.9925 38.0855 52.5162 38.0855 51.9821C38.0855 51.4479 38.0117 50.9716 37.8641 50.5531C37.7205 50.1345 37.507 49.8037 37.2238 49.5605C36.9405 49.3174 36.5874 49.1958 36.1645 49.1958C35.7377 49.1958 35.3786 49.3174 35.0874 49.5605C34.8001 49.8037 34.5827 50.1345 34.4351 50.5531C34.2915 50.9716 34.2197 51.4479 34.2197 51.9821C34.2197 52.5162 34.2915 52.9925 34.4351 53.4111C34.5827 53.8296 34.8001 54.1604 35.0874 54.4036C35.3786 54.6427 35.7377 54.7623 36.1645 54.7623Z" fill="#333333"/>
<path d="M47.7681 53.7399L50.2575 47.3722H52.1964L48.6119 56.5561H46.9183L43.4175 47.3722H45.3504L47.7681 53.7399ZM44.7699 47.3722V56.5561H42.3343V47.3722H44.7699ZM50.8919 56.5561V47.3722H53.2976V56.5561H50.8919Z" fill="#333333"/>
<path d="M59.4225 56.7354C58.4929 56.7354 57.689 56.5381 57.0108 56.1435C56.3366 55.7449 55.8159 55.1908 55.4489 54.4813C55.0819 53.7678 54.8983 52.9407 54.8983 52C54.8983 51.0513 55.0819 50.2222 55.4489 49.5127C55.8159 48.7992 56.3366 48.2451 57.0108 47.8505C57.689 47.4519 58.4929 47.2526 59.4225 47.2526C60.352 47.2526 61.1539 47.4519 61.8282 47.8505C62.5064 48.2451 63.029 48.7992 63.396 49.5127C63.7631 50.2222 63.9466 51.0513 63.9466 52C63.9466 52.9407 63.7631 53.7678 63.396 54.4813C63.029 55.1908 62.5064 55.7449 61.8282 56.1435C61.1539 56.5381 60.352 56.7354 59.4225 56.7354ZM59.4344 54.7623C59.8573 54.7623 60.2104 54.6427 60.4937 54.4036C60.7769 54.1604 60.9904 53.8296 61.134 53.4111C61.2816 52.9925 61.3554 52.5162 61.3554 51.9821C61.3554 51.4479 61.2816 50.9716 61.134 50.5531C60.9904 50.1345 60.7769 49.8037 60.4937 49.5605C60.2104 49.3174 59.8573 49.1958 59.4344 49.1958C59.0076 49.1958 58.6485 49.3174 58.3573 49.5605C58.07 49.8037 57.8526 50.1345 57.705 50.5531C57.5614 50.9716 57.4895 51.4479 57.4895 51.9821C57.4895 52.5162 57.5614 52.9925 57.705 53.4111C57.8526 53.8296 58.07 54.1604 58.3573 54.4036C58.6485 54.6427 59.0076 54.7623 59.4344 54.7623Z" fill="#333333"/>
<path d="M73.2462 44L74.0241 45.6622C73.7648 45.8774 73.4776 46.0369 73.1624 46.1405C72.8472 46.2402 72.4702 46.3059 72.0314 46.3378C71.5965 46.3697 71.0659 46.3916 70.4395 46.4036C69.7294 46.4116 69.1509 46.5252 68.7041 46.7444C68.2573 46.9636 67.9182 47.3084 67.6868 47.7788C67.4554 48.2451 67.3038 48.855 67.232 49.6084H67.3217C67.597 49.0463 67.984 48.6119 68.4827 48.3049C68.9854 47.998 69.6057 47.8445 70.3438 47.8445C71.1257 47.8445 71.8099 48.0159 72.3964 48.3587C72.9869 48.7015 73.4456 49.1938 73.7728 49.8356C74.0999 50.4773 74.2635 51.2466 74.2635 52.1435C74.2635 53.0762 74.08 53.8874 73.713 54.577C73.3499 55.2626 72.8333 55.7947 72.163 56.1734C71.4928 56.5481 70.6949 56.7354 69.7693 56.7354C68.8397 56.7354 68.0378 56.5401 67.3636 56.1495C66.6934 55.7588 66.1747 55.1829 65.8077 54.4215C65.4447 53.6602 65.2631 52.7235 65.2631 51.6114V50.858C65.2631 48.6457 65.694 47.0055 66.5557 45.9372C67.4175 44.869 68.6842 44.3269 70.3558 44.3109C70.8106 44.3029 71.2215 44.3009 71.5885 44.3049C71.9556 44.3089 72.2767 44.291 72.552 44.2511C72.8313 44.2113 73.0627 44.1276 73.2462 44ZM69.7813 54.7623C70.1722 54.7623 70.5074 54.6607 70.7866 54.4574C71.0699 54.2541 71.2873 53.9631 71.4389 53.5845C71.5945 53.2058 71.6723 52.7534 71.6723 52.2272C71.6723 51.705 71.5945 51.2626 71.4389 50.8999C71.2873 50.5331 71.0699 50.2541 70.7866 50.0628C70.5034 49.8715 70.1643 49.7758 69.7693 49.7758C69.4741 49.7758 69.2088 49.8296 68.9734 49.9372C68.738 50.0448 68.5365 50.2043 68.369 50.4155C68.2054 50.6228 68.0777 50.8799 67.986 51.1868C67.8982 51.4898 67.8543 51.8366 67.8543 52.2272C67.8543 53.0125 68.0239 53.6323 68.363 54.0867C68.7061 54.5371 69.1788 54.7623 69.7813 54.7623Z" fill="#333333"/>
<path d="M78.3912 53.1958L81.7005 47.3722H84.2139V56.5561H81.7843V50.7145L78.4869 56.5561H75.9556V47.3722H78.3912V53.1958Z" fill="#333333"/>
<path d="M85.7189 56.5561L85.707 54.5351H86.0122C86.2276 54.5351 86.4131 54.4833 86.5687 54.3797C86.7283 54.272 86.8599 54.0987 86.9637 53.8595C87.0674 53.6203 87.1492 53.3034 87.209 52.9088C87.2689 52.5102 87.3087 52.0199 87.3287 51.438L87.4783 47.3722H94.4679V56.5561H92.0383V49.3752H89.7703L89.6267 52.1794C89.5908 52.9487 89.497 53.6104 89.3454 54.1644C89.1978 54.7185 88.9923 55.1729 88.729 55.5277C88.4657 55.8784 88.1485 56.1375 87.7775 56.3049C87.4065 56.4723 86.9756 56.5561 86.4849 56.5561H85.7189Z" fill="#333333"/>
<path d="M98.0421 50.1943H100.789C102.006 50.1943 102.955 50.4853 103.637 51.0673C104.32 51.6452 104.661 52.4185 104.661 53.3871C104.661 54.0169 104.507 54.571 104.2 55.0493C103.893 55.5237 103.45 55.8944 102.871 56.1614C102.293 56.4245 101.599 56.5561 100.789 56.5561H96.4443V47.3722H98.8799V54.5531H100.789C101.216 54.5531 101.567 54.4454 101.842 54.2302C102.117 54.0149 102.257 53.7399 102.261 53.4051C102.257 53.0503 102.117 52.7613 101.842 52.5381C101.567 52.3109 101.216 52.1973 100.789 52.1973H98.0421V50.1943Z" fill="#333333"/>
<path d="M114.943 55.2407H112.633L110.216 51.6532V51.5336H112.645L114.943 55.2407ZM114.943 47.8984L112.645 51.6054H110.216V51.4858L112.633 47.8984H114.943ZM118.881 55.2407H116.571L114.153 51.6532V51.5336H116.583L118.881 55.2407ZM118.881 47.8984L116.583 51.6054H114.153V51.4858L116.571 47.8984H118.881Z" fill="#333333"/>
<path d="M120.8 56.5561V47.3722H128.837V56.5561H126.402V49.3752H123.206V56.5561H120.8Z" fill="#333333"/>
<path d="M135.025 56.7354C134.095 56.7354 133.292 56.5381 132.613 56.1435C131.939 55.7449 131.418 55.1908 131.051 54.4813C130.684 53.7678 130.501 52.9407 130.501 52C130.501 51.0513 130.684 50.2222 131.051 49.5127C131.418 48.7992 131.939 48.2451 132.613 47.8505C133.292 47.4519 134.095 47.2526 135.025 47.2526C135.955 47.2526 136.756 47.4519 137.431 47.8505C138.109 48.2451 138.631 48.7992 138.999 49.5127C139.366 50.2222 139.549 51.0513 139.549 52C139.549 52.9407 139.366 53.7678 138.999 54.4813C138.631 55.1908 138.109 55.7449 137.431 56.1435C136.756 56.5381 135.955 56.7354 135.025 56.7354ZM135.037 54.7623C135.46 54.7623 135.813 54.6427 136.096 54.4036C136.379 54.1604 136.593 53.8296 136.736 53.4111C136.884 52.9925 136.958 52.5162 136.958 51.9821C136.958 51.4479 136.884 50.9716 136.736 50.5531C136.593 50.1345 136.379 49.8037 136.096 49.5605C135.813 49.3174 135.46 49.1958 135.037 49.1958C134.61 49.1958 134.251 49.3174 133.96 49.5605C133.673 49.8037 133.455 50.1345 133.307 50.5531C133.164 50.9716 133.092 51.4479 133.092 51.9821C133.092 52.5162 133.164 52.9925 133.307 53.4111C133.455 53.8296 133.673 54.1604 133.96 54.4036C134.251 54.6427 134.61 54.7623 135.037 54.7623Z" fill="#333333"/>
<path d="M140.489 59.2466V54.5351H141.195C141.398 54.4076 141.562 54.2043 141.685 53.9253C141.813 53.6462 141.917 53.3174 141.997 52.9387C142.08 52.56 142.144 52.1515 142.188 51.713C142.236 51.2706 142.278 50.8241 142.314 50.3737L142.553 47.3722H149.603V54.5351H151.027V59.2466H148.597V56.5561H142.978V59.2466H140.489ZM143.732 54.5351H147.197V49.3333H144.719L144.624 50.3737C144.556 51.3543 144.458 52.1873 144.331 52.8729C144.203 53.5546 144.003 54.1086 143.732 54.5351Z" fill="#333333"/>
<path d="M156.413 56.5561V47.3722H158.962V50.9357H159.68L162.182 47.3722H165.174L161.924 51.9283L165.21 56.5561H162.182L159.914 53.2975H158.962V56.5561H156.413Z" fill="#333333"/>
<path d="M165.748 56.5561L165.736 54.5351H166.042C166.257 54.5351 166.442 54.4833 166.598 54.3797C166.758 54.272 166.889 54.0987 166.993 53.8595C167.097 53.6203 167.179 53.3034 167.238 52.9088C167.298 52.5102 167.338 52.0199 167.358 51.438L167.508 47.3722H174.497V56.5561H172.068V49.3752H169.8L169.656 52.1794C169.62 52.9487 169.526 53.6104 169.375 54.1644C169.227 54.7185 169.022 55.1729 168.758 55.5277C168.495 55.8784 168.178 56.1375 167.807 56.3049C167.436 56.4723 167.005 56.5561 166.514 56.5561H165.748Z" fill="#333333"/>
<path d="M181.554 51.0015V53.0224H176.569V51.0015H181.554ZM178.538 47.3722V56.5561H175.995V47.3722H178.538ZM184.307 56.7354C183.397 56.7354 182.612 56.5321 181.949 56.1256C181.287 55.719 180.776 55.1569 180.417 54.4395C180.062 53.722 179.885 52.8989 179.885 51.9701C179.885 51.0414 180.062 50.2222 180.417 49.5127C180.776 48.8032 181.287 48.2491 181.949 47.8505C182.612 47.4519 183.397 47.2526 184.307 47.2526C185.221 47.2526 186.007 47.4519 186.665 47.8505C187.327 48.2491 187.836 48.8032 188.191 49.5127C188.55 50.2222 188.729 51.0414 188.729 51.9701C188.729 52.8989 188.55 53.722 188.191 54.4395C187.836 55.1569 187.327 55.719 186.665 56.1256C186.007 56.5321 185.221 56.7354 184.307 56.7354ZM184.307 54.6786C184.782 54.6786 185.165 54.563 185.456 54.3318C185.747 54.0967 185.961 53.7758 186.096 53.3692C186.232 52.9586 186.3 52.4923 186.3 51.9701C186.3 51.4479 186.232 50.9856 186.096 50.583C185.961 50.1764 185.747 49.8575 185.456 49.6263C185.165 49.3951 184.782 49.2795 184.307 49.2795C183.836 49.2795 183.453 49.3951 183.158 49.6263C182.863 49.8535 182.645 50.1684 182.506 50.571C182.37 50.9736 182.302 51.44 182.302 51.9701C182.302 52.4963 182.37 52.9626 182.506 53.3692C182.645 53.7758 182.863 54.0967 183.158 54.3318C183.453 54.563 183.836 54.6786 184.307 54.6786Z" fill="#333333"/>
<path d="M198.439 47.3722V56.5561H196.021V47.3722H198.439ZM197.26 51.4021V53.4111C197.065 53.4988 196.821 53.5825 196.53 53.6622C196.239 53.7379 195.934 53.7997 195.614 53.8475C195.295 53.8954 194.996 53.9193 194.717 53.9193C193.396 53.9193 192.357 53.6482 191.599 53.1061C190.841 52.56 190.462 51.6891 190.462 50.4933V47.3602H192.868V50.4933C192.868 50.848 192.927 51.129 193.047 51.3363C193.171 51.5436 193.366 51.6931 193.634 51.7848C193.905 51.8724 194.266 51.9163 194.717 51.9163C195.136 51.9163 195.547 51.8724 195.949 51.7848C196.352 51.6971 196.789 51.5695 197.26 51.4021Z" fill="#333333"/>
<path d="M200.251 55.2407L202.549 51.5336H204.978V51.6532L202.561 55.2407H200.251ZM200.251 47.8984H202.561L204.978 51.4858V51.6054H202.549L200.251 47.8984ZM204.248 55.2407L206.546 51.5336H208.976V51.6532L206.558 55.2407H204.248ZM204.248 47.8984H206.558L208.976 51.4858V51.6054H206.546L204.248 47.8984Z" fill="#333333"/>
<path d="M219.07 56.7354C218.128 56.7354 217.318 56.5361 216.64 56.1375C215.966 55.7349 215.447 55.1769 215.084 54.4634C214.725 53.7499 214.546 52.9287 214.546 52C214.546 51.0593 214.727 50.2342 215.09 49.5247C215.457 48.8112 215.978 48.2551 216.652 47.8565C217.326 47.4539 218.128 47.2526 219.058 47.2526C219.86 47.2526 220.562 47.3981 221.164 47.6891C221.767 47.9801 222.243 48.3886 222.595 48.9148C222.946 49.441 223.139 50.0588 223.175 50.7683H220.769C220.701 50.3099 220.522 49.9412 220.231 49.6622C219.943 49.3792 219.566 49.2377 219.1 49.2377C218.705 49.2377 218.36 49.3453 218.064 49.5605C217.773 49.7718 217.546 50.0807 217.382 50.4873C217.219 50.8939 217.137 51.3861 217.137 51.9641C217.137 52.5501 217.217 53.0483 217.376 53.4589C217.54 53.8695 217.769 54.1824 218.064 54.3976C218.36 54.6129 218.705 54.7205 219.1 54.7205C219.391 54.7205 219.652 54.6607 219.884 54.5411C220.119 54.4215 220.312 54.2481 220.464 54.0209C220.62 53.7897 220.721 53.5127 220.769 53.1898H223.175C223.135 53.8914 222.944 54.5092 222.601 55.0433C222.261 55.5735 221.793 55.988 221.194 56.287C220.596 56.5859 219.888 56.7354 219.07 56.7354Z" fill="#333333"/>
<path d="M235.003 47.3722V49.3752H231.185V56.5561H228.707V47.3722H235.003Z" fill="#333333"/>
<path d="M238.849 56.7294C238.263 56.7294 237.74 56.6278 237.281 56.4245C236.823 56.2172 236.46 55.9123 236.192 55.5097C235.929 55.1031 235.797 54.5969 235.797 53.991C235.797 53.4808 235.891 53.0523 236.079 52.7055C236.266 52.3587 236.521 52.0797 236.845 51.8685C237.168 51.6572 237.535 51.4978 237.946 51.3901C238.361 51.2825 238.795 51.2068 239.25 51.1629C239.785 51.1071 240.216 51.0553 240.543 51.0075C240.87 50.9557 241.107 50.8799 241.255 50.7803C241.403 50.6806 241.476 50.5331 241.476 50.3378V50.3019C241.476 49.9233 241.357 49.6303 241.117 49.423C240.882 49.2157 240.547 49.1121 240.112 49.1121C239.653 49.1121 239.288 49.2138 239.017 49.417C238.746 49.6163 238.566 49.8675 238.478 50.1704L236.12 49.9791C236.24 49.421 236.476 48.9387 236.827 48.5321C237.178 48.1216 237.631 47.8067 238.185 47.5874C238.744 47.3642 239.39 47.2526 240.124 47.2526C240.635 47.2526 241.123 47.3124 241.59 47.432C242.061 47.5516 242.478 47.7369 242.841 47.988C243.208 48.2392 243.497 48.562 243.709 48.9567C243.92 49.3473 244.026 49.8156 244.026 50.3617V56.5561H241.608V55.2825H241.536C241.389 55.5695 241.191 55.8226 240.944 56.0419C240.696 56.2571 240.399 56.4265 240.052 56.5501C239.705 56.6697 239.304 56.7294 238.849 56.7294ZM239.579 54.9716C239.954 54.9716 240.286 54.8979 240.573 54.7504C240.86 54.5989 241.085 54.3956 241.249 54.1405C241.413 53.8854 241.494 53.5964 241.494 53.2735V52.299C241.415 52.3508 241.305 52.3986 241.165 52.4425C241.03 52.4823 240.876 52.5202 240.704 52.5561C240.533 52.5879 240.361 52.6178 240.19 52.6457C240.018 52.6697 239.863 52.6916 239.723 52.7115C239.424 52.7554 239.163 52.8251 238.939 52.9208C238.716 53.0164 238.542 53.146 238.418 53.3094C238.295 53.4689 238.233 53.6682 238.233 53.9073C238.233 54.2541 238.359 54.5192 238.61 54.7025C238.865 54.8819 239.188 54.9716 239.579 54.9716Z" fill="#333333"/>
<path d="M246.004 60V47.3722H248.517V48.9148H248.631C248.742 48.6677 248.904 48.4165 249.115 48.1614C249.331 47.9023 249.61 47.6871 249.953 47.5157C250.3 47.3403 250.731 47.2526 251.246 47.2526C251.916 47.2526 252.534 47.428 253.101 47.7788C253.667 48.1256 254.12 48.6497 254.459 49.3513C254.798 50.0488 254.968 50.9238 254.968 51.9761C254.968 53.0005 254.802 53.8655 254.471 54.571C254.144 55.2725 253.697 55.8047 253.131 56.1674C252.568 56.5262 251.938 56.7055 251.24 56.7055C250.745 56.7055 250.324 56.6238 249.977 56.4604C249.634 56.297 249.353 56.0917 249.133 55.8445C248.914 55.5934 248.746 55.3403 248.631 55.0852H248.553V60H246.004ZM248.499 51.9641C248.499 52.5102 248.575 52.9865 248.726 53.3931C248.878 53.7997 249.097 54.1166 249.385 54.3438C249.672 54.567 250.021 54.6786 250.432 54.6786C250.847 54.6786 251.198 54.565 251.485 54.3378C251.772 54.1066 251.99 53.7877 252.137 53.3812C252.289 52.9706 252.365 52.4983 252.365 51.9641C252.365 51.434 252.291 50.9676 252.143 50.565C251.996 50.1624 251.778 49.8475 251.491 49.6203C251.204 49.3931 250.851 49.2795 250.432 49.2795C250.017 49.2795 249.666 49.3891 249.379 49.6084C249.095 49.8276 248.878 50.1385 248.726 50.5411C248.575 50.9437 248.499 51.418 248.499 51.9641Z" fill="#333333"/>
<path d="M259.289 56.7294C258.702 56.7294 258.18 56.6278 257.721 56.4245C257.262 56.2172 256.899 55.9123 256.632 55.5097C256.368 55.1031 256.237 54.5969 256.237 53.991C256.237 53.4808 256.33 53.0523 256.518 52.7055C256.705 52.3587 256.961 52.0797 257.284 51.8685C257.607 51.6572 257.974 51.4978 258.385 51.3901C258.8 51.2825 259.235 51.2068 259.69 51.1629C260.224 51.1071 260.655 51.0553 260.982 51.0075C261.309 50.9557 261.547 50.8799 261.694 50.7803C261.842 50.6806 261.916 50.5331 261.916 50.3378V50.3019C261.916 49.9233 261.796 49.6303 261.557 49.423C261.321 49.2157 260.986 49.1121 260.551 49.1121C260.093 49.1121 259.728 49.2138 259.456 49.417C259.185 49.6163 259.005 49.8675 258.918 50.1704L256.56 49.9791C256.68 49.421 256.915 48.9387 257.266 48.5321C257.617 48.1216 258.07 47.8067 258.624 47.5874C259.183 47.3642 259.829 47.2526 260.563 47.2526C261.074 47.2526 261.563 47.3124 262.029 47.432C262.5 47.5516 262.917 47.7369 263.28 47.988C263.647 48.2392 263.936 48.562 264.148 48.9567C264.359 49.3473 264.465 49.8156 264.465 50.3617V56.5561H262.047V55.2825H261.976C261.828 55.5695 261.631 55.8226 261.383 56.0419C261.136 56.2571 260.839 56.4265 260.492 56.5501C260.144 56.6697 259.743 56.7294 259.289 56.7294ZM260.019 54.9716C260.394 54.9716 260.725 54.8979 261.012 54.7504C261.299 54.5989 261.525 54.3956 261.688 54.1405C261.852 53.8854 261.934 53.5964 261.934 53.2735V52.299C261.854 52.3508 261.744 52.3986 261.605 52.4425C261.469 52.4823 261.315 52.5202 261.144 52.5561C260.972 52.5879 260.801 52.6178 260.629 52.6457C260.458 52.6697 260.302 52.6916 260.162 52.7115C259.863 52.7554 259.602 52.8251 259.378 52.9208C259.155 53.0164 258.981 53.146 258.858 53.3094C258.734 53.4689 258.672 53.6682 258.672 53.9073C258.672 54.2541 258.798 54.5192 259.049 54.7025C259.305 54.8819 259.628 54.9716 260.019 54.9716Z" fill="#333333"/>
<path d="M272.84 50.9477V52.9507H268.041V50.9477H272.84ZM268.878 47.3722V56.5561H266.443V47.3722H268.878ZM274.438 47.3722V56.5561H272.02V47.3722H274.438Z" fill="#333333"/>
<path d="M275.493 49.3752V47.3722H283.823V49.3752H280.861V56.5561H278.431V49.3752H275.493Z" fill="#333333"/>
<path d="M287.804 53.1958L291.113 47.3722H293.626V56.5561H291.197V50.7145L287.9 56.5561H285.368V47.3722H287.804V53.1958Z" fill="#333333"/>
<path d="M299.859 56.7354C298.914 56.7354 298.1 56.5441 297.418 56.1614C296.739 55.7748 296.217 55.2287 295.85 54.5232C295.483 53.8137 295.299 52.9746 295.299 52.006C295.299 51.0613 295.483 50.2322 295.85 49.5187C296.217 48.8052 296.733 48.2491 297.4 47.8505C298.07 47.4519 298.856 47.2526 299.757 47.2526C300.364 47.2526 300.928 47.3503 301.451 47.5456C301.978 47.7369 302.436 48.0259 302.827 48.4126C303.222 48.7992 303.53 49.2855 303.749 49.8714C303.968 50.4534 304.078 51.135 304.078 51.9163V52.6158H296.316V51.0374H301.678C301.678 50.6707 301.599 50.3458 301.439 50.0628C301.279 49.7798 301.058 49.5585 300.775 49.3991C300.495 49.2357 300.17 49.154 299.799 49.154C299.412 49.154 299.069 49.2436 298.77 49.423C298.475 49.5984 298.243 49.8356 298.076 50.1345C297.908 50.4295 297.822 50.7583 297.819 51.1211V52.6218C297.819 53.0762 297.902 53.4689 298.07 53.7997C298.241 54.1305 298.483 54.3856 298.794 54.565C299.105 54.7444 299.474 54.8341 299.901 54.8341C300.184 54.8341 300.444 54.7942 300.679 54.7145C300.914 54.6348 301.116 54.5152 301.283 54.3558C301.451 54.1963 301.579 54.001 301.666 53.7698L304.024 53.9253C303.905 54.4913 303.659 54.9856 303.288 55.4081C302.921 55.8266 302.446 56.1535 301.864 56.3886C301.285 56.6198 300.617 56.7354 299.859 56.7354Z" fill="#333333"/>
<path d="M308.177 53.1958L311.487 47.3722H314V56.5561H311.57V50.7145L308.273 56.5561H305.742V47.3722H308.177V53.1958ZM311.05 44.1674H312.827C312.823 44.8929 312.554 45.4768 312.019 45.9193C311.489 46.3617 310.77 46.583 309.865 46.583C308.955 46.583 308.235 46.3617 307.705 45.9193C307.174 45.4768 306.909 44.8929 306.909 44.1674H308.674C308.67 44.4425 308.758 44.6896 308.937 44.9088C309.121 45.1281 309.43 45.2377 309.865 45.2377C310.288 45.2377 310.591 45.13 310.774 44.9148C310.958 44.6996 311.05 44.4504 311.05 44.1674Z" fill="#333333"/>
<path d="M87.8963 29V7.18182H92.5092V16.8018H92.7969L100.648 7.18182H106.178L98.081 16.951L106.273 29H100.755L94.7784 20.0298L92.5092 22.7997V29H87.8963ZM112.341 29H107.397L114.929 7.18182H120.874L128.395 29H123.452L117.987 12.1676H117.816L112.341 29ZM112.032 20.424H123.708V24.0249H112.032V20.424ZM144.498 7.18182H149.111V21.3509C149.111 22.9418 148.731 24.3338 147.971 25.527C147.218 26.7202 146.163 27.6506 144.807 28.3182C143.45 28.9787 141.87 29.3089 140.066 29.3089C138.255 29.3089 136.671 28.9787 135.315 28.3182C133.958 27.6506 132.903 26.7202 132.151 25.527C131.398 24.3338 131.021 22.9418 131.021 21.3509V7.18182H135.634V20.9567C135.634 21.7876 135.815 22.5263 136.178 23.1726C136.547 23.8189 137.065 24.3267 137.733 24.696C138.401 25.0653 139.178 25.25 140.066 25.25C140.961 25.25 141.739 25.0653 142.399 24.696C143.067 24.3267 143.582 23.8189 143.944 23.1726C144.313 22.5263 144.498 21.7876 144.498 20.9567V7.18182ZM152.906 29V7.18182H167.352V10.9851H157.519V16.1839H166.393V19.9872H157.519V29H152.906ZM170.455 7.18182H176.144L182.152 21.8409H182.408L188.417 7.18182H194.105V29H189.631V14.799H189.45L183.804 28.8935H180.757L175.11 14.7457H174.929V29H170.455V7.18182ZM201.667 29H196.724L204.256 7.18182H210.2L217.721 29H212.778L207.313 12.1676H207.143L201.667 29ZM201.358 20.424H213.034V24.0249H201.358V20.424ZM238.597 7.18182V29H234.612L225.12 15.2678H224.96V29H220.347V7.18182H224.396L233.813 20.9034H234.005V7.18182H238.597ZM260.657 7.18182V29H256.673L247.181 15.2678H247.021V29H242.408V7.18182H246.456L255.874 20.9034H256.066V7.18182H260.657Z" fill="#333333"/>
<path d="M267.036 29.277C266.333 29.277 265.729 29.0284 265.225 28.5312C264.728 28.027 264.479 27.4233 264.479 26.7202C264.479 26.0241 264.728 25.4276 265.225 24.9304C265.729 24.4332 266.333 24.1847 267.036 24.1847C267.718 24.1847 268.314 24.4332 268.826 24.9304C269.337 25.4276 269.593 26.0241 269.593 26.7202C269.593 27.1889 269.472 27.6186 269.231 28.0092C268.996 28.3928 268.687 28.7017 268.304 28.9361C267.92 29.1634 267.498 29.277 267.036 29.277ZM273.404 29V7.18182H282.012C283.66 7.18182 285.066 7.47656 286.231 8.06605C287.403 8.64844 288.294 9.47585 288.905 10.5483C289.523 11.6136 289.832 12.8672 289.832 14.3089C289.832 15.7578 289.519 17.0043 288.894 18.0483C288.269 19.0852 287.364 19.8807 286.178 20.4347C284.999 20.9886 283.571 21.2656 281.895 21.2656H276.131V17.5582H281.149C282.03 17.5582 282.761 17.4375 283.344 17.196C283.926 16.9545 284.359 16.5923 284.643 16.1094C284.935 15.6264 285.08 15.0263 285.08 14.3089C285.08 13.5845 284.935 12.9737 284.643 12.4766C284.359 11.9794 283.923 11.603 283.333 11.3473C282.751 11.0845 282.016 10.9531 281.128 10.9531H278.017V29H273.404ZM285.187 19.071L290.609 29H285.517L280.212 19.071H285.187ZM306.568 7.18182H311.181V21.3509C311.181 22.9418 310.801 24.3338 310.041 25.527C309.288 26.7202 308.234 27.6506 306.877 28.3182C305.521 28.9787 303.94 29.3089 302.136 29.3089C300.325 29.3089 298.741 28.9787 297.385 28.3182C296.028 27.6506 294.974 26.7202 294.221 25.527C293.468 24.3338 293.092 22.9418 293.092 21.3509V7.18182H297.705V20.9567C297.705 21.7876 297.886 22.5263 298.248 23.1726C298.617 23.8189 299.136 24.3267 299.803 24.696C300.471 25.0653 301.249 25.25 302.136 25.25C303.031 25.25 303.809 25.0653 304.469 24.696C305.137 24.3267 305.652 23.8189 306.014 23.1726C306.384 22.5263 306.568 21.7876 306.568 20.9567V7.18182Z" fill="#777777"/>
<path d="M5.65696 29H0.713778L8.24574 7.18182H14.1903L21.7116 29H16.7685L11.3033 12.1676H11.1328L5.65696 29ZM5.34801 20.424H17.0241V24.0249H5.34801V20.424ZM37.8143 7.18182H42.4272V21.3509C42.4272 22.9418 42.0472 24.3338 41.2873 25.527C40.5344 26.7202 39.4798 27.6506 38.1232 28.3182C36.7667 28.9787 35.1864 29.3089 33.3825 29.3089C31.5714 29.3089 29.9876 28.9787 28.631 28.3182C27.2745 27.6506 26.2198 26.7202 25.467 25.527C24.7141 24.3338 24.3377 22.9418 24.3377 21.3509V7.18182H28.9506V20.9567C28.9506 21.7876 29.1317 22.5263 29.494 23.1726C29.8633 23.8189 30.3817 24.3267 31.0494 24.696C31.717 25.0653 32.4947 25.25 33.3825 25.25C34.2773 25.25 35.055 25.0653 35.7156 24.696C36.3832 24.3267 36.8981 23.8189 37.2603 23.1726C37.6296 22.5263 37.8143 21.7876 37.8143 20.9567V7.18182ZM45.3915 10.9851V7.18182H63.3105V10.9851H56.6309V29H52.0712V10.9851H45.3915ZM85.3152 18.0909C85.3152 20.4702 84.8642 22.4943 83.9622 24.1634C83.0673 25.8324 81.8457 27.1072 80.2974 27.9879C78.7562 28.8615 77.0233 29.2983 75.0985 29.2983C73.1596 29.2983 71.4196 28.858 69.8784 27.9773C68.3372 27.0966 67.1191 25.8217 66.2243 24.1527C65.3294 22.4837 64.8819 20.4631 64.8819 18.0909C64.8819 15.7116 65.3294 13.6875 66.2243 12.0185C67.1191 10.3494 68.3372 9.07812 69.8784 8.20455C71.4196 7.32386 73.1596 6.88352 75.0985 6.88352C77.0233 6.88352 78.7562 7.32386 80.2974 8.20455C81.8457 9.07812 83.0673 10.3494 83.9622 12.0185C84.8642 13.6875 85.3152 15.7116 85.3152 18.0909ZM80.6383 18.0909C80.6383 16.5497 80.4075 15.25 79.9458 14.1918C79.4913 13.1335 78.8485 12.331 78.0176 11.7841C77.1866 11.2372 76.2136 10.9638 75.0985 10.9638C73.9835 10.9638 73.0105 11.2372 72.1795 11.7841C71.3485 12.331 70.7022 13.1335 70.2406 14.1918C69.786 15.25 69.5588 16.5497 69.5588 18.0909C69.5588 19.6321 69.786 20.9318 70.2406 21.9901C70.7022 23.0483 71.3485 23.8509 72.1795 24.3977C73.0105 24.9446 73.9835 25.218 75.0985 25.218C76.2136 25.218 77.1866 24.9446 78.0176 24.3977C78.8485 23.8509 79.4913 23.0483 79.9458 21.9901C80.4075 20.9318 80.6383 19.6321 80.6383 18.0909Z" fill="url(#paint0_linear_9_1706)"/>
<defs>
<linearGradient id="paint0_linear_9_1706" x1="43.5" y1="0" x2="43.5" y2="36" gradientUnits="userSpaceOnUse">
<stop stop-color="#F1D27A"/>
<stop offset="0.239583" stop-color="#EECA64"/>
<stop offset="0.59375" stop-color="#FCE194"/>
<stop offset="0.947917" stop-color="#E4BE51"/>
</linearGradient>
</defs>
</svg>
