<svg width="85" height="81" viewBox="0 0 85 81" fill="none" xmlns="http://www.w3.org/2000/svg">
<path d="M37.7519 0.789856C33.7344 2.43539 30.6133 6.08847 30.0156 9.84029L29.7832 11.1896H20.2539V10.2681C20.2539 9.77447 19.8555 8.58968 19.3906 7.63527C17.8633 4.57458 15.1738 2.99487 11.5879 2.96196C7.90233 2.96196 5.08006 4.80496 3.55272 8.19476C1.92577 11.8149 3.71874 18.1996 7.23827 21.4578C8.73241 22.84 10.5586 23.6957 11.9531 23.6957C12.9492 23.6628 15.207 22.4122 16.4023 21.1945C17.7637 19.8122 19.125 17.4097 19.7558 15.3035L20.1543 13.987L29.7832 13.7896L29.9492 15.0731C30.4473 18.6274 34.0664 22.9387 37.7519 24.3868C39.2129 24.9463 40.3418 25.1437 42.5 25.1437C44.6582 25.1437 45.7871 24.9463 47.248 24.3868C50.9336 22.9387 54.3867 18.8249 54.9844 15.1718L55.2168 13.7896L64.8457 13.987L65.2441 15.3035C66.3066 18.8249 68.6973 21.9514 71.1875 23.0704C72.7812 23.7944 73.1133 23.7944 74.8398 23.3337C76.7988 22.8071 79.1894 20.3717 80.584 17.4756C81.6133 15.4022 81.8457 14.5136 81.9453 12.3086C82.1113 9.34663 81.5801 7.66819 79.8867 5.69355C76.7988 2.07337 69.959 2.07337 66.8711 5.69355C65.709 7.04288 64.7793 9.11625 64.7461 10.2681V11.1896H55.2168L54.9844 9.80738C54.4863 6.71378 51.0332 2.13919 49.373 2.36957C48.1777 2.53412 48.2441 3.85055 49.4726 5.10115C50.0703 5.69355 50.4355 6.35176 50.3359 6.54922C50.2031 6.74669 49.3066 6.91124 48.3105 6.91124C46.7832 6.91124 46.4512 7.04288 45.8535 7.76692C44.791 9.11626 44.957 10.2681 46.3848 11.6504C47.082 12.3086 47.7461 12.8352 47.8789 12.8352C48.4433 12.8352 48.4433 14.2832 47.8125 16.949C47.4473 18.5287 47.082 20.273 47.0488 20.8325C46.9824 21.6552 46.75 21.9185 45.8203 22.2476C45.1894 22.478 43.8281 22.6754 42.832 22.6754C41.1387 22.7084 40.9394 22.6425 40.5742 21.7869C40.3418 21.2932 39.9101 20.4704 39.6113 19.9439C39.1133 19.0553 39.1465 18.8578 39.6445 17.4097C40.3086 15.6655 40.1094 15.0073 38.6484 13.8554L37.7851 13.1972L38.6484 12.0782C39.9766 10.3669 39.8437 8.49095 38.3496 7.14161C37.6855 6.54922 37.1211 5.62772 36.9883 5.00242C36.789 3.98219 36.8223 3.91637 38.3828 3.22525C39.3789 2.79741 41.0391 2.4683 42.666 2.33666C44.8574 2.1721 45.3223 2.04046 45.4219 1.5468C45.6543 0.362017 44.8906 0 42.2012 0C40.3086 0 39.1797 0.197464 37.7519 0.789856ZM14.1113 5.89101C18.0293 7.63528 18.8926 11.7162 16.4355 16.6857C13.5469 22.478 9.7285 22.5109 6.83983 16.7844C5.51171 14.1187 5.04686 11.4858 5.64452 9.74156C6.4746 7.24035 9.09764 5.26571 11.6211 5.26571C12.2519 5.26571 13.3808 5.5619 14.1113 5.89101ZM75.8691 5.89101C79.7871 7.63528 80.6504 11.8149 78.1601 16.7844C75.2715 22.5109 71.4531 22.478 68.5644 16.6857C66.6387 12.8023 66.6719 9.8732 68.664 7.50363C69.7265 6.25303 71.8184 5.26571 73.3789 5.26571C74.0098 5.26571 75.1387 5.5619 75.8691 5.89101ZM34.9961 7.07579C35.0957 7.50363 35.6601 8.22767 36.1914 8.62259C36.7558 9.01752 37.1875 9.51118 37.1875 9.70865C37.1875 10.1694 35.9258 11.3542 35.0957 11.6175C34.2988 11.9137 33.8008 13.2959 34.1992 14.2832C34.5644 15.2376 35.4609 15.7971 36.6894 15.7971C37.4199 15.7971 37.5527 15.8959 37.3203 16.3566C37.1875 16.6857 36.9883 17.9034 36.8887 19.0882L36.6894 21.2274L35.3281 19.878C33.1367 17.7059 32.373 15.7971 32.373 12.5061C32.373 10.1036 32.5058 9.47827 33.3027 7.96438C34.2988 6.05556 34.6973 5.8581 34.9961 7.07579ZM52.6933 11.5187C52.793 12.6048 52.6933 14.1516 52.4941 15.0402C52.0957 16.5541 50.2031 19.9439 49.9043 19.6477C49.8379 19.5489 50.0039 18.4958 50.3027 17.311C51.166 13.5263 51.0332 12.6048 49.3066 10.9593C48.4766 10.2023 47.8125 9.47827 47.8125 9.37954C47.8125 9.28081 48.3105 9.2479 48.9082 9.34663C49.4726 9.44536 50.4355 9.34663 50.9668 9.08334C52.2285 8.55677 52.4609 8.85297 52.6933 11.5187Z" fill="url(#paint0_linear_10_2387)"/>
<path d="M9.09766 9.01753C8.23438 9.8732 7.96875 10.3998 7.96875 11.3213C7.96875 13.7896 9.36328 15.1389 11.9531 15.1389C13.8457 15.1389 15.2734 13.6579 15.2734 11.6175C15.2734 10.3669 15.1074 9.97193 14.1445 9.01753C13.2148 8.09603 12.75 7.89856 11.6211 7.89856C10.4922 7.89856 10.0273 8.09603 9.09766 9.01753ZM12.418 10.7289C13.3145 11.6175 12.8164 12.8352 11.5547 12.8352C11.0566 12.8352 10.293 11.9466 10.293 11.3871C10.293 11.1238 11.3223 10.2023 11.6211 10.2023C11.7871 10.2023 12.1523 10.4327 12.418 10.7289Z" fill="url(#paint1_linear_10_2387)"/>
<path d="M70.8555 9.01752C67.7012 12.144 71.3535 16.7186 75.3379 14.6782C76.4336 14.1187 77.0312 12.901 77.0312 11.3213C77.0312 9.54409 75.2715 7.89856 73.3789 7.89856C72.25 7.89856 71.7852 8.09602 70.8555 9.01752ZM74.1758 10.7289C74.8066 11.3213 74.8066 11.3871 74.375 12.2099C73.8105 13.2301 72.0508 12.8022 72.0508 11.6504C72.0508 11.1896 72.9473 10.2023 73.3789 10.2023C73.5449 10.2023 73.9101 10.4327 74.1758 10.7289Z" fill="url(#paint2_linear_10_2387)"/>
<path d="M0.597656 28.007C0.0996094 28.2703 0 28.8297 0 31.2651C0 33.9638 0.0664062 34.2271 0.730469 34.5891C1.79297 35.1486 2.65625 33.9638 2.65625 31.8904V30.2778H58.4375L58.3711 48.9382L58.2715 67.6314L42.1016 67.7302L25.9648 67.796L25.3008 66.7428C24.9023 66.1504 24.0723 65.1631 23.4414 64.5378C22.3789 63.5176 22.3125 63.353 22.7441 62.7277C23.1758 62.1683 23.2422 59.8645 23.2422 48.7736C23.2422 39.6574 23.1426 35.2802 22.877 34.7866C21.9473 33.0094 19.623 32.3841 17.6309 33.3714C15.9707 34.2271 15.9375 34.5891 15.9375 48.8723C15.9375 61.7075 15.9043 62.2012 15.3066 62.2012C13.4473 62.2012 9.89453 64.6036 8.79883 66.6112L8.13477 67.796H2.65625V53.6115C2.65625 44.4952 2.52344 39.2295 2.32422 38.8017C1.89258 38.0447 0.498047 37.9789 0.199219 38.7029C-0.0664062 39.3612 -0.0664062 74.1806 0.199219 74.8389C0.365234 75.2667 1.0625 75.3654 4.34961 75.3654C6.50781 75.3654 8.30078 75.4971 8.30078 75.6616C8.30078 75.7933 8.83203 76.616 9.46289 77.4388C10.2266 78.4261 11.2891 79.2489 12.6504 79.94C17.2324 82.2109 22.6113 80.7299 25.2344 76.4844L25.9648 75.3654H59.0352L59.7656 76.4844C61.5254 79.3476 64.4473 80.9273 67.9336 80.9603C71.0215 80.9603 73.8438 79.6438 75.5371 77.4388C76.168 76.616 76.6992 75.7933 76.6992 75.6616C76.6992 75.4971 78.3926 75.3654 80.4512 75.3654C82.9414 75.3654 84.3359 75.2338 84.6016 74.9705C84.9004 74.6743 85 71.8769 85 64.472C85 56.0469 84.9336 54.3026 84.502 53.9735C83.7383 53.3482 82.875 53.7431 82.543 54.895C82.2441 55.9152 82.2109 55.9481 80.3184 55.9481C77.6621 55.9481 77.3633 56.3102 77.3633 59.6012C77.3633 63.2543 77.5625 63.5176 80.1856 63.5176H82.3438V67.796H76.8652L76.2012 66.6112C75.4375 65.196 73.3789 63.4518 71.5527 62.6948C68.6973 61.51 63.6172 62.2999 61.8906 64.2087C61.5918 64.5378 61.1934 64.834 61.0273 64.834C60.8945 64.834 60.7617 58.5481 60.7617 50.847V36.86H66.0742C69.8926 36.86 71.7188 36.9916 72.4824 37.3207C74.0762 37.9789 81.9121 46.0091 82.1777 47.2268C82.6758 49.6951 82.9082 50.1888 83.4395 50.2875C85 50.5837 85.4981 48.3129 84.3691 45.9104C84.0039 45.1205 81.7793 42.6522 78.791 39.7232C76.0684 37.0574 73.7773 34.8524 73.6777 34.8195C73.6113 34.7866 70.7227 34.6878 67.2363 34.5891L60.9277 34.3917L60.8281 31.4297C60.7617 29.1259 60.6289 28.369 60.1973 28.0399C59.4668 27.5133 1.49414 27.4804 0.597656 28.007ZM20.5195 35.6093C20.8184 35.9055 20.918 39.1966 20.918 48.4116C20.918 55.257 20.8184 61.0493 20.7188 61.3455C20.4863 61.9708 19.2246 62.0366 18.6602 61.4771C18.1289 60.9506 18.0957 36.827 18.5938 35.8397C18.9922 35.1486 19.9219 35.017 20.5195 35.6093ZM82.3438 59.7329C82.3438 60.8189 82.2774 60.8847 81.1816 60.8847C80.0859 60.8847 80.0195 60.8189 80.0195 59.7329C80.0195 58.6468 80.0859 58.581 81.1816 58.581C82.2774 58.581 82.3438 58.6468 82.3438 59.7329ZM20.2871 65.4264C22.8105 66.7099 24.0391 68.7504 24.0391 71.5149C24.0059 73.7528 23.5078 75.0034 22.0137 76.4844C17.5977 80.9273 9.99414 77.8666 9.96094 71.6465C9.92774 66.1834 15.4062 62.8923 20.2871 65.4264ZM70.6562 65.0315C75.5039 67.039 76.5664 73.6212 72.582 76.9122C69.627 79.3147 65.6426 79.1502 62.9863 76.4844C61.4922 75.0363 60.9941 73.7528 60.9609 71.5478C60.9277 69.8694 61.0938 69.3099 61.9238 67.9605C63.75 65.0315 67.5684 63.748 70.6562 65.0315ZM7.30469 73.0617H2.65625V70.0997H7.30469V73.0617ZM58.4375 73.0617H26.5625V70.0997H58.4375V73.0617ZM82.3438 73.0617H77.6953V70.0997H82.3438V73.0617Z" fill="url(#paint3_linear_10_2387)"/>
<path d="M14.9414 68.3555C13.2148 69.5403 12.6836 71.12 13.4141 72.8642C14.3437 75.1021 16.7676 75.9907 18.9258 74.8718C21.3828 73.6212 21.5156 69.9352 19.1914 68.3226C18.1953 67.6314 15.9707 67.6643 14.9414 68.3555ZM18.1621 70.9554C18.5605 71.5807 18.5273 71.7453 17.9629 72.4364C17.4316 73.1275 17.2324 73.1604 16.4687 72.7984C15.4395 72.3377 15.2734 70.9883 16.2031 70.4617C17 69.9681 17.5977 70.1326 18.1621 70.9554Z" fill="url(#paint4_linear_10_2387)"/>
<path d="M65.8086 68.3226C63.4844 69.9352 63.6172 73.6212 66.0742 74.8718C68.2656 75.9907 70.6563 75.1021 71.6191 72.8313C72.3164 71.1529 71.5527 69.0795 69.9922 68.2567C68.7969 67.6314 66.7383 67.6643 65.8086 68.3226ZM68.7637 70.4288C69.627 70.8896 69.5938 72.2718 68.6973 72.7326C67.3359 73.4895 66.041 72.0744 66.9375 70.8238C67.502 70.001 67.834 69.9352 68.7637 70.4288Z" fill="url(#paint5_linear_10_2387)"/>
<path d="M6.70703 33.4372C5.01367 34.5891 4.98047 34.8853 4.98047 48.5432C4.98047 59.6341 5.04688 61.4113 5.51172 62.3986C6.83984 65.196 10.7578 65.1302 12.1191 62.3328C12.8496 60.786 12.8496 36.3005 12.1191 34.8853C11.4219 33.536 10.3594 32.9107 8.79883 32.9107C8.06836 32.9107 7.10547 33.141 6.70703 33.4372ZM9.5957 35.6752C9.86133 35.9714 9.92773 39.7232 9.89453 48.9052L9.79492 61.7075H7.80273L7.70313 48.9052C7.63672 36.0043 7.70313 35.2144 8.79883 35.2144C9.03125 35.2144 9.39648 35.4119 9.5957 35.6752Z" fill="url(#paint6_linear_10_2387)"/>
<path d="M28.123 33.6018C26.6289 34.7537 26.5293 35.7739 26.6289 49.4318L26.7285 62.1683L27.6914 63.1556C28.9199 64.4391 30.5801 64.7682 32.0742 64.0771C34.2324 63.0568 34.2324 63.0239 34.1328 48.1812L34.0332 34.8195L32.9375 33.8651C31.5762 32.6803 29.4512 32.5487 28.123 33.6018ZM31.1445 35.4777C31.4433 35.7081 31.5429 38.5713 31.4765 48.7407L31.3769 61.7075H29.3847L29.2851 48.9053C29.2187 36.103 29.2851 35.2144 30.3476 35.2144C30.5469 35.2144 30.9121 35.3461 31.1445 35.4777Z" fill="url(#paint7_linear_10_2387)"/>
<path d="M38.6484 34.0296L37.5195 35.1486V48.4116C37.5195 60.8518 37.5527 61.7733 38.1504 62.7277C39.8437 65.4922 43.8945 64.7682 44.8242 61.5101C45.2891 59.9962 45.2558 37.0574 44.8242 35.4777C44.3262 33.7993 43.0976 32.9107 41.2715 32.9107C40.0098 32.9107 39.6113 33.0752 38.6484 34.0296ZM42.1348 35.6752C42.4004 35.9714 42.4668 39.7232 42.4336 48.9053L42.334 61.7075L41.5371 61.8063C39.8769 62.0366 39.8437 61.7075 39.8437 48.6091C39.8437 40.8751 39.9766 36.2676 40.1758 35.8397C40.5742 35.1157 41.6035 35.017 42.1348 35.6752Z" fill="url(#paint8_linear_10_2387)"/>
<path d="M49.7051 33.5689C49.207 33.9638 48.6758 34.8195 48.4765 35.4777C48.0117 37.1562 48.0117 60.5227 48.5098 61.7733C49.6719 64.8669 53.5234 65.3935 55.1504 62.7277C55.748 61.7733 55.7812 60.8518 55.7812 48.4116V35.1486L54.6523 34.0296C53.6894 33.0752 53.291 32.9107 52.0293 32.9107C51.0664 32.9107 50.2695 33.1411 49.7051 33.5689ZM53.125 35.8397C53.3242 36.2676 53.457 40.8751 53.457 48.6091C53.457 61.7075 53.4238 62.0366 51.7637 61.8062L50.9668 61.7075L50.8672 48.9053C50.834 39.7232 50.9004 35.9714 51.166 35.6752C51.6973 35.017 52.7265 35.1157 53.125 35.8397Z" fill="url(#paint9_linear_10_2387)"/>
<path d="M64.1152 40.3485C63.4844 41.1713 63.418 41.6649 63.418 46.5357C63.4512 52.0647 63.5508 52.4925 64.9785 53.2495C66.0742 53.8419 76.7324 53.776 78.1601 53.1837C79.5215 52.6242 80.1523 51.1761 79.9199 49.1356C79.7539 47.6876 79.5215 47.3914 75.6367 43.5408L71.4863 39.4928H68.1328C64.9121 39.4928 64.7793 39.5257 64.1152 40.3485ZM73.7773 45.318C76.8652 48.3787 77.3633 49.004 77.3633 49.9255V51.0116H65.7422V46.6344C65.7422 44.199 65.8418 42.1257 65.9746 42.0269C66.0742 41.8953 67.1035 41.7966 68.1992 41.7966H70.2246L73.7773 45.318Z" fill="url(#paint10_linear_10_2387)"/>
<path d="M63.8164 56.3431C63.584 56.5734 63.418 56.9684 63.418 57.2646C63.418 58.1532 64.1484 58.581 65.7754 58.581C67.9336 58.581 68.3984 58.3506 68.3984 57.2646C68.3984 56.738 68.166 56.2772 67.8672 56.1456C66.9707 55.8165 64.2148 55.9481 63.8164 56.3431Z" fill="url(#paint11_linear_10_2387)"/>
<defs>
<linearGradient id="paint0_linear_10_2387" x1="42.5" y1="0" x2="42.5" y2="81" gradientUnits="userSpaceOnUse">
<stop stop-color="#F1D27A"/>
<stop offset="0.239583" stop-color="#EECA64"/>
<stop offset="0.59375" stop-color="#FCE194"/>
<stop offset="0.947917" stop-color="#E4BE51"/>
</linearGradient>
<linearGradient id="paint1_linear_10_2387" x1="42.5" y1="0" x2="42.5" y2="81" gradientUnits="userSpaceOnUse">
<stop stop-color="#F1D27A"/>
<stop offset="0.239583" stop-color="#EECA64"/>
<stop offset="0.59375" stop-color="#FCE194"/>
<stop offset="0.947917" stop-color="#E4BE51"/>
</linearGradient>
<linearGradient id="paint2_linear_10_2387" x1="42.5" y1="0" x2="42.5" y2="81" gradientUnits="userSpaceOnUse">
<stop stop-color="#F1D27A"/>
<stop offset="0.239583" stop-color="#EECA64"/>
<stop offset="0.59375" stop-color="#FCE194"/>
<stop offset="0.947917" stop-color="#E4BE51"/>
</linearGradient>
<linearGradient id="paint3_linear_10_2387" x1="42.5" y1="0" x2="42.5" y2="81" gradientUnits="userSpaceOnUse">
<stop stop-color="#F1D27A"/>
<stop offset="0.239583" stop-color="#EECA64"/>
<stop offset="0.59375" stop-color="#FCE194"/>
<stop offset="0.947917" stop-color="#E4BE51"/>
</linearGradient>
<linearGradient id="paint4_linear_10_2387" x1="42.5" y1="0" x2="42.5" y2="81" gradientUnits="userSpaceOnUse">
<stop stop-color="#F1D27A"/>
<stop offset="0.239583" stop-color="#EECA64"/>
<stop offset="0.59375" stop-color="#FCE194"/>
<stop offset="0.947917" stop-color="#E4BE51"/>
</linearGradient>
<linearGradient id="paint5_linear_10_2387" x1="42.5" y1="0" x2="42.5" y2="81" gradientUnits="userSpaceOnUse">
<stop stop-color="#F1D27A"/>
<stop offset="0.239583" stop-color="#EECA64"/>
<stop offset="0.59375" stop-color="#FCE194"/>
<stop offset="0.947917" stop-color="#E4BE51"/>
</linearGradient>
<linearGradient id="paint6_linear_10_2387" x1="42.5" y1="0" x2="42.5" y2="81" gradientUnits="userSpaceOnUse">
<stop stop-color="#F1D27A"/>
<stop offset="0.239583" stop-color="#EECA64"/>
<stop offset="0.59375" stop-color="#FCE194"/>
<stop offset="0.947917" stop-color="#E4BE51"/>
</linearGradient>
<linearGradient id="paint7_linear_10_2387" x1="42.5" y1="0" x2="42.5" y2="81" gradientUnits="userSpaceOnUse">
<stop stop-color="#F1D27A"/>
<stop offset="0.239583" stop-color="#EECA64"/>
<stop offset="0.59375" stop-color="#FCE194"/>
<stop offset="0.947917" stop-color="#E4BE51"/>
</linearGradient>
<linearGradient id="paint8_linear_10_2387" x1="42.5" y1="0" x2="42.5" y2="81" gradientUnits="userSpaceOnUse">
<stop stop-color="#F1D27A"/>
<stop offset="0.239583" stop-color="#EECA64"/>
<stop offset="0.59375" stop-color="#FCE194"/>
<stop offset="0.947917" stop-color="#E4BE51"/>
</linearGradient>
<linearGradient id="paint9_linear_10_2387" x1="42.5" y1="0" x2="42.5" y2="81" gradientUnits="userSpaceOnUse">
<stop stop-color="#F1D27A"/>
<stop offset="0.239583" stop-color="#EECA64"/>
<stop offset="0.59375" stop-color="#FCE194"/>
<stop offset="0.947917" stop-color="#E4BE51"/>
</linearGradient>
<linearGradient id="paint10_linear_10_2387" x1="42.5" y1="0" x2="42.5" y2="81" gradientUnits="userSpaceOnUse">
<stop stop-color="#F1D27A"/>
<stop offset="0.239583" stop-color="#EECA64"/>
<stop offset="0.59375" stop-color="#FCE194"/>
<stop offset="0.947917" stop-color="#E4BE51"/>
</linearGradient>
<linearGradient id="paint11_linear_10_2387" x1="42.5" y1="0" x2="42.5" y2="81" gradientUnits="userSpaceOnUse">
<stop stop-color="#F1D27A"/>
<stop offset="0.239583" stop-color="#EECA64"/>
<stop offset="0.59375" stop-color="#FCE194"/>
<stop offset="0.947917" stop-color="#E4BE51"/>
</linearGradient>
</defs>
</svg>
