<svg width="75" height="75" viewBox="0 0 75 75" fill="none" xmlns="http://www.w3.org/2000/svg">
<path d="M2.13997 0.439445C1.61263 0.673816 0.90952 1.28904 0.58726 1.81637C0.00133333 2.78315 0.00133331 3.2226 0.00133331 37.4407C0.00133331 75.7018 -0.115852 73.2116 1.847 74.4128C2.75519 74.9694 3.5169 74.9987 28.7411 74.9987H54.6976L55.6937 74.3249C57.3636 73.2116 57.4222 72.9186 57.4222 65.1258C57.4222 58.3291 57.3929 58.0068 56.8363 57.7138C56.4261 57.4795 56.0746 57.4795 55.6644 57.7138C55.1078 58.0068 55.0785 58.3291 55.0785 64.6864C55.0785 69.5789 54.9906 71.5124 54.7269 71.864C54.3754 72.3327 52.5297 72.362 28.5653 72.3034L2.78449 72.2155V2.78315L28.536 2.69527C46.3189 2.66597 54.4047 2.72456 54.6097 2.92964C54.8148 3.13471 54.9906 7.49987 55.0785 15.5857C55.225 26.9234 55.2543 27.9487 55.7523 28.2417C56.1039 28.4761 56.3968 28.4761 56.7777 28.2417C57.2464 27.9487 57.2757 26.9527 57.3343 15.3513C57.4222 1.6113 57.4515 1.84567 55.6937 0.673816L54.6976 0H28.8875C7.38402 0.0292964 2.93097 0.087889 2.13997 0.439445Z" fill="url(#paint0_linear_10_2395)"/>
<path d="M11.4269 8.17367C11.2804 8.49593 11.1339 9.90215 11.1339 11.2791C11.1339 15.3806 9.05391 14.9411 28.7411 14.9411H45.7037L46.0552 14.2087C46.2896 13.6521 46.2896 13.3884 45.9966 13.0369C45.6744 12.656 43.6529 12.5974 29.7078 12.5974H13.7706V9.96074H45.7037L46.0552 9.22833C46.2896 8.6717 46.2896 8.40804 45.9966 8.05648C45.6744 7.67563 43.5357 7.61703 28.6825 7.61703C12.2179 7.61703 11.7199 7.64633 11.4269 8.17367Z" fill="url(#paint1_linear_10_2395)"/>
<path d="M69.8438 15.3513C69.3458 15.5856 68.5841 16.2302 68.1447 16.7868C67.7052 17.3434 67.0021 17.8708 66.5627 17.9587C65.9181 18.1051 65.4494 18.6911 64.1603 20.9469C62.9592 23.0269 62.4612 23.7007 62.1096 23.5543C60.6741 22.939 59.4729 23.232 59.4729 24.1988C59.4729 24.6382 60.3518 25.6343 60.9377 25.8394C61.1428 25.898 59.2093 29.5014 55.9574 35.1556C51.9145 42.1282 50.3032 45.2043 49.3364 47.8116C48.6333 49.7159 47.6372 52.0596 47.1392 53.0557C46.2603 54.8428 46.1138 56.1318 46.6704 57.4209C46.8169 57.7138 46.3775 58.4755 45.5279 59.5595L44.1802 61.2587L43.5064 59.7939C42.4517 57.538 40.7819 57.04 39.2584 58.5341L38.4381 59.3544L38.2624 57.8896C38.1745 57.0693 38.0866 55.8974 38.0866 55.2822C38.0866 53.085 35.5964 51.6495 34.0144 52.9385C33.6042 53.2901 32.8132 55.2236 31.6707 58.6513C30.0008 63.661 29.9422 63.8661 30.4402 64.4813C30.7918 64.9207 31.1141 65.0672 31.5535 64.9207C32.2859 64.6863 32.2566 64.8035 33.9851 59.4716C35.5085 54.8428 35.4792 54.8428 35.8894 59.0322C36.0651 60.8485 36.5632 61.6981 37.7057 62.1376C38.526 62.4598 40.0494 61.9325 40.4596 61.2001C40.8697 60.4091 41.1334 60.497 41.5729 61.6688C41.7486 62.2255 42.276 62.9579 42.6861 63.2801C44.1509 64.4227 45.2935 63.9539 47.4028 61.2294C48.8676 59.3837 49.0434 59.2372 50.1274 59.2372C51.7387 59.2079 52.4711 58.6513 53.9945 56.3369C54.7269 55.2236 56.221 53.2608 57.305 51.9424C58.7405 50.2725 60.8792 46.8156 64.5705 40.3704C67.4708 35.3314 69.8731 31.142 69.9024 31.0834C70.0782 30.8783 71.5137 31.9623 71.6895 32.3725C71.7774 32.6068 70.7227 34.7455 69.3458 37.1185C65.9181 43.1242 66.1232 42.5969 66.7384 43.3586C67.1193 43.8273 67.4415 43.9738 67.8517 43.8273C68.7306 43.5637 74.1211 34.0717 74.1211 32.8412C74.1211 31.5522 73.418 30.3217 72.2461 29.5014L71.2501 28.8276L72.8321 26.0737C74.3848 23.3199 74.6777 22.4703 74.1504 22.1187C73.9746 22.0308 74.0918 21.4449 74.4141 20.7125C74.7363 20.0387 75 19.1598 75 18.7497C75 17.6071 74.0332 16.0544 72.92 15.4685C71.7481 14.8532 71.0743 14.8239 69.8438 15.3513ZM71.8946 17.7536C72.4219 17.9587 72.5098 19.1012 72.0704 19.9508C71.7481 20.5367 71.4258 20.4781 70.1954 19.5407C69.6388 19.1305 69.6388 19.0719 70.1075 18.3395C70.6348 17.5778 71.045 17.4313 71.8946 17.7536ZM69.5216 22.1187L71.5137 23.2027L70.4298 25.1656C69.8438 26.2202 69.2579 27.2163 69.1407 27.3335C68.8771 27.6558 64.8635 25.2535 64.9806 24.814C65.1857 24.0816 67.1486 20.8004 67.3243 20.9176C67.4415 20.9762 68.4376 21.5035 69.5216 22.1187ZM67.4708 29.5893C67.7345 29.8237 58.0667 46.8742 57.6858 46.8742C57.1585 46.8742 53.6137 44.6476 53.6723 44.3547C53.7308 44.1789 55.9281 40.2532 58.594 35.6537L63.4279 27.2749L65.3322 28.3296C66.3869 28.9155 67.3537 29.4721 67.4708 29.5893ZM55.9281 48.8956C56.2796 49.1007 56.0453 49.5108 54.932 50.8585C54.141 51.8252 53.4086 52.7041 53.2914 52.8213C53.1449 53.0264 50.684 51.7667 50.684 51.4737C50.684 51.4151 51.1235 50.2725 52.1195 47.6652L52.4418 46.8449L53.9652 47.7531C54.8148 48.2511 55.6937 48.7784 55.9281 48.8956ZM51.2407 56.0146C50.0102 57.7431 48.1352 56.3076 49.2778 54.4912C49.6294 53.9346 49.6586 53.9346 50.7426 54.5498L51.8266 55.165L51.2407 56.0146Z" fill="url(#paint2_linear_10_2395)"/>
<path d="M15.2354 18.1637C15.0011 18.5739 15.0011 18.9255 15.2354 19.3356C15.5577 19.9215 15.7921 19.9215 28.7704 19.8629C40.9869 19.775 42.0123 19.7458 42.3053 19.2477C42.5396 18.8962 42.5396 18.6032 42.3053 18.2223C42.0123 17.7536 40.9869 17.7243 28.7704 17.6364C15.7921 17.5778 15.5577 17.5778 15.2354 18.1637Z" fill="url(#paint3_linear_10_2395)"/>
<path d="M20.2158 26.9526C19.9814 27.3628 19.9814 27.7143 20.2158 28.1245C20.5088 28.7104 20.831 28.7104 35.0105 28.7104C49.1899 28.7104 49.5122 28.7104 49.8051 28.1245C50.0395 27.7143 50.0395 27.3628 49.8051 26.9526C49.5122 26.3667 49.1899 26.3667 35.0105 26.3667C20.831 26.3667 20.5088 26.3667 20.2158 26.9526Z" fill="url(#paint4_linear_10_2395)"/>
<path d="M9.31757 34.0131C8.61445 34.3939 8.64375 35.6537 9.34686 36.0345C9.72772 36.2103 14.4444 36.3275 22.6474 36.3275C34.6003 36.3275 35.3913 36.2982 35.8308 35.8001C36.4753 35.097 36.446 34.7748 35.8015 34.1888C35.3034 33.7494 33.9558 33.6908 22.5302 33.6908C14.4444 33.6908 9.63983 33.808 9.31757 34.0131Z" fill="url(#paint5_linear_10_2395)"/>
<path d="M39.1706 34.2181C38.5261 34.9212 38.5554 35.2435 39.2292 35.8587C39.6979 36.2689 40.401 36.3275 44.5318 36.2689C48.9556 36.181 49.3364 36.1517 49.688 35.595C50.0395 35.0677 50.0102 34.8919 49.6294 34.3353C49.1899 33.7201 49.0142 33.6908 44.4146 33.6908C40.1667 33.6908 39.5807 33.7494 39.1706 34.2181Z" fill="url(#paint6_linear_10_2395)"/>
<path d="M9.14178 40.4875C8.67304 40.9563 8.70234 41.7473 9.20038 42.1574C9.46404 42.3918 11.632 42.4797 16.4073 42.4211C22.5302 42.3332 23.2626 42.2746 23.5556 41.8059C23.79 41.4543 23.79 41.1614 23.5556 40.7805C23.2626 40.3411 22.5302 40.2825 16.378 40.1946C11.2804 40.136 9.40545 40.2239 9.14178 40.4875Z" fill="url(#paint7_linear_10_2395)"/>
<path d="M26.5731 40.3118C26.2216 40.6633 26.3388 41.8059 26.7782 42.1574C27.0419 42.3918 28.7118 42.4797 32.0808 42.4211C36.3874 42.3332 37.0319 42.2746 37.3249 41.8059C37.5593 41.4543 37.5593 41.1614 37.3249 40.7805C37.0319 40.3411 36.3874 40.2825 31.8758 40.1946C29.0633 40.1653 26.6903 40.2239 26.5731 40.3118Z" fill="url(#paint8_linear_10_2395)"/>
<path d="M13.4777 49.0421C9.43476 49.921 6.56372 52.6163 5.42116 56.6591C4.36649 60.2626 5.59694 64.5106 8.38009 67.0886C14.6495 72.86 24.6982 69.4324 26.0458 61.0243C26.3095 59.2958 26.1337 58.5048 25.372 58.2119C24.5517 57.8896 23.8193 58.7978 23.6435 60.3505C23.2919 63.2801 21.1533 65.9754 18.3702 67.0008C17.8428 67.1765 16.5831 67.3523 15.4991 67.3523C12.3058 67.4109 9.55195 65.5945 8.17502 62.577C7.55979 61.2001 7.4719 58.0947 7.99924 56.6299C8.64376 54.8721 10.1086 53.2022 11.7492 52.294C13.0968 51.5323 13.6534 51.4151 15.5284 51.4151C17.3741 51.4151 18.0186 51.5616 19.3076 52.2061C21.124 53.1729 21.8564 53.2315 22.2666 52.4698C22.706 51.6495 22.3545 51.0635 20.9775 50.2725C18.6631 48.9249 15.9971 48.5148 13.4777 49.0421Z" fill="url(#paint9_linear_10_2395)"/>
<path d="M17.6963 58.0654L15.2354 60.4677L13.6827 58.9443C12.1007 57.3916 11.5148 57.1572 10.8996 57.7724C10.2551 58.4169 10.5187 59.1786 11.925 60.6728C13.5949 62.4598 14.7374 63.1044 15.7921 62.8407C16.8175 62.6063 21.6806 57.7724 21.6806 56.9814C21.6806 56.2783 21.1533 55.6631 20.5674 55.6631C20.333 55.6631 19.044 56.747 17.6963 58.0654Z" fill="url(#paint10_linear_10_2395)"/>
<defs>
<linearGradient id="paint0_linear_10_2395" x1="37.5" y1="0" x2="37.5" y2="74.9987" gradientUnits="userSpaceOnUse">
<stop stop-color="#F1D27A"/>
<stop offset="0.239583" stop-color="#EECA64"/>
<stop offset="0.59375" stop-color="#FCE194"/>
<stop offset="0.947917" stop-color="#E4BE51"/>
</linearGradient>
<linearGradient id="paint1_linear_10_2395" x1="37.5" y1="0" x2="37.5" y2="74.9987" gradientUnits="userSpaceOnUse">
<stop stop-color="#F1D27A"/>
<stop offset="0.239583" stop-color="#EECA64"/>
<stop offset="0.59375" stop-color="#FCE194"/>
<stop offset="0.947917" stop-color="#E4BE51"/>
</linearGradient>
<linearGradient id="paint2_linear_10_2395" x1="37.5" y1="0" x2="37.5" y2="74.9987" gradientUnits="userSpaceOnUse">
<stop stop-color="#F1D27A"/>
<stop offset="0.239583" stop-color="#EECA64"/>
<stop offset="0.59375" stop-color="#FCE194"/>
<stop offset="0.947917" stop-color="#E4BE51"/>
</linearGradient>
<linearGradient id="paint3_linear_10_2395" x1="37.5" y1="0" x2="37.5" y2="74.9987" gradientUnits="userSpaceOnUse">
<stop stop-color="#F1D27A"/>
<stop offset="0.239583" stop-color="#EECA64"/>
<stop offset="0.59375" stop-color="#FCE194"/>
<stop offset="0.947917" stop-color="#E4BE51"/>
</linearGradient>
<linearGradient id="paint4_linear_10_2395" x1="37.5" y1="0" x2="37.5" y2="74.9987" gradientUnits="userSpaceOnUse">
<stop stop-color="#F1D27A"/>
<stop offset="0.239583" stop-color="#EECA64"/>
<stop offset="0.59375" stop-color="#FCE194"/>
<stop offset="0.947917" stop-color="#E4BE51"/>
</linearGradient>
<linearGradient id="paint5_linear_10_2395" x1="37.5" y1="0" x2="37.5" y2="74.9987" gradientUnits="userSpaceOnUse">
<stop stop-color="#F1D27A"/>
<stop offset="0.239583" stop-color="#EECA64"/>
<stop offset="0.59375" stop-color="#FCE194"/>
<stop offset="0.947917" stop-color="#E4BE51"/>
</linearGradient>
<linearGradient id="paint6_linear_10_2395" x1="37.5" y1="0" x2="37.5" y2="74.9987" gradientUnits="userSpaceOnUse">
<stop stop-color="#F1D27A"/>
<stop offset="0.239583" stop-color="#EECA64"/>
<stop offset="0.59375" stop-color="#FCE194"/>
<stop offset="0.947917" stop-color="#E4BE51"/>
</linearGradient>
<linearGradient id="paint7_linear_10_2395" x1="37.5" y1="0" x2="37.5" y2="74.9987" gradientUnits="userSpaceOnUse">
<stop stop-color="#F1D27A"/>
<stop offset="0.239583" stop-color="#EECA64"/>
<stop offset="0.59375" stop-color="#FCE194"/>
<stop offset="0.947917" stop-color="#E4BE51"/>
</linearGradient>
<linearGradient id="paint8_linear_10_2395" x1="37.5" y1="0" x2="37.5" y2="74.9987" gradientUnits="userSpaceOnUse">
<stop stop-color="#F1D27A"/>
<stop offset="0.239583" stop-color="#EECA64"/>
<stop offset="0.59375" stop-color="#FCE194"/>
<stop offset="0.947917" stop-color="#E4BE51"/>
</linearGradient>
<linearGradient id="paint9_linear_10_2395" x1="37.5" y1="0" x2="37.5" y2="74.9987" gradientUnits="userSpaceOnUse">
<stop stop-color="#F1D27A"/>
<stop offset="0.239583" stop-color="#EECA64"/>
<stop offset="0.59375" stop-color="#FCE194"/>
<stop offset="0.947917" stop-color="#E4BE51"/>
</linearGradient>
<linearGradient id="paint10_linear_10_2395" x1="37.5" y1="0" x2="37.5" y2="74.9987" gradientUnits="userSpaceOnUse">
<stop stop-color="#F1D27A"/>
<stop offset="0.239583" stop-color="#EECA64"/>
<stop offset="0.59375" stop-color="#FCE194"/>
<stop offset="0.947917" stop-color="#E4BE51"/>
</linearGradient>
</defs>
</svg>
