<svg width="85" height="85" viewBox="0 0 85 85" fill="none" xmlns="http://www.w3.org/2000/svg">
<path d="M31.4765 0.592163C17.1656 3.85672 7.33399 14.5235 6.15723 28.0372C5.96744 30.5046 5.85356 30.7703 5.01844 30.9981C3.57596 31.3397 1.22244 33.7312 0.539166 35.5153C0.00772705 36.8819 -0.0681928 38.3623 0.045687 44.1702C0.159567 51.0789 0.159567 51.1927 1.22244 52.7491C1.79184 53.6222 2.9686 54.7989 3.80372 55.3683C5.13232 56.2414 5.85356 56.4312 8.73851 56.5451L12.1169 56.6969V58.0255C12.1169 60.0754 13.2178 64.9342 14.2807 67.4016C17.6591 75.4112 25.0233 81.8644 33.2606 83.9901C37.0946 84.9391 43.282 85.2808 47.6474 84.7493C57.7068 83.5346 66.1339 77.7647 69.854 69.6413C70.7271 67.7812 71.2585 67.098 72.3973 66.5286C75.548 64.9342 78.9264 60.3411 78.9264 57.6459C78.9264 56.8488 79.2301 56.4312 80.1032 55.9377C82.3048 54.723 83.2159 53.8499 84.089 51.914C84.9241 50.0919 85 49.5225 85 43.335C85 37.717 84.8861 36.4643 84.2788 35.1737C83.5196 33.4655 81.2799 31.3017 79.9134 30.9601C79.1162 30.7703 79.0023 30.4666 78.8125 28.0372C78.2811 22.1534 76.0035 16.5353 72.1695 11.8283C67.8421 6.47595 62.5657 3.09752 55.0117 0.895844C52.2406 0.0986862 34.6651 -0.129074 31.4765 0.592163ZM53.8729 4.80572C59.5289 6.24819 65.1849 9.81643 68.9809 14.2957C72.0936 17.9019 74.7508 24.5449 74.7508 28.6066C74.7508 30.3527 74.7129 30.4287 73.6879 30.4287C72.663 30.4287 72.5491 30.2389 71.9418 28.0372C69.3605 18.8129 61.9204 12.0561 52.4304 10.4238C47.8752 9.62663 33.4884 9.93031 30.1859 10.8793C21.6828 13.2708 15.3815 19.648 13.028 28.0752C12.4206 30.2389 12.3067 30.4287 11.2818 30.4287C10.2569 30.4287 10.2189 30.3527 10.2189 28.6066C10.2189 25.9874 11.13 22.7228 12.9521 19.0407C14.2047 16.4594 15.1537 15.1688 17.773 12.5495C22.48 7.84251 27.8703 5.1094 34.0957 4.23632C38.0815 3.70488 50.95 4.04652 53.8729 4.80572ZM55.5811 15.3586C60.402 17.2186 64.9192 21.4322 66.8931 25.8735C67.918 28.189 68.6772 31.074 68.6772 32.7822V34.2247H54.67C45.0662 34.2247 40.2832 34.0728 39.4101 33.7691C36.1076 32.6683 33.83 30.2009 32.4255 26.2531C32.0839 25.342 31.6283 24.431 31.3626 24.2792C30.1479 23.52 28.4397 24.469 28.4397 25.9494C28.4397 27.3539 27.263 29.214 25.9723 29.8213C25.0613 30.2768 23.5808 30.4287 20.6579 30.4287H16.5962L16.8619 29.176C16.9758 28.5307 17.6591 26.7466 18.3803 25.3041C20.9616 19.9517 26.4278 15.7382 32.4255 14.4855C33.2606 14.2957 38.2334 14.1818 43.4339 14.2577C52.772 14.3337 52.9618 14.3716 55.5811 15.3586ZM31.932 33.6553C32.881 34.7561 34.4374 35.8569 36.3354 36.768L39.2203 38.2105L53.9488 38.3243L68.6772 38.4382V46.6755C68.6772 56.8108 68.6013 56.621 72.5112 56.621C75.4341 56.621 75.3961 56.5451 74.3333 59.0884C72.663 63.1122 65.7543 65.8073 54.9357 66.6424L52.3924 66.8322L51.5953 65.5036C50.1148 63.1501 48.5964 62.6946 42.409 62.6946C37.5121 62.6946 36.8289 62.7705 35.5003 63.5677C31.4385 65.8453 31.4385 71.6911 35.5003 73.9687C36.8289 74.7659 37.5121 74.8418 42.409 74.8418C48.5964 74.8418 50.1148 74.3863 51.5573 72.0707L52.3545 70.7801L56.4162 70.5143C58.6938 70.4005 61.6546 70.0588 63.0592 69.7551L65.6025 69.2617L64.9572 70.4384C62.9453 74.0067 56.8717 78.3341 51.5953 79.9664C48.4826 80.9154 39.3342 81.1811 35.6521 80.3839C26.5797 78.4859 18.9497 71.1217 16.8999 62.315C16.4064 60.379 16.2925 57.1904 16.2925 47.0551V34.2626L21.7588 34.1487C26.9972 34.0349 27.263 33.9969 28.6675 32.972C29.4646 32.4026 30.1859 31.9471 30.2997 31.9471C30.3757 31.9471 31.0969 32.7063 31.932 33.6553ZM12.1169 43.335V52.4454H9.23199C6.57479 52.4454 6.27111 52.3695 5.2462 51.3446L4.14536 50.2437V43.6387C4.14536 38.1725 4.25924 36.9198 4.75272 36.1606C5.6258 34.9079 7.40991 34.2626 9.95323 34.2247H12.1169V43.335ZM78.3191 34.7561C80.6726 35.7431 80.8244 36.3125 80.8244 43.6387V50.2437L79.7236 51.3446C78.6987 52.3695 78.395 52.4454 75.7378 52.4454H72.8528V43.335V34.2247H74.9406C76.1174 34.2247 77.6358 34.4524 78.3191 34.7561ZM47.9511 67.4776C48.2928 67.7812 48.5585 68.3886 48.5585 68.7682C48.5585 70.3625 47.6474 70.6662 42.4849 70.6662C37.3223 70.6662 36.4113 70.3625 36.4113 68.7682C36.4113 67.1739 37.3223 66.8702 42.4849 66.8702C46.4327 66.8702 47.4956 66.9841 47.9511 67.4776Z" fill="url(#paint0_linear_10_2353)"/>
<defs>
<linearGradient id="paint0_linear_10_2353" x1="42.5" y1="85" x2="42.5" y2="0.157417" gradientUnits="userSpaceOnUse">
<stop stop-color="#F1D27A"/>
<stop offset="0.239583" stop-color="#EECA64"/>
<stop offset="0.59375" stop-color="#FCE194"/>
<stop offset="0.947917" stop-color="#E4BE51"/>
</linearGradient>
</defs>
</svg>
