<svg width="112" height="80" viewBox="0 0 112 80" fill="none" xmlns="http://www.w3.org/2000/svg">
<path d="M39.7315 0.28927C35.9772 1.07504 32.6159 3.21407 25.1075 9.63116L17.6863 15.9609L10.2652 18.4056C6.20542 19.7588 2.49486 21.1994 2.01467 21.5923C0.443135 23.0328 0.00659809 24.5607 0.00659809 28.8824C0.00659809 33.5097 0.530442 35.2122 2.45121 37.0457C4.1537 38.6172 5.68158 39.1411 8.69368 39.1411C11.2256 39.1411 11.2256 39.1411 12.0114 40.8872C12.4479 41.8476 13.1464 42.9389 13.5829 43.3318C14.0631 43.7684 14.4123 44.2049 14.4123 44.3358C14.4123 44.4668 11.9241 44.5541 8.8683 44.4668C1.84005 44.2922 0.530442 44.5105 0.181213 45.951C-0.429939 48.352 -0.735515 48.3083 21.004 48.3083H40.9974L42.7872 51.7133C48.0257 61.7973 57.6731 68.0398 69.0231 68.6946C73.9996 69.0002 77.8411 68.389 82.5121 66.5992L85.7861 65.3333L92.7707 72.2306C98.7949 78.1675 100.061 79.2151 101.763 79.6953C108.093 81.4415 113.55 75.3736 111.105 69.3494C110.669 68.389 107.875 65.1587 103.902 61.1862L97.398 54.6381L99.1005 51.1895C101.458 46.3876 102.331 42.4587 102.331 37.1766C102.244 29.6682 100.061 23.2511 95.6082 17.6634C91.4174 12.425 85.044 8.19059 78.9325 6.66271C77.5792 6.31348 74.6108 5.13483 72.3844 4.04349C65.6618 0.725807 62.9552 0.201962 51.518 0.0273474C46.1049 -0.05996 40.8228 0.0710011 39.7315 0.28927ZM64.6141 4.87291L67.015 5.65867L63.5227 6.48809C60.6852 7.18655 58.2406 7.36117 50.4266 7.40482C38.8584 7.49213 39.1203 7.40482 32.0048 13.56C24.6709 19.8461 24.9329 20.37 35.8899 20.37C40.168 20.37 43.6603 20.4573 43.6603 20.5882C43.6603 20.7192 43.0928 21.9415 42.3943 23.3384C40.9538 26.2196 39.9061 29.6682 39.4695 32.8986L39.164 35.2122H29.6911L29.2109 34.0336C26.2861 26.2632 15.1981 26.0013 12.0114 33.597L11.3566 35.2122H8.65003C5.24504 35.2122 3.93543 34.2082 3.93543 31.6326C3.93543 30.0174 3.97908 29.9738 5.41966 29.9738C7.77696 29.9738 9.17387 29.2753 9.17387 28.0967C9.17387 26.5688 8.34445 26.045 6.03081 26.045C4.50293 26.045 3.93543 25.8703 3.93543 25.4338C3.93543 24.5171 4.24101 24.3861 12.2733 21.6796L19.5198 19.235L26.4607 13.3417C35.1915 5.96425 35.6717 5.61502 38.5092 4.61099C40.6045 3.86887 41.9141 3.78157 51.518 3.91253C60.336 4.04349 62.6497 4.2181 64.6141 4.87291ZM79.9802 10.8535C86.0917 13.1235 91.5484 17.6198 94.7788 22.9455C97.529 27.5292 98.4457 31.1088 98.4457 37.3949C98.402 42.1532 98.2711 43.2445 97.267 46.0383C94.7788 52.9793 90.0205 58.567 83.9963 61.71C79.2381 64.1983 75.7894 65.0277 70.5073 64.984C62.737 64.9404 56.1016 62.0592 50.6885 56.3843C42.3943 47.6535 40.5609 35.6051 45.8866 24.7353C49.2916 17.7944 56.4072 12.0321 63.9593 10.155C68.1064 9.10732 76.2696 9.45655 79.9802 10.8535ZM49.4662 14.0402L46.4978 16.834L40.168 16.8777H33.8819L36.0209 14.9133C39.7315 11.5956 40.9101 11.2027 47.0653 11.2027H52.391L49.4662 14.0402ZM23.4923 32.593C26.548 34.4701 26.8973 38.5299 24.2344 41.1928C22.9684 42.4587 22.5319 42.6334 20.5238 42.6334C18.5158 42.6334 18.0792 42.4587 16.8133 41.1928C14.9362 39.3157 14.5433 37.7441 15.329 35.4741C16.5077 32.1128 20.4365 30.7159 23.4923 32.593ZM39.2949 39.9705C39.2949 40.407 39.4259 41.673 39.5568 42.808L39.8624 44.816H26.0242L27.2029 43.5937C27.814 42.9389 28.6434 41.673 29.0363 40.7562L29.6911 39.1411H34.493C38.902 39.1411 39.2949 39.2284 39.2949 39.9705ZM101.632 64.1546C107.657 70.2225 107.831 70.4844 107.831 72.2742C107.831 74.6315 106.26 76.2467 103.99 76.2467C102.593 76.2467 101.851 75.6356 95.7828 69.655L89.1474 63.0633L91.6794 60.9243C93.0763 59.7456 94.3422 58.6106 94.5169 58.3487C94.6478 58.1304 94.9097 57.9122 95.128 57.9122C95.3026 57.9122 98.2274 60.706 101.632 64.1546Z" fill="url(#paint0_linear_10_2396)"/>
<path d="M65.618 13.56C56.931 15.5681 49.5971 22.5963 47.3708 31.0651C46.5414 34.3828 46.5414 39.9705 47.3708 43.2882C48.2002 46.3876 50.5575 50.8402 51.7798 51.6697C52.5656 52.1935 52.8275 52.1499 53.7442 51.4077C54.661 50.7093 54.7046 50.4474 54.2244 49.4433L53.7006 48.3083H70.289C85.6114 48.3083 86.8774 48.2647 87.2266 47.5226C87.6632 46.6931 87.4449 45.6455 86.7028 45.1653C86.4408 44.9907 83.9962 44.816 81.2461 44.816H76.3132L77.5791 43.3755C78.2776 42.5897 79.107 41.3237 79.4126 40.5816C79.8055 39.5776 80.3293 39.1411 81.3334 38.9664C83.3414 38.5736 85.4368 37.1766 86.3972 35.6051C87.6632 33.5534 88.0124 30.1921 87.1393 28.8824C85.7424 26.7434 83.8216 28.053 83.8216 31.1088C83.8216 32.593 83.5597 33.3351 82.7303 34.1209C81.1588 35.7361 80.1547 35.5178 79.238 33.4224C77.6228 29.8428 72.8645 27.2673 69.3286 28.0094C65.9236 28.7515 63.1734 31.0215 62.0384 34.0336L61.5582 35.2122H50.5139L50.8194 33.1605C51.2123 30.323 53.2204 26.2632 55.4904 23.6877C61.9511 16.3975 72.3844 14.7823 81.2897 19.6715C83.2978 20.7629 83.9526 20.9375 84.5637 20.5446C86.048 19.6279 85.5241 18.1 83.2541 16.5721C78.8015 13.6037 71.2057 12.294 65.618 13.56ZM73.3884 32.3747C76.0076 33.728 77.099 37.002 75.7457 39.5776C73.4757 43.9866 67.0586 43.6374 65.4871 38.9664C63.9592 34.2518 68.9357 30.1047 73.3884 32.3747ZM62.2131 40.7562C62.6059 41.673 63.4353 42.9389 64.0465 43.5937L65.2252 44.816H58.5898C51.125 44.816 51.3869 44.947 50.6885 41.1055L50.3392 39.1411H61.5582L62.2131 40.7562Z" fill="url(#paint1_linear_10_2396)"/>
<path d="M69.6779 35.7797C68.019 36.9584 69.7652 39.9268 71.5113 38.8791C72.559 38.1807 72.7336 36.4782 71.7732 35.7797C71.3367 35.4741 70.8565 35.2122 70.7255 35.2122C70.5946 35.2122 70.1144 35.4741 69.6779 35.7797Z" fill="url(#paint2_linear_10_2396)"/>
<path d="M87.6196 22.8146C87.0084 23.4257 87.314 25.2592 88.2307 26.5251C90.6317 29.8865 91.8103 36.6964 90.8499 41.411C89.584 47.3916 85.3496 52.761 79.7182 55.5112C73.8686 58.3923 67.4516 58.305 61.34 55.2929C57.6731 53.4595 56.5818 53.3722 56.0579 54.9437C55.7087 56.1223 56.8437 57.2573 59.9868 58.7852C75.0473 66.119 92.3778 56.9518 94.6915 40.4507C95.4336 35.0813 94.124 28.7078 91.5047 24.779C90.1951 22.8582 88.449 21.9852 87.6196 22.8146Z" fill="url(#paint3_linear_10_2396)"/>
<path d="M19.4761 35.7797C17.8173 36.9584 19.5634 39.9268 21.3096 38.8791C22.3573 38.1807 22.5319 36.4782 21.5715 35.7797C21.135 35.4741 20.6548 35.2122 20.5238 35.2122C20.3929 35.2122 19.9127 35.4741 19.4761 35.7797Z" fill="url(#paint4_linear_10_2396)"/>
<defs>
<linearGradient id="paint0_linear_10_2396" x1="55.8508" y1="0" x2="55.8508" y2="80" gradientUnits="userSpaceOnUse">
<stop stop-color="#F1D27A"/>
<stop offset="0.239583" stop-color="#EECA64"/>
<stop offset="0.59375" stop-color="#FCE194"/>
<stop offset="0.947917" stop-color="#E4BE51"/>
</linearGradient>
<linearGradient id="paint1_linear_10_2396" x1="55.8508" y1="0" x2="55.8508" y2="80" gradientUnits="userSpaceOnUse">
<stop stop-color="#F1D27A"/>
<stop offset="0.239583" stop-color="#EECA64"/>
<stop offset="0.59375" stop-color="#FCE194"/>
<stop offset="0.947917" stop-color="#E4BE51"/>
</linearGradient>
<linearGradient id="paint2_linear_10_2396" x1="55.8508" y1="0" x2="55.8508" y2="80" gradientUnits="userSpaceOnUse">
<stop stop-color="#F1D27A"/>
<stop offset="0.239583" stop-color="#EECA64"/>
<stop offset="0.59375" stop-color="#FCE194"/>
<stop offset="0.947917" stop-color="#E4BE51"/>
</linearGradient>
<linearGradient id="paint3_linear_10_2396" x1="55.8508" y1="0" x2="55.8508" y2="80" gradientUnits="userSpaceOnUse">
<stop stop-color="#F1D27A"/>
<stop offset="0.239583" stop-color="#EECA64"/>
<stop offset="0.59375" stop-color="#FCE194"/>
<stop offset="0.947917" stop-color="#E4BE51"/>
</linearGradient>
<linearGradient id="paint4_linear_10_2396" x1="55.8508" y1="0" x2="55.8508" y2="80" gradientUnits="userSpaceOnUse">
<stop stop-color="#F1D27A"/>
<stop offset="0.239583" stop-color="#EECA64"/>
<stop offset="0.59375" stop-color="#FCE194"/>
<stop offset="0.947917" stop-color="#E4BE51"/>
</linearGradient>
</defs>
</svg>
