<svg width="75" height="75" viewBox="0 0 75 75" fill="none" xmlns="http://www.w3.org/2000/svg">
<path d="M12.9492 8.58399C7.41211 14.1211 4.39453 17.3438 4.39453 17.7246C4.39453 18.3984 33.0176 47.168 33.6914 47.168C33.9258 47.168 37.5293 43.7695 41.7481 39.5801L49.3652 31.9922L51.2695 31.8164C53.9063 31.582 56.3086 30.3223 58.418 28.125L60.0879 26.3672H67.0898C73.0664 26.3672 74.1504 26.3086 74.5312 25.8984C74.9414 25.5176 75 24.1699 75 15.6738C75 7.17773 74.9414 5.83008 74.5312 5.44922C74.1504 5.06836 73.2422 4.98047 69.1699 4.98047C64.7754 4.98047 64.1895 5.03906 63.7793 5.50781C63.4863 5.80078 63.2812 6.41602 63.2812 6.82617C63.2812 7.61719 63.2812 7.61719 61.084 7.61719C59.2676 7.61719 58.7695 7.73438 58.3008 8.20313C57.9785 8.52539 57.7148 8.96484 57.7148 9.19922C57.7148 9.96094 55.0781 9.14063 52.1777 7.5C41.9824 1.75781 39.6973 1.31836 32.959 3.69141C30.8789 4.45313 28.8867 5.09766 28.5645 5.18555C28.125 5.27344 27.3047 4.62891 25.3418 2.66602C23.7598 1.05469 22.4707 0 22.1191 0C21.7383 0 18.5449 2.98828 12.9492 8.58399ZM24.8438 7.20703C23.7305 7.76367 22.0898 7.93945 20.8008 7.64648C18.7793 7.20703 18.75 6.91406 20.5078 5.12695L22.0898 3.51562L23.7891 5.18555C25.459 6.82617 25.4883 6.88477 24.8438 7.20703ZM44.0332 6.5332C45.293 7.11914 47.9883 8.52539 50.0391 9.63867C53.4375 11.4844 54.5801 11.9531 56.9238 12.4512L57.7148 12.5977V24.7266L55.9863 26.3965C54.6387 27.7148 53.877 28.2129 52.5879 28.5645C49.6582 29.4434 46.3477 28.418 43.9746 25.957C43.0957 25.0488 42.1875 24.668 36.7383 22.8516C31.2012 21.0059 30.3809 20.6543 29.5898 19.7461C29.0625 19.1016 28.7109 18.3984 28.7109 17.8711C28.7109 16.8457 29.8828 15.3809 30.9375 15.1172C31.4355 14.9707 33.8086 15.5859 38.6426 17.1387C42.4805 18.3398 45.791 19.3359 46.0547 19.3359C46.2891 19.3359 46.7285 19.0723 47.0508 18.7207C47.5488 18.1934 47.5488 18.0469 47.168 17.373C46.7871 16.6992 45.9375 16.3477 41.3086 14.8828L35.8887 13.1836L33.1641 10.4297L30.4102 7.70508L32.2852 7.03125C33.3105 6.65039 34.8047 6.12305 35.5957 5.80078C37.9688 4.92188 41.1328 5.21484 44.0332 6.5332ZM72.0703 23.4375H66.2109V7.91016H72.0703V23.4375ZM18.3398 9.87305C20.7715 10.9863 23.4668 10.9863 25.8984 9.87305L27.6562 9.05273L29.0625 10.459C29.8242 11.2207 30.4688 11.9238 30.4688 12.0117C30.4395 12.0996 29.7949 12.4512 29.0039 12.832C28.1543 13.2422 27.334 13.8867 26.9824 14.4434C26.543 15.1465 26.0449 15.498 25.0488 15.7617C23.1445 16.2598 20.7715 18.6621 20.0684 20.7715C17.9297 27.2754 23.7598 33.4277 30.293 31.5234C32.3145 30.9375 34.5117 29.0332 35.4492 27.0703C35.8008 26.3672 36.1816 25.7813 36.2695 25.8105C36.3867 25.8105 37.4414 26.1621 38.6133 26.6016L40.752 27.3926L40.8398 29.5898C40.8691 31.2891 41.0742 32.1094 41.6602 33.252L42.4219 34.7168L40.8105 36.3574L39.1992 38.0273L37.5293 37.2363C35.2148 36.1523 32.168 36.1523 29.8535 37.2363L28.2129 38.0273L13.418 23.2324L14.0625 21.9727C15.3516 19.4238 15.3223 15.8203 13.9746 13.3887L13.3594 12.3047L14.9414 10.6934C15.8203 9.81445 16.5527 9.08203 16.582 9.08203C16.6113 9.08203 17.4023 9.43359 18.3398 9.87305ZM63.2812 23.4375H60.6445V17.1973C60.6445 13.7402 60.7324 10.8398 60.8496 10.752C60.9375 10.6348 61.5527 10.5469 62.168 10.5469H63.2812V23.4375ZM11.748 15.4395C12.1875 16.582 12.1582 18.6914 11.7188 20.0391L11.3672 21.1523L7.91016 17.7539L9.43359 16.2012C10.2832 15.3516 11.0742 14.6484 11.1914 14.6484C11.3379 14.6484 11.5723 15 11.748 15.4395ZM26.5137 20.3613C27.4219 22.2363 28.5938 23.1445 31.2598 24.0527C32.2852 24.375 33.1055 24.7852 33.1055 24.9316C33.1055 26.1328 31.1426 28.1543 29.4141 28.7109C25.0781 30.1465 21.0352 25.2539 23.1445 21.123C23.6719 20.0684 24.9902 18.75 25.4883 18.75C25.6055 18.75 26.0742 19.4824 26.5137 20.3613ZM44.9707 30.3809C45.5273 30.6445 45.9961 30.9668 45.9961 31.0547C45.9961 31.1719 45.6738 31.5527 45.2637 31.9336L44.5312 32.6074L44.0918 31.5527C43.6523 30.4688 43.5352 29.8828 43.7988 29.8828C43.8574 29.8828 44.3848 30.1172 44.9707 30.3809ZM36.3281 39.8438C36.9727 40.1953 36.9434 40.2246 35.332 41.8359L33.6914 43.5059L32.1094 41.9238C31.2305 41.0449 30.5566 40.2246 30.6445 40.0781C31.1426 39.2871 34.9805 39.1113 36.3281 39.8438Z" fill="url(#paint0_linear_10_2379)"/>
<path d="M50.1563 18.5156C49.9512 18.7207 49.8047 19.2188 49.8047 19.6875C49.8047 21.1523 51.7383 21.5039 52.4707 20.1855C53.1445 18.9258 51.1816 17.4902 50.1563 18.5156Z" fill="url(#paint1_linear_10_2379)"/>
<path d="M21.2109 45.9375C19.3945 46.582 17.0508 48.252 15.8203 49.834L14.8828 50.9766H7.76367C0.996094 50.9766 0.585938 51.0059 0.292969 51.5332C0.117187 51.9141 0 55.6641 0 61.7871C0 71.4551 0 71.4551 0.644531 71.8945C1.17188 72.2754 2.22656 72.3633 5.91797 72.3633C10.166 72.3633 10.6055 72.3047 11.1328 71.7774C11.4551 71.4551 11.7188 70.8106 11.7188 70.3125V69.4336H16.7578L17.0801 68.5254C17.4023 67.7051 17.5195 67.6465 18.4277 67.8223C18.9844 67.9395 22.0605 69.375 25.3125 71.0449C31.9043 74.4434 33.9844 75.1465 36.9141 74.9121C39.4336 74.707 63.75 66.0352 65.332 64.7754C69.1992 61.6992 68.1445 55.7227 63.5156 54.4629C61.9629 54.0527 61.2305 54.1699 54.8145 55.957C51.9141 56.7773 49.4238 57.4219 49.2773 57.4219C49.1309 57.4219 48.6621 56.8945 48.2227 56.25C47.0801 54.4922 45.8203 53.8477 39.4043 51.6797C35.4785 50.3613 33.3398 49.4824 32.959 49.043C30.293 46.0547 24.9609 44.6484 21.2109 45.9375ZM27.1875 48.7793C28.2422 49.1016 29.209 49.7168 30.3809 50.8008C32.0215 52.2949 32.3145 52.4414 37.6465 54.1992C44.2676 56.3965 45.2637 56.8359 45.8789 58.0371C46.8164 59.9121 45.5566 62.1094 43.5352 62.1094C43.0371 62.1094 39.7266 61.2012 36.1816 60.0586C32.6367 58.9453 29.3848 58.0078 28.9453 58.0078C28.418 58.0078 28.0371 58.2422 27.8027 58.6231C27.2754 59.6484 27.8906 60.5274 29.502 61.0254C41.8945 64.9805 42.2754 65.0977 44.0039 64.9805C45.9961 64.834 47.5488 63.7793 48.4863 61.9336C48.8086 61.3184 49.1895 60.7031 49.3359 60.6152C49.4531 60.4981 52.3242 59.6777 55.7227 58.7695C62.3438 56.9531 63.1348 56.8945 64.1602 58.2129C65.3027 59.6777 64.7754 61.9336 63.0176 62.8125C62.1973 63.252 39.9316 71.3086 38.0859 71.8359C35.3613 72.627 31.9336 71.4844 24.5508 67.3535C22.5293 66.2109 20.7129 65.4199 19.3652 65.0977L17.2852 64.6289V52.5586L18.6035 51.1523C21.0645 48.6035 23.9062 47.8125 27.1875 48.7793ZM8.78906 69.4336H2.92969V53.9063H8.78906V69.4336ZM14.3555 66.5039H11.7188V53.9063H14.3555V66.5039Z" fill="url(#paint2_linear_10_2379)"/>
<path d="M22.6758 56.9824C22.2363 57.6563 22.2363 57.7734 22.6758 58.4473C23.4668 59.6777 25.1953 59.209 25.1953 57.7734C25.1953 56.1621 23.5547 55.6641 22.6758 56.9824Z" fill="url(#paint3_linear_10_2379)"/>
<defs>
<linearGradient id="paint0_linear_10_2379" x1="37.5" y1="0" x2="37.5" y2="74.9531" gradientUnits="userSpaceOnUse">
<stop stop-color="#F1D27A"/>
<stop offset="0.239583" stop-color="#EECA64"/>
<stop offset="0.59375" stop-color="#FCE194"/>
<stop offset="0.947917" stop-color="#E4BE51"/>
</linearGradient>
<linearGradient id="paint1_linear_10_2379" x1="37.5" y1="0" x2="37.5" y2="74.9531" gradientUnits="userSpaceOnUse">
<stop stop-color="#F1D27A"/>
<stop offset="0.239583" stop-color="#EECA64"/>
<stop offset="0.59375" stop-color="#FCE194"/>
<stop offset="0.947917" stop-color="#E4BE51"/>
</linearGradient>
<linearGradient id="paint2_linear_10_2379" x1="37.5" y1="0" x2="37.5" y2="74.9531" gradientUnits="userSpaceOnUse">
<stop stop-color="#F1D27A"/>
<stop offset="0.239583" stop-color="#EECA64"/>
<stop offset="0.59375" stop-color="#FCE194"/>
<stop offset="0.947917" stop-color="#E4BE51"/>
</linearGradient>
<linearGradient id="paint3_linear_10_2379" x1="37.5" y1="0" x2="37.5" y2="74.9531" gradientUnits="userSpaceOnUse">
<stop stop-color="#F1D27A"/>
<stop offset="0.239583" stop-color="#EECA64"/>
<stop offset="0.59375" stop-color="#FCE194"/>
<stop offset="0.947917" stop-color="#E4BE51"/>
</linearGradient>
</defs>
</svg>
