<svg width="85" height="85" viewBox="0 0 85 85" fill="none" xmlns="http://www.w3.org/2000/svg">
<path d="M8.25657 0.708718C5.38626 2.44508 5.10277 4.60667 7.05174 9.49682L8.50462 13.1467L8.43375 25.7619L8.32744 38.3771L6.59108 38.8732C4.146 39.5819 1.31113 42.4522 0.566974 45.0036C-0.318923 47.9093 -0.248051 48.1928 1.382 48.1928C2.69313 48.1928 2.764 48.122 3.01205 46.8463C3.50815 44.1177 5.95323 41.6018 8.32744 41.3891C9.31964 41.2828 9.92205 41.8498 15.8398 48.37L22.2892 55.4218L20.8717 58.1149C16.4068 66.4069 14.6705 69.4544 14.4578 69.4544C14.2807 69.4544 14.1744 65.9462 14.1744 61.6585V53.8626H11.3395V62.6507C11.3395 69.0291 11.4458 71.5451 11.7647 71.864C12.0836 72.1829 14.5996 72.2893 20.9781 72.2893H29.7662V82.2467L18.1077 82.1404C6.94544 82.0341 6.37846 81.9987 5.45713 81.29C4.92559 80.9002 4.146 80.1206 3.75621 79.5891C3.04749 78.6677 3.01205 78.1362 2.90574 64.8123L2.79944 51.0277H0V64.3516C0 73.813 0.141744 78.1362 0.425231 79.1638C1.02764 81.2191 3.96882 84.054 6.0241 84.6209C7.26436 84.9753 15.7335 85.0462 42.594 84.9753L77.5338 84.869L78.4905 83.9831C79.6245 82.92 79.908 82.2467 80.2623 79.8017L80.5104 77.959H77.6401L77.392 79.6245C77.2857 80.5813 77.0022 81.538 76.825 81.7861C76.5416 82.105 73.4232 82.2113 63.4303 82.2113C52.4451 82.2113 50.3544 82.1404 49.9646 81.6798C49.6457 81.29 50.0709 77.6046 52.0908 63.7138C53.5082 54.1106 54.8193 46.0312 54.9965 45.7832C55.2091 45.5706 56.1305 45.358 57.1227 45.358C58.6819 45.358 58.859 45.4288 58.6464 45.9604C58.1149 47.3778 58.044 48.5826 58.4692 49.0787C58.8236 49.5394 60.3828 49.6103 68.2496 49.6103C74.7698 49.6103 77.6401 49.504 77.8172 49.2205C77.959 49.0079 78.2425 48.0865 78.4551 47.1652C78.8449 45.6414 78.9866 45.5351 80.1206 45.4288C82.3176 45.2517 82.3885 45.6414 81.4317 52.1617L80.5812 57.9377L77.6755 58.1149C75.0178 58.2921 74.6635 58.4338 73.7067 59.3906C72.7499 60.3119 72.5373 61.0206 71.5097 66.0171C70.4466 71.3679 70.4466 71.6868 70.9781 72.8208C71.8995 74.7343 73.2106 75.195 77.2857 75.0532C80.6521 74.9469 80.8293 74.9115 81.8569 73.8484C82.8137 72.8917 83.0618 72.1829 84.0185 67.6471C85.1525 62.2255 85.1525 60.6308 84.0185 59.3906C83.3453 58.6464 83.3452 58.5756 84.1957 52.7995C84.6918 49.5748 84.9753 46.4565 84.869 45.8541C84.5855 44.1886 82.92 42.842 80.971 42.594C79.6599 42.4522 79.2347 42.2396 78.9158 41.5663C78.4551 40.5387 76.9668 39.6882 75.6557 39.6882C74.9469 39.6882 74.7698 39.511 74.7698 38.7669C74.7698 38.1999 74.3091 37.3849 73.5295 36.6053C72.3956 35.4713 72.1121 35.365 70.7301 35.5068C68.7811 35.7548 67.2573 36.8179 66.4778 38.448C65.9462 39.511 65.6982 39.6882 64.6351 39.6882C63.005 39.6882 61.2332 40.4678 60.3828 41.5663C59.7449 42.3459 59.3551 42.4522 56.9455 42.5585C54.5713 42.7003 54.1461 42.842 53.1893 43.7279C52.6223 44.2594 52.0553 45.0745 51.949 45.4997C51.8782 45.8895 51.0277 51.4175 50.1064 57.7605C49.185 64.1036 48.4054 69.3481 48.3346 69.4189C48.2637 69.4898 47.6613 69.1355 47.0234 68.6394C46.3147 68.1078 44.5429 65.6627 42.7357 62.7216C39.9008 58.044 39.6882 57.5833 39.6882 55.7761V53.8626H36.8533V62.2254L35.8257 62.6152C33.5578 63.4657 32.7428 66.8321 34.3728 68.6039L35.1879 69.4544H30.9001C28.5259 69.4544 26.5769 69.3835 26.5769 69.2772C26.5769 69.1709 39.7591 45.0036 40.645 43.4799C40.9639 42.9129 42.9129 45.1808 44.9327 48.4409C46.0312 50.2481 47.1298 51.7364 47.3069 51.7364C47.5196 51.7364 48.0511 51.4175 48.5472 51.0277L49.4331 50.3544L48.7598 49.185C44.4012 41.6726 41.46 39.0858 36.6053 38.4125C34.8335 38.1999 34.7981 38.1645 35.117 37.314C35.2942 36.8533 35.4359 34.6209 35.4359 32.4239V28.3842L37.9519 28.2779C41.4954 28.1361 41.6018 27.8526 39.9363 23.6712C39.2275 21.864 38.6251 20.2339 38.6251 20.0922C38.6251 19.9504 39.263 19.8441 40.078 19.8441C42.0979 19.8441 43.9405 18.0369 43.9405 16.1233C43.9405 14.2807 42.2042 12.5443 40.0071 12.2254C37.4203 11.8356 37.3849 11.7647 38.5897 8.71723C39.1921 7.22892 39.6882 5.49257 39.6882 4.85472C39.6882 3.40185 38.5897 1.59462 37.1368 0.708718C36.0383 0.0354359 35.3296 0 22.679 0C10.1347 0 9.31964 0.0354359 8.25657 0.708718ZM35.8257 3.18923C36.9242 3.79164 36.6053 4.25231 35.0815 4.25231C33.3806 4.25231 31.8923 4.96103 30.9001 6.20128L30.1914 7.08718H14.1744V9.92205H21.9703C26.258 9.92205 29.7662 9.99293 29.7662 10.0638C29.7662 10.1347 29.8725 10.489 29.9788 10.7725C30.1914 11.3041 29.2701 11.3395 20.5174 11.2686L10.8434 11.1623L9.70944 8.32744C8.32744 4.96103 8.292 4.46492 9.21334 3.54359C9.88662 2.87031 10.3827 2.83487 22.5372 2.83487C30.5457 2.83487 35.365 2.97662 35.8257 3.18923ZM35.4005 8.92985C35.0107 9.95749 34.55 10.9497 34.3728 11.0914C33.983 11.5167 32.601 10.0638 32.601 9.21334C32.601 8.18569 33.8767 7.08718 35.0815 7.08718H36.1446L35.4005 8.92985ZM17.6471 14.7413C17.5762 15.0957 16.9029 15.5209 15.9462 15.8044C13.6428 16.4777 12.3317 17.966 12.1191 20.163C12.0128 21.545 12.1191 22.2183 12.6861 23.1751L13.3948 24.3799L11.3395 26.3643V14.1744H14.5642C17.3636 14.1744 17.7534 14.2452 17.6471 14.7413ZM39.1567 14.9185C40.5387 15.3083 40.9285 15.5918 40.9285 16.1233C40.9285 16.7258 40.645 16.8675 39.3339 16.9384C37.1723 17.1155 31.3608 16.0879 28.455 15.0603L26.0454 14.1744L31.7151 14.3161C35.0461 14.387 38.129 14.635 39.1567 14.9185ZM26.01 18.2141C24.7697 20.0213 26.1517 22.679 28.3487 22.679C29.8016 22.679 31.1836 21.297 31.1836 19.8795C31.1836 18.8519 31.2545 18.8165 32.353 19.0291C35.1879 19.5961 35.1879 19.5606 36.3572 22.5372L37.4912 25.3367L35.5068 25.443C34.4083 25.5139 33.3097 25.7265 33.0617 25.9391C32.8136 26.1517 32.601 27.073 32.601 28.0298V29.7662H28.3487V32.601H32.601V34.55C32.601 36.1801 32.4593 36.6762 31.7151 37.3849L30.8647 38.2708H11.3395V30.2977L14.1744 27.4628C15.7335 25.9037 17.0092 24.3799 17.0092 24.0964C17.0092 23.7775 16.5486 23.1397 15.9462 22.6081C13.8909 20.8009 14.8831 18.4267 17.7534 18.4267C19.2063 18.4267 19.5606 18.1078 20.163 16.2651L20.5883 14.9894L23.5294 16.2296C26.3643 17.4345 26.5061 17.5408 26.01 18.2141ZM71.6514 40.1843C71.4742 42.2396 71.7931 42.5231 74.3091 42.5231C75.3013 42.5231 76.2226 42.6648 76.3289 42.842C76.4707 43.0192 76.3644 43.976 76.1163 44.9682L75.7265 46.7754H61.3396L61.8357 45.1099C62.5089 42.9483 63.1113 42.5231 65.5919 42.5231C67.2928 42.5231 67.718 42.3813 68.1787 41.7435C68.4976 41.3183 68.7457 40.7159 68.7457 40.4324C68.7457 39.5819 70.234 38.2353 71.049 38.3417C71.6868 38.448 71.7577 38.6606 71.6514 40.1843ZM18.7456 42.6294C19.6315 43.9405 19.7732 44.4012 19.5961 45.6769C19.4897 46.4919 19.2771 47.2006 19.1354 47.3069C18.9228 47.4487 13.4656 41.7081 13.4656 41.3183C13.4656 41.212 14.4224 41.1057 15.5918 41.1057C17.6471 41.1057 17.6825 41.1057 18.7456 42.6294ZM24.8051 41.4246C24.8051 41.5663 24.628 42.2042 24.4153 42.7711C24.1673 43.5862 24.2027 44.6847 24.628 47.0943C25.1241 50.0001 25.1241 50.4253 24.628 51.3821C23.9547 52.6932 23.7775 52.6932 22.5372 51.4175L21.5805 50.4253L22.1474 47.0235C22.7499 43.657 22.7499 43.5862 22.0057 42.5585C21.5805 41.9916 21.2615 41.4246 21.2615 41.3183C21.2615 41.212 22.0766 41.1057 23.0333 41.1057C24.0255 41.1057 24.8051 41.2474 24.8051 41.4246ZM28.8094 43.5862C27.64 45.8186 27.4628 45.9958 27.1793 45.2871C26.8959 44.4721 27.0022 43.657 27.64 41.9916C27.8881 41.3183 28.207 41.1057 29.0574 41.1057H30.156L28.8094 43.5862ZM37.9519 41.7081C38.0936 41.8498 34.8335 48.1574 30.7229 55.7052L23.2105 69.4544H20.6591C19.2417 69.4544 18.0723 69.3835 18.0723 69.2772C18.0723 69.2063 21.545 62.7924 25.7619 55.0674L33.4869 41.0348L35.5776 41.212C36.7116 41.3183 37.7747 41.5309 37.9519 41.7081ZM82.0696 61.4459C82.3176 62.0837 80.5104 71.2616 80.0143 71.8286C79.4473 72.5373 73.8484 72.4664 73.5649 71.7577C73.3523 71.1199 75.0887 62.0128 75.5848 61.375C76.0809 60.7371 81.8215 60.7726 82.0696 61.4459ZM40.8576 67.4345L42.594 68.852L41.7435 69.3126C40.5032 70.0213 40.1134 69.915 38.4125 68.4976C36.3572 66.8321 35.9674 66.1234 36.7116 65.3792C37.2431 64.8477 37.3494 64.8831 38.2353 65.4147C38.7314 65.7336 39.9363 66.6549 40.8576 67.4345ZM46.7045 72.2184L47.8739 73.1751L47.2715 77.0377C46.988 79.1638 46.8108 81.1837 46.8817 81.538C47.0589 82.1759 46.8108 82.2113 43.3736 82.2113H39.6528L39.8654 73.2106L42.1687 72.2538C45.0745 71.049 45.2871 71.049 46.7045 72.2184ZM36.8533 82.2113H32.601V72.2893H36.8533V82.2113Z" fill="url(#paint0_linear_10_2394)"/>
<path d="M17.0092 79.3764H19.8441V76.5416H17.0092V79.3764Z" fill="url(#paint1_linear_10_2394)"/>
<path d="M22.679 79.3764H25.5139V76.5416H22.679V79.3764Z" fill="url(#paint2_linear_10_2394)"/>
<defs>
<linearGradient id="paint0_linear_10_2394" x1="42.4456" y1="0" x2="42.4456" y2="85" gradientUnits="userSpaceOnUse">
<stop stop-color="#F1D27A"/>
<stop offset="0.239583" stop-color="#EECA64"/>
<stop offset="0.59375" stop-color="#FCE194"/>
<stop offset="0.947917" stop-color="#E4BE51"/>
</linearGradient>
<linearGradient id="paint1_linear_10_2394" x1="42.4456" y1="0" x2="42.4456" y2="85" gradientUnits="userSpaceOnUse">
<stop stop-color="#F1D27A"/>
<stop offset="0.239583" stop-color="#EECA64"/>
<stop offset="0.59375" stop-color="#FCE194"/>
<stop offset="0.947917" stop-color="#E4BE51"/>
</linearGradient>
<linearGradient id="paint2_linear_10_2394" x1="42.4456" y1="0" x2="42.4456" y2="85" gradientUnits="userSpaceOnUse">
<stop stop-color="#F1D27A"/>
<stop offset="0.239583" stop-color="#EECA64"/>
<stop offset="0.59375" stop-color="#FCE194"/>
<stop offset="0.947917" stop-color="#E4BE51"/>
</linearGradient>
</defs>
</svg>
