<svg width="58" height="58" viewBox="0 0 58 58" fill="none" xmlns="http://www.w3.org/2000/svg">
<path d="M21.4781 0.297207C11.713 2.52892 5.00437 9.8209 4.20141 19.0591C4.0719 20.7459 3.99419 20.9276 3.42435 21.0833C2.44007 21.3168 0.834139 22.9517 0.367902 24.1713C0.00527257 25.1055 -0.0465316 26.1176 0.0311746 30.0879C0.108881 34.8109 0.108881 34.8887 0.834139 35.9527C1.22267 36.5495 2.02563 37.354 2.59548 37.7432C3.50205 38.3401 3.99419 38.4698 5.96275 38.5477L8.26803 38.6515V39.5597C8.26803 40.9611 9.01919 44.2827 9.74445 45.9694C12.0497 51.4449 17.0747 55.8564 22.6955 57.3096C25.3116 57.9584 29.5336 58.1919 32.5124 57.8286C39.3764 56.9982 45.1267 53.0538 47.6651 47.5005C48.2608 46.2289 48.6235 45.7618 49.4005 45.3726C51.5504 44.2827 53.8557 41.1427 53.8557 39.3002C53.8557 38.7553 54.0629 38.4698 54.6586 38.1325C56.161 37.3021 56.7826 36.7052 57.3783 35.3818C57.9482 34.1362 58 33.7469 58 29.517C58 25.6764 57.9223 24.8201 57.5079 23.9378C56.9898 22.77 55.4616 21.2909 54.5291 21.0573C53.9852 20.9276 53.9075 20.72 53.778 19.0591C53.4153 15.0369 51.8612 11.1963 49.2451 7.97844C46.2923 4.31947 42.6919 2.00991 37.5374 0.504807C35.6465 -0.0401459 23.6539 -0.195847 21.4781 0.297207ZM36.7603 3.17767C40.6197 4.16377 44.4791 6.60308 47.0693 9.6652C49.1933 12.1305 51.0064 16.6717 51.0064 19.4484C51.0064 20.6421 50.9805 20.694 50.2812 20.694C49.5818 20.694 49.5041 20.5643 49.0897 19.0591C47.3284 12.7533 42.2515 8.13414 35.776 7.01829C32.6678 6.47334 22.8509 6.68093 20.5974 7.32969C14.7954 8.96455 10.4956 13.3242 8.88968 19.0851C8.47525 20.5643 8.39754 20.694 7.69819 20.694C6.99883 20.694 6.97293 20.6421 6.97293 19.4484C6.97293 17.6578 7.59458 15.4261 8.83788 12.909C9.69265 11.1444 10.3402 10.2621 12.1274 8.4715C15.3393 5.25368 19.0174 3.38527 23.2653 2.78842C25.985 2.42512 34.7658 2.65867 36.7603 3.17767ZM37.9259 10.3918C41.2155 11.6634 44.2978 14.5438 45.6447 17.58C46.3441 19.1629 46.8621 21.1352 46.8621 22.3029V23.289H37.3042C30.751 23.289 27.4874 23.1852 26.8916 22.9776C24.6381 22.2251 23.084 20.5383 22.1256 17.8395C21.8925 17.2167 21.5817 16.5939 21.4004 16.4901C20.5715 15.9711 19.4059 16.6198 19.4059 17.6319C19.4059 18.592 18.603 19.8636 17.7223 20.2788C17.1006 20.5902 16.0905 20.694 14.096 20.694H11.3245L11.5058 19.8377C11.5835 19.3965 12.0497 18.1768 12.5419 17.1907C14.3032 13.5318 18.0331 10.6513 22.1256 9.79495C22.6955 9.6652 26.0887 9.58735 29.6372 9.63925C36.0091 9.69115 36.1387 9.7171 37.9259 10.3918ZM21.7889 22.8998C22.4365 23.6523 23.4984 24.4049 24.7936 25.0277L26.7621 26.0138L36.8121 26.0916L46.8621 26.1695V31.8007C46.8621 38.7293 46.8103 38.5996 49.4782 38.5996C51.4727 38.5996 51.4468 38.5477 50.7215 40.2863C49.5818 43.0371 44.8677 44.8795 37.4856 45.4504L35.7501 45.5802L35.2062 44.6719C34.196 43.063 33.1599 42.7516 28.9379 42.7516C25.5965 42.7516 25.1303 42.8035 24.2237 43.3485C21.4522 44.9055 21.4522 48.9018 24.2237 50.4588C25.1303 51.0037 25.5965 51.0556 28.9379 51.0556C33.1599 51.0556 34.196 50.7442 35.1803 49.1613L35.7242 48.279L38.4957 48.0973C40.0499 48.0195 42.0702 47.7859 43.0286 47.5783L44.764 47.241L44.3237 48.0454C42.9509 50.4847 38.8066 53.4431 35.2062 54.5589C33.0822 55.2077 26.8398 55.3893 24.3273 54.8444C18.1367 53.5469 12.9304 48.5125 11.5317 42.4921C11.195 41.1687 11.1173 38.9888 11.1173 32.0602V23.315L14.8472 23.2371C18.4216 23.1593 18.603 23.1333 19.5613 22.4327C20.1053 22.0434 20.5974 21.732 20.6751 21.732C20.7269 21.732 21.2191 22.251 21.7889 22.8998ZM8.26803 29.517V35.7451H6.29947C4.48633 35.7451 4.27911 35.6932 3.57976 34.9925L2.8286 34.24V29.7246C2.8286 25.9878 2.9063 25.1315 3.24303 24.6125C3.83878 23.7561 5.05618 23.315 6.79161 23.289H8.26803V29.517ZM53.4412 23.6523C55.0472 24.327 55.1508 24.7163 55.1508 29.7246V34.24L54.3996 34.9925C53.7003 35.6932 53.493 35.7451 51.6799 35.7451H49.7113V29.517V23.289H51.136C51.9389 23.289 52.975 23.4447 53.4412 23.6523ZM32.7196 46.0213C32.9527 46.2289 33.134 46.6441 33.134 46.9036C33.134 47.9935 32.5124 48.2011 28.9897 48.2011C25.467 48.2011 24.8454 47.9935 24.8454 46.9036C24.8454 45.8137 25.467 45.6061 28.9897 45.6061C31.6835 45.6061 32.4088 45.684 32.7196 46.0213Z" fill="#D4AE41"/>
<path d="M21.4781 0.297207C11.713 2.52892 5.00437 9.8209 4.20141 19.0591C4.0719 20.7459 3.99419 20.9276 3.42435 21.0833C2.44007 21.3168 0.834139 22.9517 0.367902 24.1713C0.00527257 25.1055 -0.0465316 26.1176 0.0311746 30.0879C0.108881 34.8109 0.108881 34.8887 0.834139 35.9527C1.22267 36.5495 2.02563 37.354 2.59548 37.7432C3.50205 38.3401 3.99419 38.4698 5.96275 38.5477L8.26803 38.6515V39.5597C8.26803 40.9611 9.01919 44.2827 9.74445 45.9694C12.0497 51.4449 17.0747 55.8564 22.6955 57.3096C25.3116 57.9584 29.5336 58.1919 32.5124 57.8286C39.3764 56.9982 45.1267 53.0538 47.6651 47.5005C48.2608 46.2289 48.6235 45.7618 49.4005 45.3726C51.5504 44.2827 53.8557 41.1427 53.8557 39.3002C53.8557 38.7553 54.0629 38.4698 54.6586 38.1325C56.161 37.3021 56.7826 36.7052 57.3783 35.3818C57.9482 34.1362 58 33.7469 58 29.517C58 25.6764 57.9223 24.8201 57.5079 23.9378C56.9898 22.77 55.4616 21.2909 54.5291 21.0573C53.9852 20.9276 53.9075 20.72 53.778 19.0591C53.4153 15.0369 51.8612 11.1963 49.2451 7.97844C46.2923 4.31947 42.6919 2.00991 37.5374 0.504807C35.6465 -0.0401459 23.6539 -0.195847 21.4781 0.297207ZM36.7603 3.17767C40.6197 4.16377 44.4791 6.60308 47.0693 9.6652C49.1933 12.1305 51.0064 16.6717 51.0064 19.4484C51.0064 20.6421 50.9805 20.694 50.2812 20.694C49.5818 20.694 49.5041 20.5643 49.0897 19.0591C47.3284 12.7533 42.2515 8.13414 35.776 7.01829C32.6678 6.47334 22.8509 6.68093 20.5974 7.32969C14.7954 8.96455 10.4956 13.3242 8.88968 19.0851C8.47525 20.5643 8.39754 20.694 7.69819 20.694C6.99883 20.694 6.97293 20.6421 6.97293 19.4484C6.97293 17.6578 7.59458 15.4261 8.83788 12.909C9.69265 11.1444 10.3402 10.2621 12.1274 8.4715C15.3393 5.25368 19.0174 3.38527 23.2653 2.78842C25.985 2.42512 34.7658 2.65867 36.7603 3.17767ZM37.9259 10.3918C41.2155 11.6634 44.2978 14.5438 45.6447 17.58C46.3441 19.1629 46.8621 21.1352 46.8621 22.3029V23.289H37.3042C30.751 23.289 27.4874 23.1852 26.8916 22.9776C24.6381 22.2251 23.084 20.5383 22.1256 17.8395C21.8925 17.2167 21.5817 16.5939 21.4004 16.4901C20.5715 15.9711 19.4059 16.6198 19.4059 17.6319C19.4059 18.592 18.603 19.8636 17.7223 20.2788C17.1006 20.5902 16.0905 20.694 14.096 20.694H11.3245L11.5058 19.8377C11.5835 19.3965 12.0497 18.1768 12.5419 17.1907C14.3032 13.5318 18.0331 10.6513 22.1256 9.79495C22.6955 9.6652 26.0887 9.58735 29.6372 9.63925C36.0091 9.69115 36.1387 9.7171 37.9259 10.3918ZM21.7889 22.8998C22.4365 23.6523 23.4984 24.4049 24.7936 25.0277L26.7621 26.0138L36.8121 26.0916L46.8621 26.1695V31.8007C46.8621 38.7293 46.8103 38.5996 49.4782 38.5996C51.4727 38.5996 51.4468 38.5477 50.7215 40.2863C49.5818 43.0371 44.8677 44.8795 37.4856 45.4504L35.7501 45.5802L35.2062 44.6719C34.196 43.063 33.1599 42.7516 28.9379 42.7516C25.5965 42.7516 25.1303 42.8035 24.2237 43.3485C21.4522 44.9055 21.4522 48.9018 24.2237 50.4588C25.1303 51.0037 25.5965 51.0556 28.9379 51.0556C33.1599 51.0556 34.196 50.7442 35.1803 49.1613L35.7242 48.279L38.4957 48.0973C40.0499 48.0195 42.0702 47.7859 43.0286 47.5783L44.764 47.241L44.3237 48.0454C42.9509 50.4847 38.8066 53.4431 35.2062 54.5589C33.0822 55.2077 26.8398 55.3893 24.3273 54.8444C18.1367 53.5469 12.9304 48.5125 11.5317 42.4921C11.195 41.1687 11.1173 38.9888 11.1173 32.0602V23.315L14.8472 23.2371C18.4216 23.1593 18.603 23.1333 19.5613 22.4327C20.1053 22.0434 20.5974 21.732 20.6751 21.732C20.7269 21.732 21.2191 22.251 21.7889 22.8998ZM8.26803 29.517V35.7451H6.29947C4.48633 35.7451 4.27911 35.6932 3.57976 34.9925L2.8286 34.24V29.7246C2.8286 25.9878 2.9063 25.1315 3.24303 24.6125C3.83878 23.7561 5.05618 23.315 6.79161 23.289H8.26803V29.517ZM53.4412 23.6523C55.0472 24.327 55.1508 24.7163 55.1508 29.7246V34.24L54.3996 34.9925C53.7003 35.6932 53.493 35.7451 51.6799 35.7451H49.7113V29.517V23.289H51.136C51.9389 23.289 52.975 23.4447 53.4412 23.6523ZM32.7196 46.0213C32.9527 46.2289 33.134 46.6441 33.134 46.9036C33.134 47.9935 32.5124 48.2011 28.9897 48.2011C25.467 48.2011 24.8454 47.9935 24.8454 46.9036C24.8454 45.8137 25.467 45.6061 28.9897 45.6061C31.6835 45.6061 32.4088 45.684 32.7196 46.0213Z" fill="url(#paint0_linear_9_2258)"/>
<defs>
<linearGradient id="paint0_linear_9_2258" x1="29" y1="58" x2="29" y2="0" gradientUnits="userSpaceOnUse">
<stop stop-color="#F1D27A"/>
<stop offset="0.239583" stop-color="#EECA64"/>
<stop offset="0.59375" stop-color="#FCE194"/>
<stop offset="0.947917" stop-color="#E4BE51"/>
</linearGradient>
</defs>
</svg>
