<svg width="58" height="58" viewBox="0 0 58 58" fill="none" xmlns="http://www.w3.org/2000/svg">
<path d="M1.65491 0.339844C1.2471 0.521094 0.703363 0.996875 0.454148 1.40469C0.00103111 2.15234 0.00103109 2.49219 0.00103109 28.9547C0.00103109 58.5438 -0.0895922 56.618 1.42835 57.5469C2.13068 57.9773 2.71973 58 22.2264 58H42.2995L43.0698 57.4789C44.3612 56.618 44.4065 56.3914 44.4065 50.3648C44.4065 45.1086 44.3838 44.8594 43.9534 44.6328C43.6362 44.4516 43.3643 44.4516 43.0471 44.6328C42.6167 44.8594 42.594 45.1086 42.594 50.025C42.594 53.8086 42.5261 55.3039 42.3222 55.5758C42.0503 55.9383 40.623 55.9609 22.0905 55.9156L2.15334 55.8477V2.15234L22.0678 2.08438C35.8199 2.06172 42.0729 2.10703 42.2315 2.26562C42.3901 2.42422 42.5261 5.8 42.594 12.0531C42.7073 20.8211 42.73 21.6141 43.1151 21.8406C43.387 22.0219 43.6135 22.0219 43.9081 21.8406C44.2706 21.6141 44.2932 20.8438 44.3385 11.8719C44.4065 1.24609 44.4292 1.42734 43.0698 0.521094L42.2995 0H22.3397C5.71031 0.0226563 2.26662 0.0679687 1.65491 0.339844Z" fill="#D4AE41"/>
<path d="M1.65491 0.339844C1.2471 0.521094 0.703363 0.996875 0.454148 1.40469C0.00103111 2.15234 0.00103109 2.49219 0.00103109 28.9547C0.00103109 58.5438 -0.0895922 56.618 1.42835 57.5469C2.13068 57.9773 2.71973 58 22.2264 58H42.2995L43.0698 57.4789C44.3612 56.618 44.4065 56.3914 44.4065 50.3648C44.4065 45.1086 44.3838 44.8594 43.9534 44.6328C43.6362 44.4516 43.3643 44.4516 43.0471 44.6328C42.6167 44.8594 42.594 45.1086 42.594 50.025C42.594 53.8086 42.5261 55.3039 42.3222 55.5758C42.0503 55.9383 40.623 55.9609 22.0905 55.9156L2.15334 55.8477V2.15234L22.0678 2.08438C35.8199 2.06172 42.0729 2.10703 42.2315 2.26562C42.3901 2.42422 42.5261 5.8 42.594 12.0531C42.7073 20.8211 42.73 21.6141 43.1151 21.8406C43.387 22.0219 43.6135 22.0219 43.9081 21.8406C44.2706 21.6141 44.2932 20.8438 44.3385 11.8719C44.4065 1.24609 44.4292 1.42734 43.0698 0.521094L42.2995 0H22.3397C5.71031 0.0226563 2.26662 0.0679687 1.65491 0.339844Z" fill="url(#paint0_linear_9_2248)"/>
<path d="M8.83681 6.32108C8.72353 6.5703 8.61025 7.6578 8.61025 8.72264C8.61025 11.8945 7.00169 11.5547 22.2264 11.5547H35.3442L35.616 10.9883C35.7973 10.5578 35.7973 10.3539 35.5707 10.082C35.3215 9.78749 33.7583 9.74217 22.9741 9.74217H10.6493V7.70311H35.3442L35.616 7.1367C35.7973 6.70624 35.7973 6.50233 35.5707 6.23045C35.3215 5.93592 33.6676 5.89061 22.1811 5.89061C9.44852 5.89061 9.06337 5.91327 8.83681 6.32108Z" fill="#D4AE41"/>
<path d="M8.83681 6.32108C8.72353 6.5703 8.61025 7.6578 8.61025 8.72264C8.61025 11.8945 7.00169 11.5547 22.2264 11.5547H35.3442L35.616 10.9883C35.7973 10.5578 35.7973 10.3539 35.5707 10.082C35.3215 9.78749 33.7583 9.74217 22.9741 9.74217H10.6493V7.70311H35.3442L35.616 7.1367C35.7973 6.70624 35.7973 6.50233 35.5707 6.23045C35.3215 5.93592 33.6676 5.89061 22.1811 5.89061C9.44852 5.89061 9.06337 5.91327 8.83681 6.32108Z" fill="url(#paint1_linear_9_2248)"/>
<path d="M54.0126 11.8719C53.6274 12.0531 53.0384 12.5516 52.6985 12.982C52.3587 13.4125 51.815 13.8203 51.4751 13.8883C50.9767 14.0016 50.6142 14.4547 49.6173 16.1992C48.6884 17.8078 48.3033 18.3289 48.0314 18.2156C46.9213 17.7398 45.9924 17.9664 45.9924 18.7141C45.9924 19.0539 46.6721 19.8242 47.1252 19.9828C47.2838 20.0281 45.7885 22.8148 43.2737 27.1875C40.1472 32.5797 38.9011 34.9586 38.1535 36.975C37.6097 38.4476 36.8394 40.2601 36.4543 41.0305C35.7746 42.4125 35.6613 43.4094 36.0918 44.4062C36.2051 44.6328 35.8652 45.2219 35.2082 46.0602L34.166 47.3742L33.645 46.2414C32.8294 44.4969 31.538 44.1117 30.3599 45.2672L29.7255 45.9016L29.5896 44.7687C29.5216 44.1344 29.4536 43.2281 29.4536 42.7523C29.4536 41.0531 27.5279 39.943 26.3045 40.9398C25.9873 41.2117 25.3756 42.707 24.492 45.3578C23.2006 49.232 23.1553 49.3906 23.5405 49.8664C23.8123 50.2062 24.0615 50.3195 24.4014 50.2062C24.9678 50.025 24.9451 50.1156 26.2818 45.9922C27.4599 42.4125 27.4373 42.4125 27.7544 45.6523C27.8904 47.057 28.2755 47.7141 29.1591 48.0539C29.7935 48.3031 30.9716 47.8953 31.2888 47.3289C31.6059 46.7172 31.8098 46.7851 32.1497 47.6914C32.2856 48.1219 32.6934 48.6883 33.0106 48.9375C34.1434 49.8211 35.027 49.4586 36.6582 47.3516C37.791 45.9242 37.9269 45.8109 38.7652 45.8109C40.0113 45.7883 40.5777 45.3578 41.7558 43.568C42.3222 42.707 43.4776 41.1891 44.3159 40.1695C45.426 38.8781 47.0799 36.2047 49.9345 31.2203C52.1774 27.3234 54.0352 24.0836 54.0579 24.0383C54.1938 23.8797 55.304 24.718 55.4399 25.0351C55.5079 25.2164 54.6922 26.8703 53.6274 28.7055C50.9767 33.35 51.1353 32.9422 51.611 33.5312C51.9056 33.8937 52.1548 34.007 52.472 33.8937C53.1516 33.6898 57.3203 26.3492 57.3203 25.3976C57.3203 24.4008 56.7766 23.4492 55.8704 22.8148L55.1 22.2937L56.3235 20.1641C57.5242 18.0344 57.7508 17.3773 57.343 17.1055C57.207 17.0375 57.2977 16.5844 57.5469 16.018C57.7961 15.4969 58 14.8172 58 14.5C58 13.6164 57.2524 12.4156 56.3914 11.9625C55.4852 11.4867 54.9641 11.4641 54.0126 11.8719ZM55.5985 13.7297C56.0063 13.8883 56.0743 14.7719 55.7344 15.4289C55.4852 15.882 55.236 15.8367 54.2844 15.1117C53.854 14.7945 53.854 14.7492 54.2165 14.1828C54.6243 13.5937 54.9415 13.4805 55.5985 13.7297ZM53.7634 17.1055L55.304 17.9437L54.4657 19.4617C54.0126 20.2773 53.5595 21.0476 53.4688 21.1383C53.2649 21.3875 50.1611 19.5297 50.2517 19.1898C50.4103 18.6234 51.9282 16.0859 52.0642 16.1766C52.1548 16.2219 52.9251 16.6297 53.7634 17.1055ZM52.1774 22.8828C52.3814 23.0641 44.9049 36.25 44.6104 36.25C44.2026 36.25 41.4612 34.5281 41.5065 34.3016C41.5519 34.1656 43.251 31.1297 45.3127 27.5726L49.0509 21.093L50.5236 21.9086C51.3392 22.3617 52.0868 22.7922 52.1774 22.8828ZM43.251 37.8133C43.5229 37.9719 43.3417 38.2891 42.4807 39.3312C41.869 40.0789 41.3026 40.7586 41.212 40.8492C41.0987 41.0078 39.1956 40.0336 39.1956 39.807C39.1956 39.7617 39.5355 38.8781 40.3058 36.8617L40.555 36.2273L41.7331 36.9297C42.3901 37.3148 43.0698 37.7226 43.251 37.8133ZM39.6261 43.3187C38.6746 44.6555 37.2246 43.5453 38.1082 42.1406C38.38 41.7101 38.4027 41.7101 39.241 42.1859L40.0792 42.6617L39.6261 43.3187Z" fill="#D4AE41"/>
<path d="M54.0126 11.8719C53.6274 12.0531 53.0384 12.5516 52.6985 12.982C52.3587 13.4125 51.815 13.8203 51.4751 13.8883C50.9767 14.0016 50.6142 14.4547 49.6173 16.1992C48.6884 17.8078 48.3033 18.3289 48.0314 18.2156C46.9213 17.7398 45.9924 17.9664 45.9924 18.7141C45.9924 19.0539 46.6721 19.8242 47.1252 19.9828C47.2838 20.0281 45.7885 22.8148 43.2737 27.1875C40.1472 32.5797 38.9011 34.9586 38.1535 36.975C37.6097 38.4476 36.8394 40.2601 36.4543 41.0305C35.7746 42.4125 35.6613 43.4094 36.0918 44.4062C36.2051 44.6328 35.8652 45.2219 35.2082 46.0602L34.166 47.3742L33.645 46.2414C32.8294 44.4969 31.538 44.1117 30.3599 45.2672L29.7255 45.9016L29.5896 44.7687C29.5216 44.1344 29.4536 43.2281 29.4536 42.7523C29.4536 41.0531 27.5279 39.943 26.3045 40.9398C25.9873 41.2117 25.3756 42.707 24.492 45.3578C23.2006 49.232 23.1553 49.3906 23.5405 49.8664C23.8123 50.2062 24.0615 50.3195 24.4014 50.2062C24.9678 50.025 24.9451 50.1156 26.2818 45.9922C27.4599 42.4125 27.4373 42.4125 27.7544 45.6523C27.8904 47.057 28.2755 47.7141 29.1591 48.0539C29.7935 48.3031 30.9716 47.8953 31.2888 47.3289C31.6059 46.7172 31.8098 46.7851 32.1497 47.6914C32.2856 48.1219 32.6934 48.6883 33.0106 48.9375C34.1434 49.8211 35.027 49.4586 36.6582 47.3516C37.791 45.9242 37.9269 45.8109 38.7652 45.8109C40.0113 45.7883 40.5777 45.3578 41.7558 43.568C42.3222 42.707 43.4776 41.1891 44.3159 40.1695C45.426 38.8781 47.0799 36.2047 49.9345 31.2203C52.1774 27.3234 54.0352 24.0836 54.0579 24.0383C54.1938 23.8797 55.304 24.718 55.4399 25.0351C55.5079 25.2164 54.6922 26.8703 53.6274 28.7055C50.9767 33.35 51.1353 32.9422 51.611 33.5312C51.9056 33.8937 52.1548 34.007 52.472 33.8937C53.1516 33.6898 57.3203 26.3492 57.3203 25.3976C57.3203 24.4008 56.7766 23.4492 55.8704 22.8148L55.1 22.2937L56.3235 20.1641C57.5242 18.0344 57.7508 17.3773 57.343 17.1055C57.207 17.0375 57.2977 16.5844 57.5469 16.018C57.7961 15.4969 58 14.8172 58 14.5C58 13.6164 57.2524 12.4156 56.3914 11.9625C55.4852 11.4867 54.9641 11.4641 54.0126 11.8719ZM55.5985 13.7297C56.0063 13.8883 56.0743 14.7719 55.7344 15.4289C55.4852 15.882 55.236 15.8367 54.2844 15.1117C53.854 14.7945 53.854 14.7492 54.2165 14.1828C54.6243 13.5937 54.9415 13.4805 55.5985 13.7297ZM53.7634 17.1055L55.304 17.9437L54.4657 19.4617C54.0126 20.2773 53.5595 21.0476 53.4688 21.1383C53.2649 21.3875 50.1611 19.5297 50.2517 19.1898C50.4103 18.6234 51.9282 16.0859 52.0642 16.1766C52.1548 16.2219 52.9251 16.6297 53.7634 17.1055ZM52.1774 22.8828C52.3814 23.0641 44.9049 36.25 44.6104 36.25C44.2026 36.25 41.4612 34.5281 41.5065 34.3016C41.5519 34.1656 43.251 31.1297 45.3127 27.5726L49.0509 21.093L50.5236 21.9086C51.3392 22.3617 52.0868 22.7922 52.1774 22.8828ZM43.251 37.8133C43.5229 37.9719 43.3417 38.2891 42.4807 39.3312C41.869 40.0789 41.3026 40.7586 41.212 40.8492C41.0987 41.0078 39.1956 40.0336 39.1956 39.807C39.1956 39.7617 39.5355 38.8781 40.3058 36.8617L40.555 36.2273L41.7331 36.9297C42.3901 37.3148 43.0698 37.7226 43.251 37.8133ZM39.6261 43.3187C38.6746 44.6555 37.2246 43.5453 38.1082 42.1406C38.38 41.7101 38.4027 41.7101 39.241 42.1859L40.0792 42.6617L39.6261 43.3187Z" fill="url(#paint2_linear_9_2248)"/>
<path d="M11.7821 14.0469C11.6008 14.3641 11.6008 14.6359 11.7821 14.9531C12.0313 15.4063 12.2125 15.4063 22.2491 15.3609C31.6966 15.293 32.4895 15.2703 32.7161 14.8852C32.8973 14.6133 32.8973 14.3867 32.7161 14.0922C32.4895 13.7297 31.6966 13.707 22.2491 13.6391C12.2125 13.5938 12.0313 13.5938 11.7821 14.0469Z" fill="#D4AE41"/>
<path d="M11.7821 14.0469C11.6008 14.3641 11.6008 14.6359 11.7821 14.9531C12.0313 15.4063 12.2125 15.4063 22.2491 15.3609C31.6966 15.293 32.4895 15.2703 32.7161 14.8852C32.8973 14.6133 32.8973 14.3867 32.7161 14.0922C32.4895 13.7297 31.6966 13.707 22.2491 13.6391C12.2125 13.5938 12.0313 13.5938 11.7821 14.0469Z" fill="url(#paint3_linear_9_2248)"/>
<path d="M15.6336 20.8437C15.4523 21.1609 15.4523 21.4328 15.6336 21.75C15.8601 22.2031 16.1093 22.2031 27.0748 22.2031C38.0402 22.2031 38.2894 22.2031 38.516 21.75C38.6972 21.4328 38.6972 21.1609 38.516 20.8437C38.2894 20.3906 38.0402 20.3906 27.0748 20.3906C16.1093 20.3906 15.8601 20.3906 15.6336 20.8437Z" fill="#D4AE41"/>
<path d="M15.6336 20.8437C15.4523 21.1609 15.4523 21.4328 15.6336 21.75C15.8601 22.2031 16.1093 22.2031 27.0748 22.2031C38.0402 22.2031 38.2894 22.2031 38.516 21.75C38.6972 21.4328 38.6972 21.1609 38.516 20.8437C38.2894 20.3906 38.0402 20.3906 27.0748 20.3906C16.1093 20.3906 15.8601 20.3906 15.6336 20.8437Z" fill="url(#paint4_linear_9_2248)"/>
<path d="M7.20559 26.3039C6.66184 26.5984 6.6845 27.5727 7.22824 27.8672C7.52277 28.0031 11.1704 28.0937 17.514 28.0937C26.7576 28.0937 27.3693 28.0711 27.7091 27.6859C28.2076 27.1422 28.1849 26.893 27.6865 26.4398C27.3013 26.1 26.2592 26.0547 17.4234 26.0547C11.1704 26.0547 7.4548 26.1453 7.20559 26.3039Z" fill="#D4AE41"/>
<path d="M7.20559 26.3039C6.66184 26.5984 6.6845 27.5727 7.22824 27.8672C7.52277 28.0031 11.1704 28.0937 17.514 28.0937C26.7576 28.0937 27.3693 28.0711 27.7091 27.6859C28.2076 27.1422 28.1849 26.893 27.6865 26.4398C27.3013 26.1 26.2592 26.0547 17.4234 26.0547C11.1704 26.0547 7.4548 26.1453 7.20559 26.3039Z" fill="url(#paint5_linear_9_2248)"/>
<path d="M30.2919 26.4625C29.7935 27.0062 29.8162 27.2554 30.3372 27.7312C30.6997 28.0484 31.2435 28.0937 34.4379 28.0484C37.859 27.9804 38.1535 27.9578 38.4254 27.5273C38.6972 27.1195 38.6746 26.9836 38.3801 26.5531C38.0402 26.0773 37.9043 26.0547 34.3473 26.0547C31.0622 26.0547 30.6091 26.1 30.2919 26.4625Z" fill="#D4AE41"/>
<path d="M30.2919 26.4625C29.7935 27.0062 29.8162 27.2554 30.3372 27.7312C30.6997 28.0484 31.2435 28.0937 34.4379 28.0484C37.859 27.9804 38.1535 27.9578 38.4254 27.5273C38.6972 27.1195 38.6746 26.9836 38.3801 26.5531C38.0402 26.0773 37.9043 26.0547 34.3473 26.0547C31.0622 26.0547 30.6091 26.1 30.2919 26.4625Z" fill="url(#paint6_linear_9_2248)"/>
<path d="M7.06965 31.3109C6.70715 31.6734 6.72981 32.2851 7.11496 32.6023C7.31886 32.7836 8.99539 32.8515 12.6883 32.8062C17.4234 32.7383 17.9898 32.693 18.2163 32.3304C18.3976 32.0586 18.3976 31.832 18.2163 31.5375C17.9898 31.1976 17.4234 31.1523 12.6656 31.0844C8.72352 31.039 7.27355 31.107 7.06965 31.3109Z" fill="#D4AE41"/>
<path d="M7.06965 31.3109C6.70715 31.6734 6.72981 32.2851 7.11496 32.6023C7.31886 32.7836 8.99539 32.8515 12.6883 32.8062C17.4234 32.7383 17.9898 32.693 18.2163 32.3304C18.3976 32.0586 18.3976 31.832 18.2163 31.5375C17.9898 31.1976 17.4234 31.1523 12.6656 31.0844C8.72352 31.039 7.27355 31.107 7.06965 31.3109Z" fill="url(#paint7_linear_9_2248)"/>
<path d="M20.5499 31.175C20.278 31.4469 20.3686 32.3304 20.7085 32.6023C20.9124 32.7836 22.2038 32.8515 24.8092 32.8062C28.1396 32.7383 28.638 32.693 28.8646 32.3304C29.0458 32.0586 29.0458 31.832 28.8646 31.5375C28.638 31.1976 28.1396 31.1523 24.6506 31.0844C22.4756 31.0617 20.6405 31.107 20.5499 31.175Z" fill="#D4AE41"/>
<path d="M20.5499 31.175C20.278 31.4469 20.3686 32.3304 20.7085 32.6023C20.9124 32.7836 22.2038 32.8515 24.8092 32.8062C28.1396 32.7383 28.638 32.693 28.8646 32.3304C29.0458 32.0586 29.0458 31.832 28.8646 31.5375C28.638 31.1976 28.1396 31.1523 24.6506 31.0844C22.4756 31.0617 20.6405 31.107 20.5499 31.175Z" fill="url(#paint8_linear_9_2248)"/>
<path d="M10.4227 37.9266C7.29621 38.6062 5.07594 40.6906 4.19236 43.8172C3.37675 46.6039 4.3283 49.8891 6.4806 51.8828C11.329 56.3461 19.0999 53.6953 20.1421 47.193C20.346 45.8562 20.21 45.2445 19.621 45.018C18.9866 44.7687 18.4202 45.4711 18.2843 46.6719C18.0124 48.9375 16.3586 51.0219 14.2063 51.8148C13.7984 51.9508 12.8242 52.0867 11.986 52.0867C9.51649 52.132 7.38684 50.7273 6.32201 48.3937C5.84624 47.3289 5.77827 44.9273 6.18608 43.7945C6.68451 42.4352 7.8173 41.1437 9.08603 40.4414C10.1282 39.8523 10.5587 39.7617 12.0086 39.7617C13.436 39.7617 13.9344 39.875 14.9312 40.3734C16.3359 41.1211 16.9023 41.1664 17.2195 40.5773C17.5593 39.943 17.2874 39.4898 16.2226 38.8781C14.4328 37.8359 12.3711 37.5187 10.4227 37.9266Z" fill="#D4AE41"/>
<path d="M10.4227 37.9266C7.29621 38.6062 5.07594 40.6906 4.19236 43.8172C3.37675 46.6039 4.3283 49.8891 6.4806 51.8828C11.329 56.3461 19.0999 53.6953 20.1421 47.193C20.346 45.8562 20.21 45.2445 19.621 45.018C18.9866 44.7687 18.4202 45.4711 18.2843 46.6719C18.0124 48.9375 16.3586 51.0219 14.2063 51.8148C13.7984 51.9508 12.8242 52.0867 11.986 52.0867C9.51649 52.132 7.38684 50.7273 6.32201 48.3937C5.84624 47.3289 5.77827 44.9273 6.18608 43.7945C6.68451 42.4352 7.8173 41.1437 9.08603 40.4414C10.1282 39.8523 10.5587 39.7617 12.0086 39.7617C13.436 39.7617 13.9344 39.875 14.9312 40.3734C16.3359 41.1211 16.9023 41.1664 17.2195 40.5773C17.5593 39.943 17.2874 39.4898 16.2226 38.8781C14.4328 37.8359 12.3711 37.5187 10.4227 37.9266Z" fill="url(#paint9_linear_9_2248)"/>
<path d="M13.6852 44.9047L11.7821 46.7625L10.5813 45.5844C9.35791 44.3836 8.90479 44.2023 8.42902 44.6781C7.93059 45.1766 8.13449 45.7656 9.22197 46.9211C10.5134 48.3031 11.3969 48.8016 12.2125 48.5977C13.0055 48.4164 16.7664 44.6781 16.7664 44.0664C16.7664 43.5227 16.3586 43.0469 15.9054 43.0469C15.7242 43.0469 14.7273 43.8852 13.6852 44.9047Z" fill="#D4AE41"/>
<path d="M13.6852 44.9047L11.7821 46.7625L10.5813 45.5844C9.35791 44.3836 8.90479 44.2023 8.42902 44.6781C7.93059 45.1766 8.13449 45.7656 9.22197 46.9211C10.5134 48.3031 11.3969 48.8016 12.2125 48.5977C13.0055 48.4164 16.7664 44.6781 16.7664 44.0664C16.7664 43.5227 16.3586 43.0469 15.9054 43.0469C15.7242 43.0469 14.7273 43.8852 13.6852 44.9047Z" fill="url(#paint10_linear_9_2248)"/>
<defs>
<linearGradient id="paint0_linear_9_2248" x1="29" y1="0" x2="29" y2="58" gradientUnits="userSpaceOnUse">
<stop stop-color="#F1D27A"/>
<stop offset="0.239583" stop-color="#EECA64"/>
<stop offset="0.59375" stop-color="#FCE194"/>
<stop offset="0.947917" stop-color="#E4BE51"/>
</linearGradient>
<linearGradient id="paint1_linear_9_2248" x1="29" y1="0" x2="29" y2="58" gradientUnits="userSpaceOnUse">
<stop stop-color="#F1D27A"/>
<stop offset="0.239583" stop-color="#EECA64"/>
<stop offset="0.59375" stop-color="#FCE194"/>
<stop offset="0.947917" stop-color="#E4BE51"/>
</linearGradient>
<linearGradient id="paint2_linear_9_2248" x1="29" y1="0" x2="29" y2="58" gradientUnits="userSpaceOnUse">
<stop stop-color="#F1D27A"/>
<stop offset="0.239583" stop-color="#EECA64"/>
<stop offset="0.59375" stop-color="#FCE194"/>
<stop offset="0.947917" stop-color="#E4BE51"/>
</linearGradient>
<linearGradient id="paint3_linear_9_2248" x1="29" y1="0" x2="29" y2="58" gradientUnits="userSpaceOnUse">
<stop stop-color="#F1D27A"/>
<stop offset="0.239583" stop-color="#EECA64"/>
<stop offset="0.59375" stop-color="#FCE194"/>
<stop offset="0.947917" stop-color="#E4BE51"/>
</linearGradient>
<linearGradient id="paint4_linear_9_2248" x1="29" y1="0" x2="29" y2="58" gradientUnits="userSpaceOnUse">
<stop stop-color="#F1D27A"/>
<stop offset="0.239583" stop-color="#EECA64"/>
<stop offset="0.59375" stop-color="#FCE194"/>
<stop offset="0.947917" stop-color="#E4BE51"/>
</linearGradient>
<linearGradient id="paint5_linear_9_2248" x1="29" y1="0" x2="29" y2="58" gradientUnits="userSpaceOnUse">
<stop stop-color="#F1D27A"/>
<stop offset="0.239583" stop-color="#EECA64"/>
<stop offset="0.59375" stop-color="#FCE194"/>
<stop offset="0.947917" stop-color="#E4BE51"/>
</linearGradient>
<linearGradient id="paint6_linear_9_2248" x1="29" y1="0" x2="29" y2="58" gradientUnits="userSpaceOnUse">
<stop stop-color="#F1D27A"/>
<stop offset="0.239583" stop-color="#EECA64"/>
<stop offset="0.59375" stop-color="#FCE194"/>
<stop offset="0.947917" stop-color="#E4BE51"/>
</linearGradient>
<linearGradient id="paint7_linear_9_2248" x1="29" y1="0" x2="29" y2="58" gradientUnits="userSpaceOnUse">
<stop stop-color="#F1D27A"/>
<stop offset="0.239583" stop-color="#EECA64"/>
<stop offset="0.59375" stop-color="#FCE194"/>
<stop offset="0.947917" stop-color="#E4BE51"/>
</linearGradient>
<linearGradient id="paint8_linear_9_2248" x1="29" y1="0" x2="29" y2="58" gradientUnits="userSpaceOnUse">
<stop stop-color="#F1D27A"/>
<stop offset="0.239583" stop-color="#EECA64"/>
<stop offset="0.59375" stop-color="#FCE194"/>
<stop offset="0.947917" stop-color="#E4BE51"/>
</linearGradient>
<linearGradient id="paint9_linear_9_2248" x1="29" y1="0" x2="29" y2="58" gradientUnits="userSpaceOnUse">
<stop stop-color="#F1D27A"/>
<stop offset="0.239583" stop-color="#EECA64"/>
<stop offset="0.59375" stop-color="#FCE194"/>
<stop offset="0.947917" stop-color="#E4BE51"/>
</linearGradient>
<linearGradient id="paint10_linear_9_2248" x1="29" y1="0" x2="29" y2="58" gradientUnits="userSpaceOnUse">
<stop stop-color="#F1D27A"/>
<stop offset="0.239583" stop-color="#EECA64"/>
<stop offset="0.59375" stop-color="#FCE194"/>
<stop offset="0.947917" stop-color="#E4BE51"/>
</linearGradient>
</defs>
</svg>
