<svg width="60" height="58" viewBox="0 0 60 58" fill="none" xmlns="http://www.w3.org/2000/svg">
<path d="M2.71315 0.273363C1.62325 0.671034 0.834816 1.37281 0.371029 2.40207C0.0463787 3.08045 0 5.53666 0 22.9172V42.6604L0.533355 43.6897C1.15947 44.9529 1.9479 45.5611 3.2697 45.8184C3.82624 45.912 8.64962 46.0055 13.9832 46.0289H23.6531V46.567C23.6531 47.643 22.9343 49.5612 22.1922 50.4033C21.1951 51.5495 20.2907 51.877 18.2036 51.877C16.0934 51.877 15.0035 52.2747 14.3774 53.3274C13.4498 54.8713 14.0759 56.9532 15.6528 57.6316C16.8355 58.1228 42.5292 58.1228 43.7119 57.6316C45.2888 56.9532 45.9149 54.8713 44.9873 53.3274C44.3612 52.2747 43.2713 51.877 41.1611 51.877C39.074 51.877 38.1696 51.5495 37.1725 50.4033C36.4304 49.5612 35.7116 47.643 35.7116 46.567V46.0289H45.4047C50.7151 46.0055 55.5385 45.912 56.095 45.8184C57.4168 45.5611 58.2052 44.9529 58.8545 43.6663L59.3647 42.637L59.3183 22.6131L59.2488 2.58921L58.5995 1.74709C57.2313 -0.0775233 59.5966 0.0628311 30.0302 0.0160463C8.0467 -0.0307386 3.45521 0.0160463 2.71315 0.273363ZM56.6747 2.54243L57.2777 3.01028V35.9702H55.4225V20.3207C55.4225 6.40218 55.3761 4.62435 55.0515 4.29686C54.7268 3.96936 52.1064 3.92258 29.6824 3.92258C7.25826 3.92258 4.63787 3.96936 4.31322 4.29686C3.98857 4.62435 3.94219 6.40218 3.94219 20.3207V35.9702H2.08704V3.01028L2.68996 2.54243C3.31608 2.05119 3.36245 2.05119 29.6824 2.05119C56.0023 2.05119 56.0486 2.05119 56.6747 2.54243ZM53.3355 35.9702H6.02923V6.0279H53.3355V35.9702ZM57.2777 40.368C57.2777 42.6136 57.2313 42.8242 56.6979 43.3388L56.1414 43.9236H3.22332L2.66677 43.3388C2.13342 42.8242 2.08704 42.6136 2.08704 40.368V37.9585H57.2777V40.368ZM33.7405 46.8944C34.0419 48.6255 34.5521 50.1694 35.1087 51.0115L35.6884 51.877H23.6763L24.256 51.0115C24.8126 50.1694 25.3228 48.6255 25.6242 46.8944L25.7634 46.0289H33.6013L33.7405 46.8944ZM43.3641 54.4502C43.5496 54.7777 43.5496 55.0584 43.3641 55.3859C43.109 55.8537 42.8771 55.8537 29.6824 55.8537C16.4876 55.8537 16.2557 55.8537 16.0006 55.3859C15.8151 55.0584 15.8151 54.7777 16.0006 54.4502C16.2557 53.9824 16.4876 53.9823 29.6824 53.9823C42.8771 53.9823 43.109 53.9824 43.3641 54.4502Z" fill="#D4AE41"/>
<path d="M2.71315 0.273363C1.62325 0.671034 0.834816 1.37281 0.371029 2.40207C0.0463787 3.08045 0 5.53666 0 22.9172V42.6604L0.533355 43.6897C1.15947 44.9529 1.9479 45.5611 3.2697 45.8184C3.82624 45.912 8.64962 46.0055 13.9832 46.0289H23.6531V46.567C23.6531 47.643 22.9343 49.5612 22.1922 50.4033C21.1951 51.5495 20.2907 51.877 18.2036 51.877C16.0934 51.877 15.0035 52.2747 14.3774 53.3274C13.4498 54.8713 14.0759 56.9532 15.6528 57.6316C16.8355 58.1228 42.5292 58.1228 43.7119 57.6316C45.2888 56.9532 45.9149 54.8713 44.9873 53.3274C44.3612 52.2747 43.2713 51.877 41.1611 51.877C39.074 51.877 38.1696 51.5495 37.1725 50.4033C36.4304 49.5612 35.7116 47.643 35.7116 46.567V46.0289H45.4047C50.7151 46.0055 55.5385 45.912 56.095 45.8184C57.4168 45.5611 58.2052 44.9529 58.8545 43.6663L59.3647 42.637L59.3183 22.6131L59.2488 2.58921L58.5995 1.74709C57.2313 -0.0775233 59.5966 0.0628311 30.0302 0.0160463C8.0467 -0.0307386 3.45521 0.0160463 2.71315 0.273363ZM56.6747 2.54243L57.2777 3.01028V35.9702H55.4225V20.3207C55.4225 6.40218 55.3761 4.62435 55.0515 4.29686C54.7268 3.96936 52.1064 3.92258 29.6824 3.92258C7.25826 3.92258 4.63787 3.96936 4.31322 4.29686C3.98857 4.62435 3.94219 6.40218 3.94219 20.3207V35.9702H2.08704V3.01028L2.68996 2.54243C3.31608 2.05119 3.36245 2.05119 29.6824 2.05119C56.0023 2.05119 56.0486 2.05119 56.6747 2.54243ZM53.3355 35.9702H6.02923V6.0279H53.3355V35.9702ZM57.2777 40.368C57.2777 42.6136 57.2313 42.8242 56.6979 43.3388L56.1414 43.9236H3.22332L2.66677 43.3388C2.13342 42.8242 2.08704 42.6136 2.08704 40.368V37.9585H57.2777V40.368ZM33.7405 46.8944C34.0419 48.6255 34.5521 50.1694 35.1087 51.0115L35.6884 51.877H23.6763L24.256 51.0115C24.8126 50.1694 25.3228 48.6255 25.6242 46.8944L25.7634 46.0289H33.6013L33.7405 46.8944ZM43.3641 54.4502C43.5496 54.7777 43.5496 55.0584 43.3641 55.3859C43.109 55.8537 42.8771 55.8537 29.6824 55.8537C16.4876 55.8537 16.2557 55.8537 16.0006 55.3859C15.8151 55.0584 15.8151 54.7777 16.0006 54.4502C16.2557 53.9824 16.4876 53.9823 29.6824 53.9823C42.8771 53.9823 43.109 53.9824 43.3641 54.4502Z" fill="url(#paint0_linear_9_2273)"/>
<path d="M13.2179 8.36714C12.7773 8.8116 12.7541 9.13909 12.7541 18.4025C12.7541 27.1746 12.7773 28.0168 13.1715 28.4612C13.5658 28.9525 13.6585 28.9525 25.114 29.0226L36.6623 29.0694L37.2885 30.9408C38.0537 33.2099 38.4479 33.397 39.8393 32.1338L40.7437 31.3151L41.9727 32.5783C42.6684 33.3035 43.4336 33.8649 43.6887 33.8649C44.2453 33.8649 47.5381 30.6601 47.5381 30.1455C47.5381 29.935 46.9352 29.1864 46.2163 28.4378L44.8946 27.0811L45.5902 26.3325C47.028 24.7886 46.8193 24.3676 44.3612 23.5722L42.5524 22.9874V15.7825C42.5524 8.90517 42.5292 8.55428 42.1118 8.22679C41.7176 7.94608 39.3987 7.89929 27.6649 7.89929C13.9832 7.89929 13.6817 7.89929 13.2179 8.36714ZM40.5813 13.0456H14.8412V10.0046H40.5813V13.0456ZM40.5813 18.6598C40.5813 20.7183 40.5581 22.4026 40.535 22.4026C40.4886 22.4026 39.4683 22.0751 38.2624 21.7008C34.4825 20.5078 34.2043 20.7183 35.2478 24.1804C35.6188 25.467 35.9435 26.5664 35.9435 26.66C35.9435 26.777 31.1897 26.8472 25.3923 26.8472H14.8412V14.917H40.5813V18.6598ZM40.2103 24.4143C41.764 24.8588 43.1554 25.2799 43.3409 25.35C43.596 25.4202 43.5496 25.584 43.1554 25.9816C42.3901 26.8238 42.5524 27.4554 43.8742 28.8589L45.0569 30.1221L44.4076 30.8239L43.7351 31.5256L42.4365 30.2391C41.0451 28.8589 40.4422 28.6718 39.7697 29.4203C39.2364 30.0285 39.0508 30.0051 38.8653 29.3501C38.7958 29.0694 38.3783 27.6425 37.9378 26.1922C37.4972 24.7652 37.1957 23.5722 37.2653 23.5722C37.3348 23.5722 38.6566 23.9465 40.2103 24.4143Z" fill="#D4AE41"/>
<path d="M13.2179 8.36714C12.7773 8.8116 12.7541 9.13909 12.7541 18.4025C12.7541 27.1746 12.7773 28.0168 13.1715 28.4612C13.5658 28.9525 13.6585 28.9525 25.114 29.0226L36.6623 29.0694L37.2885 30.9408C38.0537 33.2099 38.4479 33.397 39.8393 32.1338L40.7437 31.3151L41.9727 32.5783C42.6684 33.3035 43.4336 33.8649 43.6887 33.8649C44.2453 33.8649 47.5381 30.6601 47.5381 30.1455C47.5381 29.935 46.9352 29.1864 46.2163 28.4378L44.8946 27.0811L45.5902 26.3325C47.028 24.7886 46.8193 24.3676 44.3612 23.5722L42.5524 22.9874V15.7825C42.5524 8.90517 42.5292 8.55428 42.1118 8.22679C41.7176 7.94608 39.3987 7.89929 27.6649 7.89929C13.9832 7.89929 13.6817 7.89929 13.2179 8.36714ZM40.5813 13.0456H14.8412V10.0046H40.5813V13.0456ZM40.5813 18.6598C40.5813 20.7183 40.5581 22.4026 40.535 22.4026C40.4886 22.4026 39.4683 22.0751 38.2624 21.7008C34.4825 20.5078 34.2043 20.7183 35.2478 24.1804C35.6188 25.467 35.9435 26.5664 35.9435 26.66C35.9435 26.777 31.1897 26.8472 25.3923 26.8472H14.8412V14.917H40.5813V18.6598ZM40.2103 24.4143C41.764 24.8588 43.1554 25.2799 43.3409 25.35C43.596 25.4202 43.5496 25.584 43.1554 25.9816C42.3901 26.8238 42.5524 27.4554 43.8742 28.8589L45.0569 30.1221L44.4076 30.8239L43.7351 31.5256L42.4365 30.2391C41.0451 28.8589 40.4422 28.6718 39.7697 29.4203C39.2364 30.0285 39.0508 30.0051 38.8653 29.3501C38.7958 29.0694 38.3783 27.6425 37.9378 26.1922C37.4972 24.7652 37.1957 23.5722 37.2653 23.5722C37.3348 23.5722 38.6566 23.9465 40.2103 24.4143Z" fill="url(#paint1_linear_9_2273)"/>
<path d="M17.3456 19.151C16.9978 19.3616 16.9282 19.7592 16.9282 21.888C16.9282 23.5488 17.021 24.5079 17.2065 24.695C17.6007 25.0927 25.9952 25.0927 26.3895 24.695C26.575 24.5079 26.6677 23.5488 26.6677 21.888C26.6677 19.6423 26.6214 19.3616 26.2271 19.1277C25.6242 18.8236 17.879 18.8236 17.3456 19.151ZM24.8126 22.8704H18.7834V20.999H24.8126V22.8704Z" fill="#D4AE41"/>
<path d="M17.3456 19.151C16.9978 19.3616 16.9282 19.7592 16.9282 21.888C16.9282 23.5488 17.021 24.5079 17.2065 24.695C17.6007 25.0927 25.9952 25.0927 26.3895 24.695C26.575 24.5079 26.6677 23.5488 26.6677 21.888C26.6677 19.6423 26.6214 19.3616 26.2271 19.1277C25.6242 18.8236 17.879 18.8236 17.3456 19.151ZM24.8126 22.8704H18.7834V20.999H24.8126V22.8704Z" fill="url(#paint2_linear_9_2273)"/>
<path d="M26.0184 40.2276C25.8793 40.368 25.7402 40.6955 25.7402 40.906C25.7402 41.7247 26.2735 41.8417 29.7983 41.7715C32.7665 41.7013 33.2535 41.6545 33.4854 41.2803C33.6709 40.9996 33.6709 40.7656 33.4854 40.4615C33.2535 40.1106 32.7665 40.0639 29.7751 39.9937C27.2707 39.9469 26.2271 40.0171 26.0184 40.2276Z" fill="#D4AE41"/>
<path d="M26.0184 40.2276C25.8793 40.368 25.7402 40.6955 25.7402 40.906C25.7402 41.7247 26.2735 41.8417 29.7983 41.7715C32.7665 41.7013 33.2535 41.6545 33.4854 41.2803C33.6709 40.9996 33.6709 40.7656 33.4854 40.4615C33.2535 40.1106 32.7665 40.0639 29.7751 39.9937C27.2707 39.9469 26.2271 40.0171 26.0184 40.2276Z" fill="url(#paint3_linear_9_2273)"/>
<defs>
<linearGradient id="paint0_linear_9_2273" x1="29.6824" y1="0" x2="29.6824" y2="58" gradientUnits="userSpaceOnUse">
<stop stop-color="#F1D27A"/>
<stop offset="0.239583" stop-color="#EECA64"/>
<stop offset="0.59375" stop-color="#FCE194"/>
<stop offset="0.947917" stop-color="#E4BE51"/>
</linearGradient>
<linearGradient id="paint1_linear_9_2273" x1="29.6824" y1="0" x2="29.6824" y2="58" gradientUnits="userSpaceOnUse">
<stop stop-color="#F1D27A"/>
<stop offset="0.239583" stop-color="#EECA64"/>
<stop offset="0.59375" stop-color="#FCE194"/>
<stop offset="0.947917" stop-color="#E4BE51"/>
</linearGradient>
<linearGradient id="paint2_linear_9_2273" x1="29.6824" y1="0" x2="29.6824" y2="58" gradientUnits="userSpaceOnUse">
<stop stop-color="#F1D27A"/>
<stop offset="0.239583" stop-color="#EECA64"/>
<stop offset="0.59375" stop-color="#FCE194"/>
<stop offset="0.947917" stop-color="#E4BE51"/>
</linearGradient>
<linearGradient id="paint3_linear_9_2273" x1="29.6824" y1="0" x2="29.6824" y2="58" gradientUnits="userSpaceOnUse">
<stop stop-color="#F1D27A"/>
<stop offset="0.239583" stop-color="#EECA64"/>
<stop offset="0.59375" stop-color="#FCE194"/>
<stop offset="0.947917" stop-color="#E4BE51"/>
</linearGradient>
</defs>
</svg>
